<?xml version="1.0" encoding="utf-8"?>
<!-- Generator: Adobe Illustrator 23.0.1, SVG Export Plug-In . SVG Version: 6.00 Build 0)  -->
<svg version="1.1" id="Layer_1" xmlns="http://www.w3.org/2000/svg" xmlns:xlink="http://www.w3.org/1999/xlink" x="0px" y="0px"
	 viewBox="0 0 680.3 275.5" style="enable-background:new 0 0 680.3 275.5;" xml:space="preserve">
<style type="text/css">
	.st0{fill:#F36E21;}
	.st1{fill:#506D4F;}
</style>
<path d="M48.8,159.4l-6.6,19.9h-8.5L55.3,116h9.9l21.6,63.4H78l-6.8-19.9H48.8z M69.6,153l-6.2-18.2c-1.4-4.1-2.4-7.9-3.3-11.6h-0.2
	c-0.9,3.8-2,7.6-3.2,11.5L50.5,153H69.6z"/>
<path d="M95.2,179.4c0.2-3.1,0.4-7.7,0.4-11.8v-55h8.2v28.6h0.2c2.9-5.1,8.2-8.4,15.5-8.4c11.3,0,19.3,9.4,19.2,23.2
	c0,16.3-10.3,24.4-20.4,24.4c-6.6,0-11.9-2.5-15.2-8.6h-0.3l-0.4,7.5H95.2z M103.7,161.1c0,1,0.2,2.1,0.4,3
	c1.6,5.7,6.4,9.7,12.4,9.7c8.7,0,13.8-7.1,13.8-17.5c0-9.1-4.7-16.9-13.5-16.9c-5.6,0-10.9,3.9-12.6,10.2c-0.2,0.9-0.5,2.1-0.5,3.4
	V161.1z"/>
<path d="M190.3,156.2c0,16.8-11.7,24.2-22.7,24.2c-12.3,0-21.8-9-21.8-23.4c0-15.2,10-24.2,22.6-24.2
	C181.4,132.8,190.3,142.3,190.3,156.2z M154.1,156.7c0,10,5.7,17.5,13.8,17.5c7.9,0,13.8-7.4,13.8-17.7c0-7.7-3.9-17.5-13.6-17.5
	C158.4,139,154.1,148,154.1,156.7z"/>
<path d="M208.7,133.8c0.8-3.4-1.5-5.7-4.3-7.9c-2.7-2.2-6.2-3.2-9.7-3.7c-13.3-1.9-26.8,2.3-40.1,0.5c-3.7-0.5-7.4-1.4-10.8-2.8
	c-0.8,2.8,0.8,5.9,3.3,7.5c2.4,1.6,5.5,2,8.4,2.1c8.1,0.3,16.1-1.5,24.2-1.7c5.7-0.2,11.7,0.5,16.9,3c2,1,3.9,3,3.9,3
	C200.3,133.9,208.4,133.8,208.7,133.8c0,0,0,25.2,0,25.2c0,8.7,2.6,14.5,10.2,14.5c5.6,0,9.4-3.9,10.9-7.5c0.5-1.2,0.8-2.7,0.8-4.2
	v-27.9h8.3v33.1c0,4.7,0.1,8.8,0.4,12.4h-7.3l-0.5-7.4h-0.2c-2.2,3.7-7,8.5-15.1,8.5c-7.1,0-15.7-4-15.7-19.9v-26.6"/>
<path d="M262.5,120.8v13.1h11.9v6.3h-11.9v24.6c0,5.6,1.6,8.8,6.2,8.8c2.2,0,3.8-0.3,4.8-0.6l0.4,6.2c-1.6,0.7-4.1,1.1-7.3,1.1
	c-3.9,0-7-1.2-8.9-3.5c-2.4-2.4-3.2-6.5-3.2-11.9v-24.8h-7.1v-6.3h7.1v-10.9L262.5,120.8z"/>
<path d="M312.1,116v37.5c0,14.2,6.3,20.2,14.8,20.2c9.4,0,15.4-6.2,15.4-20.2V116h8.3v37c0,19.5-10.3,27.5-24,27.5
	c-13,0-22.8-7.4-22.8-27.1V116H312.1z"/>
<path d="M362.8,170.9c2.4,1.6,6.8,3.3,10.9,3.3c6,0,8.8-3,8.8-6.8c0-4-2.4-6.1-8.5-8.4c-8.2-2.9-12-7.4-12-12.9
	c0-7.3,5.9-13.4,15.7-13.4c4.6,0,8.7,1.3,11.2,2.8l-2.1,6c-1.8-1.1-5.1-2.6-9.3-2.6c-4.9,0-7.6,2.8-7.6,6.2c0,3.8,2.7,5.5,8.7,7.7
	c7.9,3,11.9,7,11.9,13.7c0,8-6.2,13.6-17,13.6c-5,0-9.6-1.2-12.8-3.1L362.8,170.9z"/>
<g>
	<path d="M110,189c2.2-0.5,4.4-0.9,6.7-1.1c2.3-0.2,4.5-0.2,6.8-0.1c2.3,0.1,4.5,0.4,6.8,0.8c2.2,0.4,4.4,0.9,6.6,1.5
		c4.4,1.2,8.7,2.7,12.9,4.4c4.2,1.7,8.3,3.8,12,6.5c1.8,1.4,3.6,2.9,5.1,4.6c1.5,1.7,2.8,3.6,3.9,5.6c2.1,4.1,3.2,8.8,2.5,13.4
		c-0.1,0.6-0.2,1.1-0.3,1.7c-0.2,0.6-0.3,1.2-1,1.7c-0.3,0.2-0.8,0.3-1.2,0.2c-0.4-0.1-0.7-0.3-0.9-0.5c-0.5-0.4-0.8-0.9-1.2-1.3
		c-1.4-1.9-2.2-4.2-2.4-6.5c-0.2-2.3,0-4.7,0.6-6.9c0.6-2.2,1.5-4.4,2.7-6.3c1.3-1.9,2.9-3.7,4.9-5c1-0.6,2.1-1.1,3.3-1.3
		c1.2-0.2,2.4,0,3.6,0.4c2.3,0.9,3.8,2.8,5.7,3.8c1.9,1.1,4.1,1.5,6.3,1.5c2.2,0,4.4-0.5,6.5-1.2c2.1-0.7,4.1-1.7,6-2.9
		c3.8-2.4,7.3-5.3,11.1-7.7c1.9-1.2,3.9-2.3,6.1-3.2c2.1-0.8,4.4-1.4,6.6-1.6c2.3-0.3,4.6-0.3,6.8,0c2.3,0.3,4.5,0.9,6.6,1.6
		c4.3,1.4,8.4,3.4,12.6,4.9c4.2,1.6,8.7,2.6,13.3,2.1c-4.5,0.6-9.1-0.3-13.3-1.8c-4.3-1.5-8.4-3.3-12.7-4.7
		c-2.1-0.7-4.3-1.2-6.6-1.5c-2.2-0.3-4.5-0.2-6.7,0c-2.2,0.3-4.4,0.8-6.5,1.7c-2.1,0.8-4,1.9-5.9,3.1c-3.8,2.5-7.2,5.4-11.1,7.8
		c-1.9,1.2-4,2.3-6.2,3c-2.2,0.8-4.5,1.2-6.8,1.3c-2.3,0-4.7-0.4-6.7-1.6c-2.1-1.1-3.6-2.9-5.6-3.7c-1-0.4-2-0.5-3.1-0.3
		c-1,0.2-2,0.6-3,1.1c-1.8,1.1-3.4,2.8-4.5,4.7c-1.2,1.9-2.1,3.9-2.6,6.1c-0.6,2.1-0.8,4.4-0.6,6.5c0.2,2.2,0.9,4.3,2.2,6.1
		c0.3,0.4,0.7,0.9,1,1.2c0.4,0.3,0.7,0.5,1,0.3c0.6-0.4,0.7-1.8,1-2.8c0.7-4.4-0.3-8.9-2.4-12.8c-2-4-5.1-7.3-8.7-10
		c-3.6-2.7-7.6-4.7-11.8-6.5c-4.2-1.7-8.4-3.3-12.8-4.5c-2.2-0.6-4.4-1.1-6.6-1.6c-2.2-0.4-4.5-0.7-6.7-0.9c-2.3-0.2-4.5-0.2-6.8,0
		C114.5,188.1,112.2,188.4,110,189z"/>
</g>
<path class="st0" d="M168.7,212.7c-0.7,4-0.2,8.2,1.3,12c0,0.1,0.1,0.3,0.2,0.3c0.2,0.1,0.4-0.1,0.5-0.3c0.5-1,0.5-2.2,0.4-3.3
	c-0.3-3.3-1.1-6.5-2.4-9.5"/>
<g>
	<path d="M244.8,115.3c6.3-1.3,12.6-2.5,18.9-4.2c6.2-1.6,12.3-3.7,18.1-6.5c5.7-2.8,11.2-6.4,15.7-10.9c2.2-2.2,4.4-4.7,5.2-7.7
		c0.4-1.5,0.3-3.1-0.5-4.3c-0.7-1.3-2.3-1.7-3.7-1.4c-1.5,0.2-2.9,1-4.2,1.9c-1.3,0.9-2.4,2-3.4,3.2c-1,1.2-1.7,2.6-2.3,4.1
		c-0.6,1.4-0.8,3,0.1,4.2c0.8,1.2,2.4,1.7,3.9,2c1.5,0.3,3.2,0.4,4.8,0.7c3.2,0.4,6.4,0.9,9.6,1.5c6.3,1.3,12.6,3.2,18.2,6.5
		c1.4,0.8,2.7,1.8,3.8,3c1.1,1.2,1.8,2.8,2.1,4.4c0.6,3.2-0.1,6.5-0.8,9.6c0.6-3.1,1.3-6.4,0.6-9.5c-0.3-1.6-1-3-2.1-4.2
		c-1.1-1.2-2.4-2.1-3.8-2.9c-5.6-3.2-11.8-5-18.1-6.2c-3.2-0.6-6.3-1-9.5-1.4c-1.6-0.2-3.2-0.3-4.8-0.7c-0.8-0.2-1.6-0.4-2.4-0.8
		c-0.8-0.4-1.5-0.9-2.1-1.6c-0.5-0.7-0.8-1.7-0.8-2.6c0-0.9,0.3-1.7,0.6-2.5c0.6-1.6,1.4-3,2.4-4.3c1-1.3,2.2-2.5,3.6-3.4
		c1.3-0.9,2.8-1.8,4.6-2.1c0.9-0.1,1.8-0.1,2.6,0.2c0.9,0.3,1.6,0.9,2.1,1.7c0.9,1.6,0.9,3.4,0.5,5.1c-0.4,1.7-1.2,3.2-2.2,4.5
		c-1,1.3-2.1,2.5-3.3,3.7c-4.6,4.6-10.2,8.2-16,10.9c-5.9,2.8-12,4.8-18.3,6.3C257.5,113.1,251.1,114.2,244.8,115.3z"/>
</g>
<path class="st1" d="M294.4,93.9c-1.2-0.3-2.2-1.3-2.6-2.4c-0.4-1.2-0.3-2.5,0.1-3.6s1.1-2.2,2-3.1c1-1.1,2.3-2.1,3.8-2.6
	c0.5-0.1,1-0.2,1.4-0.1c0.5,0.1,1,0.3,1.3,0.7c0.4,0.4,0.4,1,0.4,1.6c0,1-0.4,1.9-0.9,2.8c-1.2,2.2-3,4.1-4.8,5.8"/>
</svg>
