<?xml version="1.0" encoding="utf-8"?>
<!-- Generator: Adobe Illustrator 23.0.1, SVG Export Plug-In . SVG Version: 6.00 Build 0)  -->
<svg version="1.1" id="Layer_1" xmlns="http://www.w3.org/2000/svg" xmlns:xlink="http://www.w3.org/1999/xlink" x="0px" y="0px"
	 viewBox="0 0 279 284" style="enable-background:new 0 0 279 284;" xml:space="preserve">
<style type="text/css">
	.st0{fill:#FD6D0D;}
	.st1{fill:#FFFFFF;}
	.st2{fill:#B8D8B6;}
	.st3{fill:none;stroke:#1C274D;stroke-width:2.6739;stroke-miterlimit:10;}
	.st4{fill:none;stroke:#1C274D;stroke-width:2.6739;stroke-linecap:round;stroke-linejoin:round;stroke-miterlimit:10;}
	.st5{fill:#1C274D;}
</style>
<path class="st0" d="M124,139.5c-3.2,0.3-6.4,0.8-9.6,1.6c-5.3,1.6-10.9,3.2-16.5,3.7c-8.5,0.8-20.2-0.3-26.3-7.4
	c-5.9-6.9-4.8-21,5.6-22.9c-5.3-2.7-12.8,1.6-15.4,6.4c-4,6.7-1.9,15.4,2.9,21c5.9,6.7,15.4,10.1,24.2,10.1c10.6,0,20.5-4.8,30.9-8
	c9.3-2.9,18.6-2.9,27.9-1.9c-5.6-0.8-11.2-2.4-16.8-2.9C128.8,139.2,126.4,139.2,124,139.5z"/>
<path class="st0" d="M65.2,102c-1.6-1.1-4-1.3-5.6-0.5c0.8-0.5,2.9,1.1,3.5,1.9c2.4,3.2-0.8,6.1-2.9,8.2c-1.1,1.1-1.9,2.1-2.7,3.5
	c-0.3,0.3-0.3,0.5-0.5,0.8l0,0c-3.2,5.9-2.9,11.4-2.1,15.2c0.3,0.3,0.5,0.8,0.8,0.8c-1.3-9,3.5-13.6,3.5-13.6
	c1.1-1.3,2.4-2.4,3.7-3.5c2.4-1.9,4.8-4.3,4.8-7.7C67.6,105.2,66.8,103,65.2,102z"/>
<path class="st0" d="M75.6,120.9c0,0-6.4,14.6,10.1,17.6C85.7,138.4,73.7,134.4,75.6,120.9z"/>
<path class="st1" d="M149,103.8l-6.7,30.3c0,0,28.5-1.9,54.8,12l6.7-30.3c0.8,0.3,1.6,0.5,2.4,0.5c17.3,3.7,34.1-7.2,37.8-24.2
	c3.7-17-6.9-33.8-23.9-37.8c-0.5-14.1-10.4-26.9-25-30.1c-14.6-3.2-28.7,4.3-35.1,17c-17-3.5-33.8,7.4-37.5,24.5
	c-3.7,17.3,7.2,34.1,24.2,37.8C147.4,103.6,148.2,103.6,149,103.8z"/>
<path class="st2" d="M203,114.5l2.4-11.4c0,0,26.1,7.7,39.9-14.6C245.6,88.4,240.3,123.5,203,114.5z"/>
<path class="st2" d="M128.8,71.1c3.7-17,20.5-27.9,37.5-24.5c6.4-12.8,20.7-20,35.1-17c4,0.8,7.7,2.4,10.9,4.5
	c-4.3-5.1-10.1-8.8-17.3-10.1c-14.6-3.2-28.7,4.3-35.1,17c-17-3.5-33.8,7.4-37.5,24.5c-2.9,13.3,2.9,26.1,13.6,33.3
	C129.6,91.3,126.4,81.2,128.8,71.1z"/>
<path class="st3" d="M149,103.8l-6.7,30.3c0,0,28.5-1.9,54.8,12l6.7-30.3c0.8,0.3,1.6,0.5,2.4,0.5c17.3,3.7,34.1-7.2,37.8-24.2
	c3.7-17-6.9-33.8-23.9-37.8c-0.5-14.1-10.4-26.9-25-30.1c-14.6-3.2-28.7,4.3-35.1,17c-17-3.5-33.8,7.4-37.5,24.5
	c-3.7,17.3,7.2,34.1,24.2,37.8C147.4,103.6,148.2,103.6,149,103.8z"/>
<path class="st2" d="M155.7,105.2l-4.5,21.5c0,0,23.9-0.3,42.3,9.3c0,0-8.2-10.4-36.2-13.8L155.7,105.2z"/>
<path class="st4" d="M187.9,111.3l-4,18.1"/>
<path class="st4" d="M177.2,108.1l-4,18.1"/>
<path class="st4" d="M164.4,106.5l-4,18.1"/>
<g>
	<path class="st5" d="M54.2,226.1l-5.8,17.7c0,0-7.5,0-7.5,0c0.2-0.6,0.4-1.3,0.7-1.9c3.8-11.1,7.5-22.1,11.3-33.2
		c1.8-5.4,3.7-10.9,5.5-16.3c0.5-1.4,1.5-3,1.6-4.5c0.2-2.2-1.8-2.8-3.6-3.6c-4.8-2-10-3-15.2-2.7c-3.3,0.2-6.6,0.8-9.8,1.5
		c-3,0.7-6,1.5-9,0.9c-3-0.6-5.8-3.1-5.6-6.2c0-0.7,0.3-1.4,0.8-1.8c0.6-0.5,1.4-0.5,2.2-0.5c3.4,0.1,6.9,0.8,10.3,0.6
		c3.2-0.1,6.4-1.1,9.6-1.5c5.2-0.7,10.7,0,15.5,2.3c3.2,1.6,6,3.9,8,6.8c0.7,1.1,1.3,3,2.5,3.6c0.9,0.5,2.2,0.2,3.2,0.2
		c0.7,2.1,1.4,4.1,2.1,6.2c3.5,10.2,6.9,20.3,10.4,30.5c1.6,4.6,3.1,9.2,4.7,13.7c0.1,0.4,1.6,5.7,1.9,5.7c-0.1,0-7.7,0-7.7,0
		l-6-17.7H54.2z M72.6,220.4l-5.5-16.2c-1.2-3.7-2.1-7-2.9-10.2h-0.2c-0.8,3.3-1.7,6.7-2.8,10.2l-5.5,16.2H72.6z"/>
	<path class="st5" d="M94.4,236.3c2.2,1.4,6,2.9,9.7,2.9c5.3,0,7.8-2.7,7.8-6c0-3.5-2.1-5.4-7.5-7.4c-7.2-2.6-10.7-6.6-10.7-11.4
		c0-6.5,5.2-11.8,13.9-11.8c4.1,0,7.7,1.2,9.9,2.5l-1.8,5.3c-1.6-1-4.5-2.3-8.2-2.3c-4.3,0-6.7,2.5-6.7,5.5c0,3.3,2.4,4.8,7.7,6.8
		c7,2.7,10.6,6.2,10.6,12.2c0,7.1-5.5,12.1-15.1,12.1c-4.4,0-8.5-1.1-11.3-2.7L94.4,236.3z"/>
	<path class="st5" d="M135.6,221.9h0.2c1-1.4,2.4-3.2,3.6-4.6l11.8-13.9h8.8L144.4,220l17.7,23.7h-8.9l-13.9-19.3l-3.7,4.2v15.2
		h-7.2v-59.1h7.2V221.9z"/>
	<path class="st5" d="M194.4,226.1l-5.8,17.7H181l19.1-56.1h8.7l19.2,56.1h-7.7l-6-17.7H194.4z M212.8,220.4l-5.5-16.2
		c-1.2-3.7-2.1-7-2.9-10.2h-0.2c-0.8,3.3-1.7,6.7-2.8,10.2l-5.5,16.2H212.8z"/>
	<path class="st5" d="M243.5,187.6v56.1h-7.2v-56.1H243.5z"/>
</g>
<path class="st5" d="M145.1,196.9c-0.1,0-0.1,0-0.2,0c-0.3-0.1-0.6-0.3-0.8-0.5c-0.3-0.5-0.3-1.4,0.2-2.6l1.7-5.1
	c0.1-0.2,0.2-0.5,0.1-0.7c0-0.2-0.1-0.4-0.2-0.5l-0.1-0.1c-0.7-1.2-1-2.5-1.3-3.7c-0.6-2.8-1-5.6-1.3-8.4c-0.1-1.3-0.1-2.7,0.5-3.9
	c0.8-1.3,2.2-2,3.5-2.5c7.4-2.9,15.6-2.8,23.4-2.6c1.9,0.1,3.8,0.2,5.1,1.5c0.7,0.6,1.1,1.5,1.4,2.3c1.3,3.2,2,6.5,2.1,9.9
	c0,1.5-0.1,3.6-1.4,5.1c-1.3,1.4-3.3,1.8-5,1.9c-1.7,0.2-3.4,0.2-5.1,0.2c-1.4,0-2.9,0.1-4.3,0.2c-3.8,0.3-6.6,1-8.9,2.3
	c-1.7,0.9-3.1,2.2-4.6,3.5c-0.6,0.5-1.2,1.1-1.9,1.6c-0.1,0.1-0.2,0.2-0.4,0.3C146.9,196.1,145.9,196.9,145.1,196.9z M165.3,166.9
	c-6,0-12,0.5-17.6,2.6c-1.2,0.5-2.5,1.1-3.1,2.2c-0.6,1-0.5,2.3-0.4,3.4c0.2,2.8,0.6,5.6,1.2,8.3c0.2,1.1,0.6,2.4,1.2,3.5l0,0.1
	c0.1,0.2,0.3,0.5,0.3,0.8c0.1,0.4-0.1,0.7-0.2,1c0,0,0,0,0,0L145,194c-0.5,1.3-0.3,1.8-0.2,2c0.1,0.1,0.1,0.2,0.3,0.2
	c0.5,0.1,1.8-1.1,2.4-1.5c0.2-0.1,0.3-0.3,0.4-0.4c0.6-0.5,1.2-1.1,1.9-1.6c1.5-1.3,3-2.6,4.7-3.6c2.4-1.4,5.3-2.1,9.2-2.4
	c1.4-0.1,2.9-0.1,4.3-0.2c1.7,0,3.4-0.1,5.1-0.2c1.6-0.1,3.4-0.5,4.5-1.7c1.1-1.2,1.2-3.1,1.2-4.6c-0.1-3.3-0.8-6.6-2.1-9.7
	c-0.3-0.8-0.7-1.5-1.3-2.1c-1.1-1.1-2.9-1.2-4.6-1.3C168.9,167,167.1,166.9,165.3,166.9z M146.4,188.8L146.4,188.8L146.4,188.8z"/>
<path class="st5" d="M151.5,174.5c-0.1,0-0.2-0.1-0.3-0.2c-0.1-0.2-0.1-0.4,0.1-0.5c4.8-3.3,10.7-5,16.6-4.7c0.2,0,0.4,0.2,0.4,0.4
	s-0.2,0.3-0.4,0.4c-5.7-0.3-11.4,1.4-16.1,4.6C151.7,174.5,151.6,174.5,151.5,174.5z"/>
<path class="st5" d="M152.7,176.8c-0.1,0-0.3-0.1-0.3-0.2c-0.1-0.2,0-0.4,0.2-0.5c5.3-2,11-2.8,16.6-2.2c0.2,0,0.4,0.2,0.3,0.4
	c0,0.2-0.2,0.3-0.4,0.3c-5.5-0.6-11.1,0.1-16.3,2.1C152.8,176.8,152.8,176.8,152.7,176.8z"/>
<path class="st5" d="M155.5,181.9c-0.2,0-0.3-0.1-0.4-0.2c-0.1-0.2,0-0.4,0.2-0.5c4.7-1.7,9.6-2.5,14.7-2.5c0.2,0,0.4,0.2,0.4,0.4
	c0,0.2-0.2,0.4-0.4,0.4c-0.1,0-0.3,0-0.4,0c-4.8,0-9.5,0.8-14,2.4C155.6,181.9,155.6,181.9,155.5,181.9z"/>
<g>
	<path class="st5" d="M98.7,266.7c6.4,2.6,13.1,4.2,20,4.7l1.3,0.1l1.3,0l2.6,0.1c1.7,0,3.4,0,5.1-0.2c3.4-0.2,6.8-0.8,10.2-1.5
		l2.5-0.6l2.5-0.7c0.8-0.2,1.6-0.5,2.4-0.8c0.8-0.3,1.6-0.6,2.4-0.9c1.6-0.7,3.2-1.3,4.7-2.1c1.5-0.7,3-1.6,4.5-2.5
		c2.9-1.8,5.6-3.9,7.8-6.5c1.1-1.3,2.1-2.7,2.8-4.2c0.7-1.5,1.6-3.2,1-4.4c-0.1-0.2-0.4-0.4-0.7-0.4c-0.3,0-0.7,0.1-1.1,0.3
		c-0.8,0.3-1.6,0.6-2.3,1c-1.5,0.7-3,1.6-4.3,2.6c-1.4,1-2.6,2.2-3.8,3.4c-0.5,0.6-1,1.3-1.3,2c-0.3,0.7-0.3,1.5,0,2.2
		c0.6,1.4,2,2.4,3.6,2.7c1.6,0.3,3.3,0,5-0.3c3.3-0.7,6.5-2.1,9.8-3.2c6.6-2.1,13.8-2.7,20.6-1c6.7,1.7,12.9,5.7,16.6,11.6
		c-3.8-5.8-10.1-9.6-16.7-11.1c-6.7-1.6-13.7-0.9-20.2,1.2c-3.2,1.1-6.4,2.5-9.8,3.3c-1.7,0.4-3.5,0.7-5.3,0.3
		c-1.8-0.3-3.6-1.4-4.3-3.2c-0.4-0.9-0.4-2,0-2.8c0.3-0.9,0.9-1.7,1.4-2.3c1.2-1.3,2.5-2.5,3.9-3.5c1.4-1.1,2.9-2,4.5-2.7
		c0.8-0.4,1.6-0.7,2.4-1c0.4-0.2,0.9-0.3,1.4-0.3c0.6,0,1.2,0.3,1.5,0.9c0.3,0.5,0.3,1,0.3,1.5c0,0.5-0.1,1-0.3,1.4l-0.5,1.2
		c-0.2,0.4-0.4,0.8-0.6,1.2c-0.8,1.6-1.8,3-3,4.3c-2.3,2.7-5.1,4.8-8.1,6.6c-1.5,0.9-3,1.7-4.6,2.5c-1.5,0.8-3.2,1.4-4.8,2.1
		c-3.2,1.2-6.6,2.3-10,3c-3.4,0.7-6.8,1.2-10.3,1.4c-1.7,0.1-3.5,0.1-5.2,0.1l-2.6-0.1c-0.9,0-1.7-0.1-2.6-0.2
		C111.8,271.2,105,269.4,98.7,266.7z"/>
</g>
<g>
	<path class="st5" d="M240.5,179.1c-1.1-2.1-3-3.5-5.1-4.5c-2.1-1-4.3-1.7-6.4-2.7c-2.1-1-4-2.4-5.6-4.1c-1.6-1.7-2.8-3.9-3.4-6.2
		c-0.3-1.2-0.4-2.4-0.3-3.6c0.1-1.2,0.4-2.4,1.2-3.4c1.7-2,4.7-2.2,6.9-1.1c2.2,1.1,3.7,3.2,4.7,5.3c1,2.1,1.7,4.3,2.5,6.5l-0.9-0.1
		l4.3-7.4c1.4-2.4,2.8-5,4.9-7.1c1.1-1,2.3-1.9,3.7-2.4c1.4-0.5,3-0.6,4.5-0.1c0.7,0.3,1.4,0.7,2,1.2c0.5,0.6,0.9,1.3,1.1,2.1
		c0.4,1.5,0.1,3-0.3,4.4c-0.8,2.8-2.4,5.3-4.1,7.6c-1.8,2.3-3.8,4.3-5.8,6.3c-4.1,4-8.3,7.8-12.8,11.2c4.4-3.6,8.5-7.5,12.5-11.6
		c2-2,3.9-4.1,5.6-6.4c1.7-2.2,3.1-4.7,3.9-7.4c0.4-1.3,0.6-2.7,0.3-4c-0.3-1.3-1.3-2.3-2.5-2.7c-1.2-0.4-2.6-0.4-3.9,0.1
		c-1.3,0.4-2.4,1.2-3.4,2.2c-2,2-3.3,4.4-4.7,6.9l-4.3,7.4l-0.5,0.9l-0.4-1c-0.8-2.2-1.5-4.4-2.4-6.4c-0.9-2-2.3-3.9-4.3-4.9
		c-1-0.5-2.1-0.7-3.1-0.5c-1.1,0.1-2.1,0.6-2.7,1.4c-0.7,0.8-1,1.9-1.1,3c-0.1,1.1,0,2.2,0.2,3.3c0.5,2.2,1.6,4.2,3.1,5.9
		c1.5,1.7,3.4,3.1,5.4,4.2c2,1.1,4.2,1.8,6.3,2.9C237.6,175.5,239.5,177,240.5,179.1z"/>
</g>
<path class="st0" d="M234.8,172.3c-2.3-1.8-4.9-3.1-7.2-5c-2.2-1.9-4.1-4.5-4.1-7.4c0-0.8,0.2-1.8,1-2.1c0.5-0.2,1.2-0.1,1.7,0.2
	c0.5,0.3,0.9,0.8,1.2,1.3c2.7,3.4,5.5,6.7,8.5,9.8c1.4-4.3,4.1-8.1,7.6-10.9c0.7-0.5,1.4-1.1,2.3-1.3c0.6-0.2,1.3-0.2,1.7,0.1
	c0.4,0.3,0.6,0.8,0.7,1.3c0.2,1.5-0.5,2.9-1.2,4.2c-2.3,4.1-5.3,7.7-9,10.6c-0.6,0.5-0.8,0.8-1.6,0.4
	C235.9,173.2,235.4,172.7,234.8,172.3z"/>
</svg>
