<?xml version="1.0" encoding="utf-8"?>
<!-- Generator: Adobe Illustrator 23.0.1, SVG Export Plug-In . SVG Version: 6.00 Build 0)  -->
<svg version="1.1" id="Layer_1" xmlns="http://www.w3.org/2000/svg" xmlns:xlink="http://www.w3.org/1999/xlink" x="0px" y="0px"
	 viewBox="0 0 471 103" style="enable-background:new 0 0 471 103;" xml:space="preserve">
<style type="text/css">
	.st0{opacity:0.25;enable-background:new    ;}
	.st1{fill:#F36D21;}
	.st2{opacity:0.35;}
	.st3{fill:#506D4F;}
</style>
<g>
	<g class="st0">
		<path class="st1" d="M49.4,91.6c-4.9,0-9.3-1.1-13-3.3c-3.7-2.2-6.6-5.3-8.6-9.2c-2-4-3.1-8.6-3.1-13.9V45.7c0-5.3,1-10,3.1-13.9
			c2-4,4.9-7,8.6-9.2s8-3.3,13-3.3c4.1,0,7.8,0.9,11.2,2.6c3.4,1.8,6.2,4.2,8.5,7.4s3.8,6.8,4.7,11.1H63.6c-0.6-2.3-1.6-4.3-3.1-6
			c-1.4-1.7-3.1-3-5.1-4c-1.9-0.9-4-1.4-6-1.4c-4.4,0-7.9,1.5-10.5,4.6s-4,7.1-4,12.2v19.4c0,5,1.3,9.1,4,12.1
			c2.6,3.1,6.1,4.6,10.5,4.6c3.1,0,6-1,8.7-2.9c2.7-1.9,4.6-4.8,5.5-8.4h10.2c-0.8,4.2-2.4,7.9-4.7,11.1c-2.3,3.2-5.1,5.6-8.5,7.4
			C57.2,90.7,53.5,91.6,49.4,91.6z"/>
		<path class="st1" d="M107.2,91.6c-3.4,0-6.7-0.3-9.7-1c-3-0.6-5.9-1.6-8.5-2.9c-2.6-1.3-5.1-2.9-7.4-4.9l6.2-7.6
			c2.7,2.3,5.7,4.1,8.9,5.3s6.8,1.8,10.6,1.8c5.1,0,9.1-1,11.9-2.9c2.8-1.9,4.2-4.6,4.2-8l0,0c0-2.7-0.7-4.8-2.1-6.2
			c-1.4-1.4-3.3-2.5-5.6-3.2s-4.9-1.3-7.6-1.7c-2.7-0.5-5.4-1-8.1-1.6c-2.7-0.6-5.2-1.6-7.5-2.9c-2.3-1.3-4.1-3.2-5.5-5.7
			s-2.1-5.8-2.1-9.9l0,0c0-6.6,2.2-11.7,6.6-15.3c4.4-3.6,10.6-5.4,18.6-5.4c3.8,0,7.5,0.6,11.2,1.8c3.6,1.2,7.2,3.1,10.6,5.6
			l-5.7,7.9c-2.7-2-5.4-3.5-8.1-4.5c-2.7-1-5.4-1.5-8.1-1.5c-4.8,0-8.6,1-11.3,2.9s-4,4.7-4,8.2l0,0c0,2.7,0.8,4.7,2.3,6.1
			c1.6,1.4,3.6,2.4,6.1,3.1s5.2,1.3,8.1,1.9c2.6,0.5,5.2,1.1,7.8,1.9c2.6,0.7,5,1.8,7.1,3.2s3.8,3.3,5.1,5.7s1.9,5.5,1.9,9.4v0.1
			c0,6.5-2.3,11.6-6.8,15.2C121.9,89.8,115.5,91.6,107.2,91.6z"/>
		<path class="st1" d="M156.4,20v70.9h-9.9V20L156.4,20L156.4,20z"/>
		<path class="st1" d="M195.2,91.6c-3.4,0-6.7-0.3-9.7-1c-3-0.6-5.9-1.6-8.5-2.9c-2.6-1.3-5.1-2.9-7.4-4.9l6.2-7.6
			c2.7,2.3,5.7,4.1,8.9,5.3c3.2,1.2,6.8,1.8,10.6,1.8c5.1,0,9.1-1,11.9-2.9s4.2-4.6,4.2-8l0,0c0-2.7-0.7-4.8-2.1-6.2
			s-3.3-2.5-5.6-3.2c-2.3-0.7-4.9-1.3-7.6-1.7c-2.7-0.5-5.4-1-8.1-1.6c-2.7-0.6-5.2-1.6-7.5-2.9c-2.3-1.3-4.1-3.2-5.5-5.7
			s-2.1-5.8-2.1-9.9l0,0c0-6.6,2.2-11.7,6.6-15.3c4.4-3.6,10.6-5.4,18.6-5.4c3.8,0,7.5,0.6,11.2,1.8c3.6,1.2,7.2,3.1,10.6,5.6
			l-5.7,7.9c-2.7-2-5.4-3.5-8.1-4.5s-5.4-1.5-8.1-1.5c-4.8,0-8.6,1-11.3,2.9c-2.7,1.9-4,4.7-4,8.2l0,0c0,2.7,0.8,4.7,2.3,6.1
			c1.6,1.4,3.6,2.4,6.1,3.1c2.5,0.7,5.2,1.3,8.1,1.9c2.6,0.5,5.2,1.1,7.8,1.9c2.6,0.7,5,1.8,7.1,3.2s3.8,3.3,5.1,5.7
			c1.3,2.4,1.9,5.5,1.9,9.4v0.1c0,6.5-2.3,11.6-6.8,15.2C209.9,89.8,203.5,91.6,195.2,91.6z"/>
		<path class="st1" d="M259.7,80v-8.6l23.8-51.3h10.2l-23.2,50.7h34.7V80L259.7,80L259.7,80z M290.3,90.9V49.2h9.7v41.7H290.3z"/>
		<path class="st1" d="M316.5,80v-8.6l23.8-51.3h10.2l-23.2,50.7H362V80L316.5,80L316.5,80z M347,90.9V49.2h9.7v41.7H347z"/>
		<path class="st1" d="M381.5,90.8l17.8-35.2v1.8c-0.8,1.5-2.1,2.6-3.8,3.3c-1.7,0.7-3.6,1-5.8,1c-5.1,0-9.2-1.9-12.3-5.7
			c-3.1-3.8-4.7-8.8-4.7-15.1l0,0c0-6.9,1.7-12.2,5.2-16s8.3-5.7,14.6-5.7c6.3,0,11.1,1.9,14.6,5.7c3.4,3.8,5.2,9.2,5.2,16.2l0,0
			c0,2.9-0.4,6-1.3,9.4c-0.8,3.4-2.1,6.7-3.7,9.9l-15.1,30.4H381.5z M392.6,52.7c3.1,0,5.5-1.1,7.2-3.2c1.7-2.1,2.6-5.1,2.6-8.9l0,0
			c0-3.7-0.9-6.6-2.6-8.7c-1.7-2-4.1-3.1-7.2-3.1c-3.2,0-5.6,1-7.3,3.1c-1.7,2-2.6,5-2.6,8.7l0,0c0,3.8,0.9,6.8,2.6,8.9
			C387,51.6,389.4,52.7,392.6,52.7z"/>
		<path class="st1" d="M445.2,91.6c-5.4,0-9.8-1.6-13.3-4.7s-5.6-7.5-6.5-13.1l0,0h9.9l0,0c0.4,2.6,1.4,4.6,3.1,6.1
			c1.7,1.4,4,2.2,6.7,2.2c3.2,0,5.6-1.1,7.4-3.2c1.7-2.1,2.6-5.1,2.6-9V64c0-3.9-0.9-6.9-2.6-9c-1.7-2.1-4.2-3.2-7.4-3.2
			c-1.7,0-3.4,0.5-5,1.5s-3,2.3-4.2,4.1H427V20.1h36.1v9.5h-26.2v15.9c1.2-1,2.6-1.8,4.1-2.3c1.5-0.6,3.1-0.8,4.7-0.8
			c6.2,0,10.9,1.9,14.3,5.7c3.4,3.8,5.1,9.1,5.1,16V70c0,6.9-1.7,12.3-5.2,16.1C456.5,89.7,451.6,91.6,445.2,91.6z"/>
	</g>
	<g class="st2">
		<path class="st3" d="M46.4,88.2c-4.9,0-9.3-1.1-13-3.3s-6.6-5.3-8.6-9.2c-2-4-3.1-8.6-3.1-13.9V42.4c0-5.3,1-10,3.1-13.9
			c2-4,4.9-7,8.6-9.2s8-3.3,13-3.3c4.1,0,7.8,0.9,11.2,2.6c3.4,1.8,6.2,4.2,8.5,7.4s3.8,6.8,4.7,11.1H60.6c-0.6-2.3-1.6-4.3-3.1-6
			c-1.4-1.7-3.1-3-5.1-4c-1.9-0.9-4-1.4-6-1.4c-4.4,0-7.9,1.5-10.5,4.6s-4,7.1-4,12.2v19.4c0,5,1.3,9.1,4,12.1
			c2.6,3.1,6.1,4.6,10.5,4.6c3.1,0,6-1,8.7-2.9s4.6-4.8,5.5-8.4h10.2c-0.8,4.2-2.4,7.9-4.7,11.1c-2.3,3.2-5.1,5.6-8.5,7.4
			C54.2,87.3,50.5,88.2,46.4,88.2z"/>
		<path class="st3" d="M104.3,88.2c-3.4,0-6.7-0.3-9.7-1c-3-0.6-5.9-1.6-8.5-2.9c-2.6-1.3-5.1-2.9-7.4-4.9l6.2-7.6
			c2.7,2.3,5.7,4.1,8.9,5.3s6.8,1.8,10.6,1.8c5.1,0,9.1-1,11.9-2.9c2.8-1.9,4.2-4.6,4.2-8l0,0c0-2.7-0.7-4.8-2.1-6.2
			c-1.4-1.4-3.3-2.5-5.6-3.2s-4.9-1.3-7.6-1.7c-2.7-0.5-5.4-1-8.1-1.6c-2.7-0.6-5.2-1.6-7.5-2.9c-2.3-1.3-4.1-3.2-5.5-5.7
			S82,40.9,82,36.8l0,0c0-6.6,2.2-11.7,6.6-15.3c4.4-3.6,10.6-5.4,18.6-5.4c3.8,0,7.5,0.6,11.2,1.8c3.6,1.2,7.2,3.1,10.6,5.6
			l-5.7,7.9c-2.7-2-5.4-3.5-8.1-4.5c-2.7-1-5.4-1.5-8.1-1.5c-4.8,0-8.6,1-11.3,2.9s-4,4.7-4,8.2l0,0c0,2.7,0.8,4.7,2.3,6.1
			c1.6,1.4,3.6,2.4,6.1,3.1c2.5,0.7,5.2,1.3,8.1,1.9c2.6,0.5,5.2,1.1,7.8,1.9c2.6,0.7,5,1.8,7.1,3.2s3.8,3.3,5.1,5.7
			s1.9,5.5,1.9,9.4v0.1c0,6.5-2.3,11.6-6.8,15.2C118.9,86.4,112.5,88.2,104.3,88.2z"/>
		<path class="st3" d="M153.4,16.6v70.9h-9.9V16.6H153.4z"/>
		<path class="st3" d="M192.2,88.2c-3.4,0-6.7-0.3-9.7-1c-3-0.6-5.9-1.6-8.5-2.9c-2.6-1.3-5.1-2.9-7.4-4.9l6.2-7.6
			c2.7,2.3,5.7,4.1,8.9,5.3s6.8,1.8,10.6,1.8c5.1,0,9.1-1,11.9-2.9s4.2-4.6,4.2-8l0,0c0-2.7-0.7-4.8-2.1-6.2s-3.3-2.5-5.6-3.2
			c-2.3-0.7-4.9-1.3-7.6-1.7c-2.7-0.5-5.4-1-8.1-1.6c-2.7-0.6-5.2-1.6-7.5-2.9c-2.3-1.3-4.1-3.2-5.5-5.7s-2.1-5.8-2.1-9.9l0,0
			c0-6.6,2.2-11.7,6.6-15.3c4.4-3.6,10.6-5.4,18.6-5.4c3.8,0,7.5,0.6,11.2,1.8c3.6,1.2,7.2,3.1,10.6,5.6l-5.7,7.9
			c-2.7-2-5.4-3.5-8.1-4.5s-5.4-1.5-8.1-1.5c-4.8,0-8.6,1-11.3,2.9s-4,4.7-4,8.2l0,0c0,2.7,0.8,4.7,2.3,6.1c1.6,1.4,3.6,2.4,6.1,3.1
			c2.5,0.7,5.2,1.3,8.1,1.9c2.6,0.5,5.2,1.1,7.8,1.9c2.6,0.7,5,1.8,7.1,3.2s3.8,3.3,5.1,5.7c1.3,2.4,1.9,5.5,1.9,9.4v0.1
			c0,6.5-2.3,11.6-6.8,15.2C206.9,86.4,200.5,88.2,192.2,88.2z"/>
		<path class="st3" d="M256.7,76.6V68l23.8-51.3h10.2l-23.2,50.7h34.7v9.2L256.7,76.6L256.7,76.6z M287.3,87.5V45.8h9.7v41.7H287.3z
			"/>
		<path class="st3" d="M313.5,76.6V68l23.8-51.3h10.2l-23.2,50.7H359v9.2L313.5,76.6L313.5,76.6z M344.1,87.5V45.8h9.7v41.7H344.1z"
			/>
		<path class="st3" d="M378.5,87.4l17.8-35.2V54c-0.8,1.5-2.1,2.6-3.8,3.3c-1.7,0.7-3.6,1-5.8,1c-5.1,0-9.2-1.9-12.3-5.7
			c-3.1-3.8-4.7-8.8-4.7-15.1l0,0c0-6.9,1.7-12.2,5.2-16s8.3-5.7,14.6-5.7c6.3,0,11.1,1.9,14.6,5.7c3.4,3.8,5.2,9.2,5.2,16.2l0,0
			c0,2.9-0.4,6-1.3,9.4c-0.8,3.4-2.1,6.7-3.7,9.9l-15.1,30.4H378.5z M389.6,49.3c3.1,0,5.5-1.1,7.2-3.2c1.7-2.1,2.6-5.1,2.6-8.9l0,0
			c0-3.7-0.9-6.6-2.6-8.7c-1.7-2-4.1-3.1-7.2-3.1c-3.2,0-5.6,1-7.3,3.1c-1.7,2-2.6,5-2.6,8.7l0,0c0,3.8,0.9,6.8,2.6,8.9
			C384,48.2,386.4,49.3,389.6,49.3z"/>
		<path class="st3" d="M442.2,88.2c-5.4,0-9.8-1.6-13.3-4.7c-3.5-3.1-5.6-7.5-6.5-13.1l0,0h9.9l0,0c0.4,2.6,1.4,4.6,3.1,6.1
			c1.7,1.4,4,2.2,6.7,2.2c3.2,0,5.6-1.1,7.4-3.2c1.7-2.1,2.6-5.1,2.6-9v-5.9c0-3.9-0.9-6.9-2.6-9c-1.7-2.1-4.2-3.2-7.4-3.2
			c-1.7,0-3.4,0.5-5,1.5s-3,2.3-4.2,4.1H424V16.7h36.1v9.5H434v15.9c1.2-1,2.6-1.8,4.1-2.3c1.5-0.6,3.1-0.8,4.7-0.8
			c6.2,0,10.9,1.9,14.3,5.7c3.4,3.8,5.1,9.1,5.1,16v5.9c0,6.9-1.7,12.3-5.2,16.1C453.5,86.3,448.6,88.2,442.2,88.2z"/>
	</g>
	<g>
		<path d="M42.9,85.1c-4.9,0-9.3-1.1-13-3.3s-6.6-5.3-8.6-9.2c-2-4-3.1-8.6-3.1-13.9V39.3c0-5.3,1-10,3.1-13.9c2-4,4.9-7,8.6-9.2
			s8-3.3,13-3.3c4.1,0,7.8,0.9,11.2,2.6c3.4,1.8,6.2,4.2,8.5,7.4s3.8,6.8,4.7,11.1H57.1c-0.6-2.3-1.6-4.3-3.1-6
			c-1.4-1.7-3.1-3-5.1-4c-1.9-0.9-4-1.4-6-1.4c-4.4,0-7.9,1.5-10.5,4.6s-4,7.1-4,12.2v19.3c0,5,1.3,9.1,4,12.1
			c2.6,3.1,6.1,4.6,10.5,4.6c3.1,0,6-1,8.7-2.9s4.6-4.8,5.5-8.4h10.2c-0.8,4.2-2.4,7.9-4.7,11.1c-2.3,3.2-5.1,5.6-8.5,7.4
			C50.7,84.2,46.9,85.1,42.9,85.1z"/>
		<path d="M100.7,85.1c-3.4,0-6.7-0.3-9.7-1c-3-0.6-5.9-1.6-8.5-2.9c-2.6-1.3-5.1-2.9-7.4-4.9l6.2-7.6C84,71,87,72.8,90.2,74
			s6.8,1.8,10.6,1.8c5.1,0,9.1-1,11.9-2.9c2.8-1.9,4.2-4.6,4.2-8l0,0c0-2.7-0.7-4.8-2.1-6.2c-1.4-1.4-3.3-2.5-5.6-3.2
			s-4.9-1.3-7.6-1.7c-2.7-0.5-5.4-1-8.1-1.6c-2.7-0.6-5.2-1.6-7.5-2.9c-2.3-1.3-4.1-3.2-5.5-5.7s-2.1-5.8-2.1-9.9l0,0
			c0-6.6,2.2-11.7,6.6-15.3c4.4-3.6,10.6-5.4,18.6-5.4c3.8,0,7.5,0.6,11.2,1.8c3.6,1.2,7.2,3.1,10.6,5.6l-5.7,7.9
			c-2.7-2-5.4-3.5-8.1-4.5c-2.7-1-5.4-1.5-8.1-1.5c-4.8,0-8.6,1-11.3,2.9s-4,4.7-4,8.2l0,0c0,2.7,0.8,4.7,2.3,6.1
			c1.6,1.4,3.6,2.4,6.1,3.1c2.5,0.7,5.2,1.3,8.1,1.9c2.6,0.5,5.2,1.1,7.8,1.9c2.6,0.7,5,1.8,7.1,3.2s3.8,3.3,5.1,5.7
			s1.9,5.5,1.9,9.4v0.1c0,6.5-2.3,11.6-6.8,15.2C115.4,83.3,109,85.1,100.7,85.1z"/>
		<path d="M149.9,13.5v70.9H140V13.5L149.9,13.5L149.9,13.5z"/>
		<path d="M188.7,85.1c-3.4,0-6.7-0.3-9.7-1c-3-0.6-5.9-1.6-8.5-2.9c-2.6-1.3-5.1-2.9-7.4-4.9l6.2-7.6c2.7,2.3,5.7,4.1,8.9,5.3
			s6.8,1.8,10.6,1.8c5.1,0,9.1-1,11.9-2.9s4.2-4.6,4.2-8l0,0c0-2.7-0.7-4.8-2.1-6.2s-3.3-2.5-5.6-3.2c-2.3-0.7-4.9-1.3-7.6-1.7
			c-2.7-0.5-5.4-1-8.1-1.6c-2.7-0.6-5.2-1.6-7.5-2.9c-2.3-1.3-4.1-3.2-5.5-5.7s-2.1-5.8-2.1-9.9l0,0c0-6.6,2.2-11.7,6.6-15.3
			c4.4-3.6,10.6-5.4,18.6-5.4c3.8,0,7.5,0.6,11.2,1.8c3.6,1.2,7.2,3.1,10.6,5.6l-5.7,7.9c-2.7-2-5.4-3.5-8.1-4.5s-5.4-1.5-8.1-1.5
			c-4.8,0-8.6,1-11.3,2.9s-4,4.7-4,8.2l0,0c0,2.7,0.8,4.7,2.3,6.1c1.6,1.4,3.6,2.4,6.1,3.1c2.5,0.7,5.2,1.3,8.1,1.9
			c2.6,0.5,5.2,1.1,7.8,1.9c2.6,0.7,5,1.8,7.1,3.2s3.8,3.3,5.1,5.7c1.3,2.4,1.9,5.5,1.9,9.4v0.1c0,6.5-2.3,11.6-6.8,15.2
			C203.4,83.3,197,85.1,188.7,85.1z"/>
		<path d="M253.2,73.5v-8.6L277,13.6h10.2L264,64.3h34.7v9.2H253.2z M283.8,84.4V42.7h9.7v41.7H283.8z"/>
		<path d="M310,73.5v-8.6l23.8-51.3H344l-23.2,50.7h34.7v9.2L310,73.5L310,73.5z M340.5,84.4V42.7h9.7v41.7H340.5z"/>
		<path d="M375,84.3l17.8-35.2v1.8c-0.8,1.5-2.1,2.6-3.8,3.3c-1.7,0.7-3.6,1-5.8,1c-5.1,0-9.2-1.9-12.3-5.7
			c-3.1-3.8-4.7-8.8-4.7-15.1l0,0c0-6.9,1.7-12.2,5.2-16s8.3-5.7,14.6-5.7c6.3,0,11.1,1.9,14.6,5.7c3.4,3.8,5.2,9.2,5.2,16.2l0,0
			c0,2.9-0.4,6-1.3,9.4c-0.8,3.4-2.1,6.7-3.7,9.9l-15.1,30.4L375,84.3L375,84.3z M386.1,46.2c3.1,0,5.5-1.1,7.2-3.2
			c1.7-2.1,2.6-5.1,2.6-8.9l0,0c0-3.7-0.9-6.6-2.6-8.7c-1.7-2-4.1-3.1-7.2-3.1c-3.2,0-5.6,1-7.3,3.1c-1.7,2-2.6,5-2.6,8.7l0,0
			c0,3.8,0.9,6.8,2.6,8.9C380.5,45.1,382.9,46.2,386.1,46.2z"/>
		<path d="M438.7,85.1c-5.4,0-9.8-1.6-13.3-4.7c-3.5-3.1-5.6-7.5-6.5-13.1l0,0h9.9l0,0c0.4,2.6,1.4,4.6,3.1,6.1
			c1.7,1.4,4,2.2,6.7,2.2c3.2,0,5.6-1.1,7.4-3.2c1.7-2.1,2.6-5.1,2.6-9v-5.9c0-3.9-0.9-6.9-2.6-9c-1.7-2.1-4.2-3.2-7.4-3.2
			c-1.7,0-3.4,0.5-5,1.5s-3,2.3-4.2,4.1h-9.1V13.6h36.1v9.5h-26.2V39c1.2-1,2.6-1.8,4.1-2.3c1.5-0.6,3.1-0.8,4.7-0.8
			c6.2,0,10.9,1.9,14.3,5.7s5.1,9.1,5.1,16v5.9c0,6.9-1.7,12.3-5.2,16.1C450,83.2,445.1,85.1,438.7,85.1z"/>
	</g>
</g>
</svg>
