<?xml version="1.0" encoding="utf-8"?>
<!-- Generator: Adobe Illustrator 23.0.1, SVG Export Plug-In . SVG Version: 6.00 Build 0)  -->
<svg version="1.1" id="Layer_1" xmlns="http://www.w3.org/2000/svg" xmlns:xlink="http://www.w3.org/1999/xlink" x="0px" y="0px"
	 viewBox="0 0 800 382.3" style="enable-background:new 0 0 800 382.3;" xml:space="preserve">
<style type="text/css">
	.st0{fill:#539165;}
	.st1{fill:#326B41;}
	.st2{fill:#FB9248;}
	.st3{fill:#EA8039;}
	.st4{fill:#272525;}
	.st5{fill:#444444;}
	.st6{fill:#02B2B2;}
</style>
<g>
	<circle class="st0" cx="414.9" cy="156.6" r="125"/>
	<path class="st1" d="M365.4,205.3l73.9,73.9c49.4-9.8,88.4-48.7,98.2-98.2l-73.2-73.2L365.4,205.3z"/>
	<circle class="st2" cx="414.9" cy="156.6" r="69.4"/>
	<path class="st3" d="M484.3,156.6c0-38.3-31.1-69.4-69.4-69.4V226C453.2,226,484.3,194.9,484.3,156.6z"/>
	<g>
		<path class="st4" d="M382,157.9c-2.1,0-3.8-1.7-3.8-3.8c0-4.2-3.4-7.6-7.6-7.6c-4.2,0-7.6,3.4-7.6,7.6c0,2.1-1.7,3.8-3.8,3.8
			s-3.8-1.7-3.8-3.8c0-8.4,6.8-15.1,15.1-15.1s15.1,6.8,15.1,15.1C385.8,156.2,384.1,157.9,382,157.9z"/>
		<path class="st4" d="M440.1,157.9c-2.1,0-3.8-1.7-3.8-3.8c0-4.2-3.4-7.6-7.6-7.6c-4.2,0-7.6,3.4-7.6,7.6c0,2.1-1.7,3.8-3.8,3.8
			c-2.1,0-3.8-1.7-3.8-3.8c0-8.4,6.8-15.1,15.1-15.1c8.4,0,15.1,6.8,15.1,15.1C443.9,156.2,442.2,157.9,440.1,157.9z"/>
	</g>
	<path class="st5" d="M422.4,188.1c-1.4,0-2.8-0.9-3.2-2.4c-2.4-8-10.5-13.6-19.5-13.6c-9,0-17.1,5.6-19.5,13.6
		c-0.5,1.8-2.4,2.8-4.2,2.2c-1.8-0.5-2.8-2.4-2.2-4.2c3.3-10.8,14-18.3,25.9-18.3c12,0,22.6,7.5,25.9,18.3c0.5,1.8-0.5,3.7-2.2,4.2
		C423.1,188.1,422.8,188.1,422.4,188.1z"/>
	<path class="st6" d="M475.4,143.7c0.7,6.9-4.4,13.1-11.4,13.8s-13.1-4.4-13.8-11.4c-0.7-6.9,9.5-33.2,9.5-33.2
		S474.7,136.8,475.4,143.7z"/>
</g>
</svg>
