<?xml version="1.0" encoding="utf-8"?>
<!-- Generator: Adobe Illustrator 23.0.1, SVG Export Plug-In . SVG Version: 6.00 Build 0)  -->
<svg version="1.1" id="Layer_1" xmlns="http://www.w3.org/2000/svg" xmlns:xlink="http://www.w3.org/1999/xlink" x="0px" y="0px"
	 viewBox="0 0 497.9 463.1" style="enable-background:new 0 0 497.9 463.1;" xml:space="preserve">
<style type="text/css">
	.st0{fill:#2C874B;}
</style>
<g>
	<g>
		<path class="st0" d="M502,644.3c-10.7,2-22,1.2-32.3-1.9c-10.2-3.1-19.7-8.3-26.6-15.4c-1.7-1.8-3.3-3.6-4.7-5.6
			c-1.3-2-2.6-4-3.7-6c-2.3-4.1-3.9-8.5-5.4-12.8c-3-8.7-5.2-17.6-8.5-26.2c-0.9-2.2-1.7-4.2-2.7-6.4c-1.1-2.1-2.2-4.1-3.5-6.1
			c-1.3-2-2.7-3.9-4.4-5.7c-0.8-0.9-1.7-1.7-2.6-2.6c-0.4-0.5-1-0.8-1.4-1.3c-0.4-0.5-1-0.8-1.4-1.2c-3.9-3.1-8.7-5.4-13.6-7.2
			c-5-1.8-10.2-3.1-15.6-4.2c-5.2-1.2-10.6-2.3-15.8-3.6c-5.2-1.4-10.3-3-15.1-5.4c-2.3-1.2-4.6-2.6-6.5-4.2c-1-0.8-2-1.6-2.7-2.5
			c-0.9-0.9-1.7-1.8-2.4-2.8c-2.9-3.9-4.8-8.3-5.8-12.7c-2.1-9-1.4-18.1-1.4-27.1c0-4.5,0-9-0.8-13.5l-0.5-3.3
			c-0.2-1.1-0.5-2.2-0.9-3.3c-0.5-2.3-1.4-4.3-2.2-6.5c-0.3-1.1-1-2.1-1.4-3.2c-0.5-1.1-1-2.1-1.5-3.2l-1.9-3.1l-0.9-1.5
			c-0.3-0.5-0.7-1-1-1.4l-2.1-2.9c-0.3-0.5-0.8-1-1.1-1.4l-1.2-1.4c-0.8-0.9-1.5-1.9-2.4-2.7l-2.6-2.6c-7-6.9-15.7-12.6-25.3-16.8
			c-2.4-1.2-4.9-2-7.4-2.9c-1.2-0.5-2.5-0.8-3.8-1.2c-1.3-0.4-2.6-0.7-3.8-1.1l-3.9-0.8l-2-0.5c-0.7-0.1-1.3-0.2-2-0.4
			c-2.7-0.5-5.3-0.7-8.1-1.1c-5.4-0.6-10.9-1.1-16.2-2c-1.3-0.3-2.7-0.5-4-0.7l-2-0.5l-2-0.5c-1.3-0.3-2.6-0.7-3.9-1.2l-1.9-0.7
			l-1-0.4l-0.9-0.5l-1.9-0.8l-1.7-1l-0.9-0.5l-0.8-0.5l-1.6-1.1c-1-0.8-2-1.6-2.9-2.4c-0.9-0.9-1.7-1.8-2.5-2.7
			c-3.2-3.8-5.1-8.2-6.4-12.5c-2.7-8.8-3.2-17.9-5-26.8c-0.2-1.1-0.4-2.3-0.8-3.3l-0.4-1.6c-0.1-0.5-0.3-1.1-0.5-1.6l-1.1-3.2
			l-1.4-3.2c-2.1-4.1-4.6-8.2-7.7-11.8l-1.2-1.4c-0.4-0.5-0.9-0.9-1.3-1.4l-2.5-2.6c-1.9-1.6-3.6-3.3-5.7-4.8c-1-0.7-2-1.5-3-2.3
			l-3.2-2.1c-1.1-0.7-2.2-1.3-3.4-1.9c-1.1-0.6-2.2-1.3-3.4-1.8l-3.5-1.7l-3.7-1.4c-0.7-0.3-1.2-0.5-1.9-0.7l-1.9-0.6
			c-1.3-0.4-2.5-0.9-3.8-1.2l-3.9-1c-0.7-0.2-1.3-0.3-2-0.5l-2-0.4c-2.6-0.5-5.3-0.7-8.1-1c-5.4-0.4-10.9-0.4-16.3-1.1
			c-2.7-0.4-5.4-0.9-7.9-1.8s-4.9-2.3-6.8-4.1c-1.9-1.7-3.2-3.8-4.1-5.9c-1-2.2-1.4-4.4-1.9-6.7c-0.7-4.5-1-9-1.2-13.5
			c-0.4-9-0.4-18.1-1.7-27c-0.3-2.3-0.7-4.5-1.2-6.7c-0.5-2.3-1.2-4.4-2-6.6c-0.8-2.2-1.7-4.2-2.9-6.3c-1.1-2.1-2.5-4-4.1-5.8
			c-0.8-0.9-1.6-1.8-2.5-2.6c-1-0.8-1.9-1.6-2.8-2.3c-2-1.5-4.1-2.9-6.4-4.1c-4.7-2.3-9.7-4-14.9-5.5c-5.1-1.5-10.3-2.9-15.5-4.6
			c-5-1.7-10-3.8-14.2-6.9c-2.1-1.5-3.8-3.3-5.1-5.3c-1.4-2-2.4-4.1-3-6.4c-0.7-2.2-1.1-4.4-1.5-6.7c-0.4-2.3-1-4.4-1.4-6.7
			c-0.2-1.1-0.5-2.2-0.9-3.3c-0.3-1.1-0.5-2.2-1-3.2c-0.8-2.2-1.4-4.3-2.3-6.5c-1.6-4.3-3.7-8.5-5.8-12.6
			c-4.5-8.3-9.8-16.2-15.8-23.7c-2.9-3.8-6.2-7.4-9.6-11c-3.4-3.5-6.8-7.1-10.5-10.4c-7.7-6.8-15.4-13.2-23.2-19.5
			c-15.8-12.5-32.6-24.1-49.4-35.6c17,11.4,33.8,23,49.7,35.5c7.8,6.2,15.5,12.7,22.6,19.5c3.6,3.4,7.1,6.9,10.5,10.4
			c3.4,3.6,6.6,7.2,9.6,11c6.1,7.5,11.4,15.4,15.9,23.7c2.2,4.1,4.2,8.4,5.9,12.7c0.9,2.2,1.5,4.3,2.3,6.5c0.3,1.1,0.7,2.2,1,3.3
			c0.3,1.1,0.7,2.2,0.9,3.3c0.5,2.3,1.1,4.4,1.4,6.7c0.4,2.3,0.9,4.4,1.5,6.7c0.7,2.2,1.6,4.3,2.9,6.2c1.3,1.9,3,3.7,5,5.2
			c4,3.1,8.9,5,13.9,6.8s10.2,3.1,15.5,4.5c5.1,1.5,10.3,3.2,15,5.6c2.4,1.2,4.6,2.5,6.6,4.1c1.1,0.7,2,1.6,2.9,2.4
			c0.9,0.9,1.7,1.7,2.6,2.7c1.6,1.8,3,3.8,4.2,5.9c1.2,2.1,2.2,4.1,2.9,6.4c0.8,2.2,1.5,4.4,2,6.6c0.5,2.3,1,4.5,1.3,6.8
			c1.3,9,1.3,18.1,1.7,27.1c0.2,4.5,0.5,9,1.2,13.5c0.3,2.3,0.9,4.4,1.9,6.5c0.9,2.1,2.2,4.1,3.9,5.8c1.7,1.6,4,3,6.4,3.9
			c2.4,0.9,5.1,1.4,7.7,1.8c5.3,0.7,10.8,0.6,16.3,1c2.7,0.3,5.4,0.5,8.2,1l2.1,0.4c0.7,0.1,1.3,0.3,2,0.5l3.9,1
			c1.3,0.3,2.6,0.8,3.9,1.2l2,0.6c0.7,0.2,1.2,0.5,1.9,0.7l3.7,1.4l3.6,1.7c1.2,0.5,2.4,1.2,3.5,1.8c1.1,0.6,2.3,1.3,3.4,2l3.3,2.2
			c1.1,0.7,2.1,1.5,3,2.3c2.1,1.5,3.9,3.2,5.8,4.9l2.6,2.6c0.4,0.5,0.9,0.9,1.3,1.4l1.2,1.4c3.3,3.7,5.8,7.7,7.8,12l1.4,3.2l1.2,3.2
			c0.2,0.5,0.4,1.1,0.5,1.6l0.4,1.7c0.3,1.1,0.5,2.3,0.8,3.3c1.9,8.9,2.3,18,4.9,26.7c1.3,4.3,3.3,8.6,6.3,12.2
			c0.8,0.9,1.6,1.8,2.5,2.6c1,0.8,1.9,1.6,2.8,2.3l1.5,1.1l0.8,0.5l0.9,0.5l1.6,0.9l1.7,0.8l0.9,0.4l0.9,0.4l1.9,0.7
			c1.3,0.4,2.5,0.8,3.8,1.1l2,0.5l2,0.5c1.3,0.3,2.6,0.5,4,0.7c5.3,0.8,10.8,1.4,16.2,2c2.7,0.4,5.4,0.6,8.2,1.1
			c0.7,0.1,1.3,0.2,2.1,0.4l2,0.5l4,0.8c1.3,0.4,2.6,0.7,3.9,1.1c1.3,0.4,2.6,0.7,3.8,1.2c2.5,0.9,5.1,1.8,7.4,3
			c9.7,4.3,18.4,10.1,25.5,17l2.6,2.6c0.9,0.9,1.6,1.8,2.4,2.8l1.2,1.4c0.4,0.5,0.8,0.9,1.1,1.4l2.1,2.9c0.3,0.5,0.8,1,1,1.4
			l0.9,1.5l1.9,3.1c0.5,1.1,1.1,2.1,1.5,3.2c0.5,1.1,1.1,2.1,1.4,3.2c0.8,2.2,1.7,4.3,2.2,6.6c0.3,1.1,0.7,2.3,0.9,3.3l0.5,3.4
			c0.8,4.5,0.8,9.1,0.8,13.6c0,9-0.7,18.1,1.3,27c1,4.4,2.8,8.7,5.7,12.5c0.7,1,1.5,1.8,2.4,2.7c0.8,0.9,1.7,1.7,2.7,2.5
			c2,1.5,4.1,3,6.4,4.1c4.6,2.3,9.7,4.1,14.9,5.3c5.2,1.4,10.6,2.4,15.8,3.6c5.2,1.2,10.6,2.4,15.6,4.2c5,1.8,9.8,4.2,13.8,7.3
			c0.5,0.4,1,0.8,1.5,1.2c0.4,0.5,1,0.8,1.4,1.3c0.9,0.9,1.9,1.7,2.6,2.6c1.6,1.8,3.2,3.8,4.5,5.8c2.6,4,4.6,8.3,6.2,12.6
			c3.3,8.6,5.3,17.6,8.4,26.2c1.5,4.3,3.2,8.6,5.4,12.8c1.1,2.1,2.4,4.1,3.7,6c1.4,2,2.9,3.8,4.6,5.6c6.8,7.1,16.1,12.4,26.4,15.5
			C480,645.3,491.3,646.2,502,644.3z"/>
		<path class="st0" d="M502,644.3c-12.3,2.2-25.1,1-36.8-3.4c-5.8-2.2-11.4-5.1-16.4-8.8c-4.9-3.8-9.3-8.4-12.5-13.8
			c-1.6-2.7-3.1-5.4-4.3-8.3c-1.2-2.9-2.3-5.8-3.3-8.8c-2-5.9-3.7-11.9-5.6-17.8c-0.5-1.5-1-3-1.5-4.4c-0.5-1.5-1.1-2.9-1.7-4.3
			l-1.8-4.3c-0.7-1.4-1.4-2.8-2.2-4.1c-1.6-2.7-3.4-5.2-5.4-7.6c-2.1-2.3-4.4-4.4-6.9-6.2c-2.5-1.8-5.3-3.3-8.1-4.6
			c-2.8-1.3-5.8-2.3-8.8-3.2c-6-1.8-12.1-2.9-18.2-4.4l-9.1-2.1c-3-0.8-6-1.7-9-2.8c-2.9-1.1-5.8-2.4-8.5-4
			c-1.3-0.8-2.6-1.7-3.8-2.7c-0.6-0.5-1.2-1-1.8-1.5c-0.6-0.5-1.1-1.1-1.6-1.7c-4.3-4.6-6.9-10.6-8-16.8c-1.2-6.2-1.2-12.5-1.1-18.7
			c0-3.1,0.1-6.2,0.1-9.3c0-3.1-0.1-6.2-0.5-9.3c-0.7-6.2-2.6-12.2-5.2-17.8l0,0l-1.5-3.2l0,0l-1.6-2.7c-0.6-0.9-1-1.8-1.6-2.6
			c-0.6-0.8-1.2-1.7-1.8-2.5c-0.6-0.8-1.2-1.7-1.8-2.5l0,0c-1.4-1.5-2.5-3.1-4-4.4c-1.4-1.4-2.8-2.8-4.3-4.2c-2.9-2.7-6-5.1-9.3-7.3
			c-3.3-2.2-6.7-4.2-10.3-5.9c-1.8-0.9-3.6-1.7-5.4-2.5c-1.8-0.8-3.7-1.4-5.6-2.1l0,0l0,0c-1.2-0.5-2.5-0.8-3.8-1.2l-3.8-1.1l0,0
			c-2-0.4-3.9-0.8-5.9-1.3l0,0l-2-0.4l0,0c-3.3-0.4-6.5-0.9-9.8-1.3c-3.3-0.4-6.6-0.7-9.9-1.1c-3.3-0.4-6.6-1-9.8-1.7l-2.4-0.6
			c-0.8-0.2-1.6-0.4-2.4-0.6c-1.6-0.5-3.1-1.1-4.7-1.7l0,0l0,0c-0.4-0.2-0.9-0.5-1.3-0.7l-1.4-0.6l0,0l0,0c-0.9-0.5-1.7-1-2.6-1.4
			l0,0l0,0c-0.8-0.6-1.6-1.1-2.4-1.6l0,0l0,0l-2.9-2.4l0,0l0,0l-2.4-2.6c-0.8-0.9-1.5-1.8-2.1-2.8c-1.3-1.9-2.3-4-3.2-6.2
			c-1.7-4.3-2.8-8.9-3.6-13.4c-0.8-4.6-1.3-9.1-2.1-13.7c-0.2-1.1-0.4-2.3-0.6-3.4l-0.8-3.4l-0.4-1.7c-0.1-0.6-0.3-1-0.5-1.6
			l-1.1-3.3l0,0l-1.3-2.8c-0.4-0.9-0.9-1.8-1.4-2.7c-1-1.8-2.1-3.6-3.3-5.3c-1.2-1.7-2.5-3.3-3.9-4.8c-1.4-1.5-2.9-3-4.3-4.5l0,0
			c-1.7-1.5-3.3-3-5-4.3c-1.8-1.3-3.5-2.7-5.4-3.8c-0.9-0.6-1.8-1.2-2.8-1.8l-2.9-1.6c-1.9-1.1-3.9-2-5.9-3l0,0
			c-1.4-0.6-2.8-1.1-4.2-1.6c-0.7-0.3-1.3-0.5-2.1-0.8c-0.7-0.3-1.4-0.5-2.1-0.7c-0.7-0.2-1.4-0.5-2.1-0.7l-2.2-0.5
			c-1.5-0.4-2.9-0.7-4.4-1.1l0,0l-3-0.6c-1-0.2-2-0.3-3-0.4c-2-0.2-4.1-0.4-6.1-0.5c-4.1-0.2-8.2-0.3-12.3-0.7
			c-4.1-0.4-8.2-1.1-12-2.9c-1.9-0.9-3.6-2.1-5.1-3.5c-1.5-1.5-2.7-3.2-3.6-5.1c-0.9-1.9-1.5-3.9-1.9-5.9l-0.3-1.5l-0.2-1.5
			c-0.1-1-0.2-2-0.4-3.1c-0.4-4.1-0.6-8.2-0.8-12.3c-0.3-8.2-0.5-16.4-1.7-24.4c-1.1-8-3.6-16.1-8.5-22.5c-1.2-1.6-2.7-3-4.1-4.5
			c-1.6-1.3-3.1-2.6-4.8-3.7c-3.4-2.3-7.1-3.9-10.9-5.3c-7.7-2.8-15.7-4.6-23.5-7.2c-3.9-1.3-7.7-2.8-11.3-4.9
			c-1.8-1.1-3.5-2.2-5-3.6c-1.6-1.4-2.9-3.1-4-4.8c-1.1-1.8-2-3.7-2.5-5.7c-0.6-2-1-4-1.4-6l-1.3-6c-0.2-1-0.5-2-0.7-3
			c-0.2-1-0.5-2-0.8-3c-0.2-1-0.6-1.9-1-2.9l-1-2.9c-0.7-1.9-1.4-3.9-2.2-5.7c-0.8-1.9-1.7-3.7-2.6-5.6c-0.9-1.8-1.8-3.7-2.8-5.4
			c-4-7.1-8.5-13.9-13.6-20.4c-4.9-6.5-10.6-12.4-16.3-18.3c-1.4-1.5-2.9-2.9-4.4-4.3c-1.5-1.4-3.1-2.6-4.7-4l-9.4-7.9l-9.4-7.9
			c-3.2-2.6-6.4-5-9.7-7.5c-13.1-9.9-26.5-19.1-40.1-28.3l0.6-0.8c18,12.1,35.9,24.4,52.8,38c4.2,3.4,8.4,6.9,12.4,10.5
			c2,1.8,4,3.6,6,5.5c2,1.9,3.9,3.8,5.8,5.7l5.8,5.8c1.9,2,3.7,4,5.5,6c1.8,2,3.5,4.2,5.2,6.3c1.7,2.1,3.3,4.3,4.9,6.5
			C-3.5,133.1,2,142.5,6,152.7c0.9,2.6,1.9,5.1,2.7,7.7c0.8,2.6,1.5,5.3,2.1,7.9c0.3,1.3,0.6,2.7,0.8,4c0.2,1.3,0.5,2.7,0.8,4
			c0.3,1.3,0.6,2.6,1,3.9c0.4,1.3,0.9,2.5,1.6,3.7c1.3,2.3,3,4.4,5,6.1c2,1.7,4.3,3.1,6.7,4.3c4.8,2.3,10,3.9,15.2,5.4l7.8,2.2
			c2.6,0.8,5.2,1.6,7.8,2.5c2.6,0.9,5.1,1.9,7.5,3.2c2.4,1.2,4.8,2.6,7,4.3l0,0c1.1,0.7,2,1.7,3,2.5l0,0l0,0
			c1.1,1.1,2.2,2.2,3.2,3.3c1,1.2,1.9,2.4,2.8,3.7c1.7,2.6,3.1,5.4,4,8.3c0.5,1.4,1,2.9,1.4,4.4c0.4,1.5,0.7,3,1,4.5
			c0.3,1.5,0.6,3,0.9,4.5c0.2,1.5,0.4,3,0.5,4.6c1.2,12.2,0.6,24.5,2.5,36.5c0.5,3,1.6,5.9,3.2,8.4c0.8,1.2,1.8,2.4,2.9,3.4
			c1.1,1,2.4,1.8,3.8,2.4c2.7,1.4,5.7,2,8.7,2.5c3,0.5,6,0.6,9.1,0.8c6.1,0.2,12.3,0.5,18.3,1.7c1.5,0.3,3,0.7,4.5,1.1l2.2,0.6
			c0.8,0.2,1.5,0.5,2.2,0.7c0.7,0.2,1.5,0.4,2.2,0.7c0.7,0.2,1.5,0.4,2.2,0.8c1.4,0.6,2.8,1.1,4.3,1.7l0,0l0,0l3.7,1.8
			c1.2,0.6,2.4,1.2,3.6,1.9c1.2,0.7,2.4,1.4,3.5,2.1c1.1,0.8,2.3,1.5,3.4,2.3c1.1,0.8,2.2,1.6,3.3,2.4c1.1,0.8,2.1,1.7,3.1,2.6
			c2.1,1.8,4,3.8,5.9,5.7l0,0l0,0c1.1,1.3,2.2,2.6,3.2,3.9c1,1.4,2,2.8,2.9,4.2c0.9,1.4,1.7,2.9,2.5,4.5c0.4,0.8,0.7,1.5,1.1,2.3
			c0.3,0.8,0.7,1.5,1,2.3l0.9,2.4c0.1,0.4,0.3,0.8,0.5,1.2c0.2,0.4,0.2,0.9,0.3,1.3c0.4,1.6,0.8,3.3,1.2,5c0.7,3.3,1.2,6.7,1.6,10
			c1,6.7,1.9,13.4,4.4,19.7c1.2,3.1,2.9,6.1,5,8.7c2.2,2.5,4.8,4.7,7.6,6.6l0,0c0.6,0.3,1.3,0.7,1.9,1c0.6,0.4,1.3,0.6,1.9,0.9
			c0.6,0.3,1.3,0.6,2,0.8l2,0.8l0,0l2.7,0.8c0.9,0.2,1.8,0.4,2.7,0.6c0.9,0.2,1.8,0.4,2.7,0.6l2.8,0.5c3.7,0.5,7.4,0.9,11.1,1.4
			c3.7,0.4,7.4,0.9,11.1,1.4l2.8,0.4c0.9,0.2,1.9,0.3,2.8,0.5c1.8,0.4,3.7,0.8,5.5,1.1l0,0l0,0l3.5,1c1.2,0.3,2.3,0.7,3.5,1.1
			c2.3,0.8,4.6,1.6,6.8,2.5c4.4,2,8.7,4.2,12.8,6.7c4.1,2.6,8,5.4,11.6,8.7c1.8,1.6,3.5,3.3,5.2,5l2.4,2.8l1.2,1.3
			c0.4,0.4,0.8,1,1.1,1.5l0,0l1.5,2.2c0.5,0.7,1.1,1.4,1.5,2.2c0.8,1.5,1.8,3,2.7,4.6l0,0l0,0l1.5,3.2l0,0c0.4,0.8,0.8,1.5,1.1,2.4
			c0.3,0.8,0.6,1.6,0.9,2.4c0.6,1.6,1.2,3.3,1.6,5l0,0c1.6,5.8,2.2,11.7,2.2,17.7c0.1,5.9-0.2,11.9,0,17.8c0.1,3,0.3,5.9,0.8,8.8
			c0.5,2.9,1.1,5.8,2.3,8.5c1.1,2.7,2.6,5.3,4.4,7.6c0.4,0.6,1,1.1,1.5,1.6c0.5,0.5,1,1.1,1.5,1.6c1.1,1,2.2,1.9,3.5,2.7
			c2.4,1.7,5,3.1,7.7,4.3c2.7,1.2,5.5,2.1,8.4,2.9c2.8,0.8,5.8,1.4,8.6,2.1l8.7,2c5.8,1.3,11.6,2.6,17.2,4.6c5.6,2,11,4.8,15.5,8.6
			l0,0l0,0c4.7,3.9,8.4,8.9,11.2,14.4c2.8,5.4,4.8,11.3,6.5,17.1c1.8,5.8,3.4,11.7,5.4,17.5c1,2.9,2.1,5.7,3.3,8.5
			c1.3,2.8,2.7,5.5,4.4,8c3.3,5.2,7.5,9.7,12.4,13.3c4.9,3.6,10.4,6.4,16.1,8.5C477.4,645.1,490,646.3,502,644.3z M502,644.3
			c-12,2.1-24.6,0.8-36.1-3.1c-5.7-2.1-11.2-4.9-16.2-8.5c-4.9-3.6-9.2-8.1-12.5-13.3c-1.7-2.6-3.1-5.2-4.4-8
			c-1.3-2.8-2.3-5.6-3.4-8.5c-2.1-5.8-3.7-11.6-5.5-17.5c-1.8-5.8-3.8-11.6-6.6-17c-2.8-5.4-6.5-10.3-11.2-14.3l0,0
			c-4.6-3.8-9.9-6.5-15.5-8.5c-5.6-2-11.4-3.3-17.2-4.6l-8.7-2c-2.9-0.7-5.8-1.3-8.7-2.1c-2.9-0.8-5.7-1.8-8.4-2.9
			c-2.7-1.2-5.4-2.6-7.8-4.3c-1.2-0.8-2.4-1.8-3.5-2.8c-0.6-0.5-1-1.1-1.6-1.6c-0.5-0.5-1.1-1.1-1.5-1.7c-1.8-2.4-3.3-5-4.5-7.7
			c-1.1-2.8-1.8-5.7-2.3-8.6c-0.5-2.9-0.7-5.9-0.8-8.9c-0.2-5.9,0.1-11.9,0-17.8c0-5.9-0.5-11.9-2.2-17.5l0,0l0,0
			c-0.3-1.7-0.9-3.3-1.6-4.9c-0.3-0.8-0.6-1.7-0.9-2.4c-0.3-0.8-0.7-1.5-1.1-2.3l0,0l-1.5-3.1l0,0c-0.9-1.5-1.9-3-2.7-4.6
			c-0.4-0.7-1-1.4-1.5-2.2l-1.6-2.2l0,0l0,0c-0.3-0.5-0.6-1-1.1-1.4l-1.2-1.4l-2.3-2.7c-1.7-1.7-3.4-3.4-5.2-5
			c-3.6-3.2-7.5-6.1-11.5-8.6c-4.1-2.6-8.4-4.7-12.8-6.7c-2.2-1-4.5-1.8-6.7-2.5c-1.1-0.3-2.3-0.7-3.4-1l-3.5-1l0,0
			c-1.8-0.4-3.7-0.7-5.5-1.1c-0.9-0.2-1.8-0.3-2.7-0.5l-2.8-0.4c-3.7-0.5-7.4-1-11.1-1.4c-3.7-0.5-7.4-0.9-11.1-1.4l-2.8-0.5
			c-0.9-0.2-1.8-0.4-2.7-0.6c-0.9-0.2-1.8-0.4-2.7-0.6l-2.7-0.8l0,0l0,0l-2-0.8c-0.7-0.3-1.3-0.5-2-0.8c-0.7-0.3-1.3-0.6-2-1
			c-0.6-0.4-1.3-0.7-1.9-1l0,0l0,0c-2.8-1.9-5.4-4.1-7.7-6.7c-2.2-2.6-3.9-5.7-5.1-8.8c-2.5-6.4-3.4-13.2-4.4-19.9
			c-0.5-3.3-1-6.7-1.6-10c-0.4-1.7-0.7-3.3-1.1-4.9c-0.1-0.4-0.2-0.8-0.3-1.2c-0.1-0.4-0.3-0.8-0.4-1.2l-0.9-2.4
			c-0.3-0.8-0.7-1.5-1-2.3c-0.3-0.8-0.7-1.5-1.1-2.3c-0.8-1.5-1.6-3-2.5-4.4c-0.9-1.4-1.8-2.8-2.9-4.1c-1-1.3-2.2-2.6-3.2-3.9l0,0
			c-1.9-2-3.8-3.9-5.8-5.7c-1-0.9-2-1.8-3.1-2.6l-3.3-2.4c-1.1-0.8-2.3-1.5-3.4-2.3c-1.1-0.7-2.3-1.4-3.5-2.1
			c-1.2-0.6-2.4-1.2-3.6-1.9l-3.7-1.8l0,0c-5.7-2.4-11.5-4.1-17.4-5.4c-6-1.2-12.1-1.5-18.2-1.7c-3.1-0.1-6.1-0.3-9.2-0.8
			c-3-0.5-6.1-1.2-8.9-2.6c-1.4-0.7-2.7-1.5-3.9-2.5c-1.2-1-2.2-2.2-3.1-3.5c-1.7-2.6-2.8-5.6-3.3-8.7c-1.9-12.2-1.3-24.5-2.5-36.6
			c-0.2-1.5-0.3-3-0.5-4.5c-0.3-1.5-0.6-3-0.9-4.5c-0.3-1.5-0.5-3-1-4.5c-0.4-1.5-0.9-2.9-1.4-4.3c-1-2.9-2.3-5.6-4-8.1
			c-0.8-1.3-1.7-2.5-2.7-3.6c-1-1.1-2.1-2.2-3.1-3.3l0,0c-1-0.8-1.9-1.7-2.9-2.4l0,0l0,0c-2.1-1.7-4.4-3.1-6.8-4.2
			c-2.4-1.2-4.9-2.2-7.4-3.1c-2.5-0.9-5.1-1.7-7.7-2.4l-7.8-2.2c-5.2-1.5-10.4-3.1-15.4-5.5c-2.5-1.2-4.8-2.6-6.9-4.4
			c-2.1-1.8-3.9-3.9-5.2-6.4c-2.7-4.9-3-10.6-4.3-15.7c-0.6-2.7-1.3-5.2-2.1-7.8C7,158.1,6,155.5,5.1,153c-4-10-9.4-19.5-15.7-28.2
			c-1.6-2.2-3.2-4.3-4.9-6.5c-1.7-2.1-3.4-4.2-5.2-6.3c-1.8-2-3.6-4-5.5-6l-5.7-5.7c-1.9-1.9-3.8-3.9-5.8-5.7c-2-1.9-4-3.7-6-5.5
			c-4-3.6-8.2-7.1-12.4-10.5c-16.9-13.6-34.8-25.8-52.7-37.9l0.6-0.8c13.5,9.2,27,18.5,40.1,28.4c3.3,2.5,6.5,5,9.7,7.5l9.4,7.9
			l9.4,7.9c1.6,1.3,3.1,2.6,4.7,4c1.5,1.4,3,2.8,4.4,4.3c11.6,11.5,22,24.4,30,38.8c1,1.8,1.9,3.7,2.8,5.5c0.9,1.8,1.8,3.7,2.6,5.6
			c0.8,1.9,1.5,3.8,2.2,5.8l1,2.9c0.3,1,0.7,1.9,1,3c0.3,1,0.5,2,0.8,3c0.3,1,0.5,2,0.7,3l1.3,6c0.8,4,1.6,8,3.8,11.4
			c1.1,1.7,2.3,3.3,3.8,4.6c1.5,1.3,3.2,2.5,4.9,3.5c3.5,2.1,7.3,3.6,11.2,4.9c7.7,2.6,15.7,4.4,23.5,7.2c3.9,1.4,7.7,3.1,11.1,5.4
			c1.7,1.1,3.3,2.5,4.9,3.8c1.4,1.5,2.9,2.9,4.2,4.6c0.6,0.8,1.2,1.7,1.8,2.5c0.5,0.9,1,1.8,1.5,2.7c1,1.8,1.8,3.7,2.5,5.7
			c1.3,3.9,2.3,7.9,2.9,12c1.2,8.1,1.4,16.4,1.7,24.5c0.2,4.1,0.4,8.2,0.8,12.2c0.1,1,0.2,2,0.3,3l0.2,1.5l0.3,1.5
			c0.4,2,0.9,3.9,1.8,5.7c0.9,1.8,2,3.5,3.5,4.9c1.4,1.4,3.1,2.5,4.9,3.4c3.6,1.7,7.7,2.4,11.7,2.8c4.1,0.4,8.1,0.5,12.2,0.7
			c2.1,0.1,4.1,0.3,6.1,0.5c1,0.1,2,0.2,3.1,0.4l3,0.6l0,0c1.5,0.3,2.9,0.7,4.4,1.1l2.2,0.5c0.7,0.2,1.5,0.5,2.2,0.7
			c0.7,0.2,1.4,0.4,2.1,0.7c0.7,0.2,1.5,0.5,2.1,0.8c1.4,0.6,2.8,1.1,4.2,1.6l0,0l0,0c2,1,4,1.9,5.9,3l2.9,1.6
			c1,0.5,1.9,1.2,2.8,1.8c1.9,1.2,3.6,2.6,5.4,3.9c1.8,1.3,3.4,2.9,5.1,4.3l0,0l0,0c1.4,1.5,2.9,3,4.3,4.5c1.4,1.5,2.7,3.2,3.9,4.9
			c1.2,1.7,2.3,3.5,3.3,5.3c0.5,0.9,1,1.8,1.4,2.8l1.3,2.8l0,0l0,0l1.1,3.3c0.2,0.5,0.4,1.1,0.6,1.7l0.4,1.7l0.8,3.4
			c0.2,1.1,0.4,2.3,0.6,3.4c0.8,4.6,1.3,9.1,2.1,13.7c0.8,4.5,1.8,9,3.5,13.3c0.9,2.1,1.9,4.2,3.1,6.1c0.6,1,1.3,1.9,2.1,2.7
			l2.3,2.5l0,0l2.9,2.4l0,0c0.8,0.5,1.6,1.1,2.4,1.6l0,0c0.9,0.4,1.8,1,2.6,1.4l0,0l1.4,0.6c0.5,0.2,0.9,0.4,1.4,0.7l0,0
			c1.6,0.6,3.1,1.2,4.7,1.7c1.5,0.5,3.2,0.8,4.8,1.2c3.2,0.7,6.5,1.2,9.8,1.7c3.3,0.4,6.6,0.7,9.9,1.1c3.3,0.4,6.6,0.9,9.9,1.3l0,0
			l1.9,0.4l0,0c1.9,0.5,3.9,0.9,5.9,1.3l0,0l0,0l3.8,1.1c1.3,0.4,2.6,0.6,3.8,1.2l0,0c1.9,0.7,3.7,1.3,5.6,2.1
			c1.8,0.8,3.6,1.6,5.4,2.5c3.6,1.8,7,3.7,10.3,5.9c3.3,2.2,6.5,4.7,9.4,7.4c1.5,1.3,2.9,2.8,4.3,4.2c1.5,1.4,2.6,3,4,4.4l0,0l0,0
			c0.6,0.8,1.3,1.7,1.8,2.5c0.6,0.8,1.2,1.7,1.8,2.5c0.6,0.9,1.1,1.8,1.6,2.7l1.6,2.7l0,0l0,0l1.5,3.2l0,0
			c2.6,5.6,4.6,11.7,5.3,17.9c0.4,3.1,0.5,6.2,0.5,9.4c0,3.1,0,6.2-0.1,9.4c-0.1,6.2-0.1,12.5,1.1,18.6c1.1,6.1,3.7,12,7.9,16.5
			c0.6,0.6,1,1.2,1.6,1.7c0.6,0.5,1.2,1,1.8,1.5c1.2,1,2.5,1.9,3.8,2.7c2.6,1.6,5.5,2.9,8.4,4c2.9,1.1,5.9,2,8.9,2.8l9.1,2.1
			c6.1,1.4,12.2,2.6,18.2,4.4c3,0.9,5.9,1.9,8.8,3.2c2.8,1.3,5.6,2.8,8.2,4.6c2.6,1.8,4.8,4,6.9,6.3c2.1,2.4,3.9,4.9,5.4,7.6
			c0.8,1.4,1.5,2.7,2.2,4.1l1.8,4.3c0.6,1.4,1.2,2.9,1.7,4.4c0.5,1.5,1,2.9,1.5,4.4c1.9,5.9,3.6,11.9,5.6,17.8
			c1,2.9,2.1,5.9,3.3,8.7c1.2,2.9,2.6,5.6,4.3,8.3c3.1,5.4,7.5,10,12.4,13.8c5,3.8,10.5,6.7,16.4,8.9
			C476.9,645.2,489.7,646.5,502,644.3z"/>
	</g>
</g>
<g>
	<g>
		<path class="st0" d="M486.5,657c-10.7,2-22,1.2-32.3-1.9c-10.2-3.1-19.7-8.3-26.6-15.4c-1.7-1.8-3.3-3.6-4.7-5.6
			c-1.3-2-2.6-4-3.7-6c-2.3-4.1-3.9-8.5-5.4-12.8c-3-8.7-5.2-17.6-8.5-26.2c-0.9-2.2-1.7-4.2-2.7-6.4c-1.1-2.1-2.2-4.1-3.5-6.1
			c-1.3-2-2.7-3.9-4.4-5.7c-0.8-0.9-1.7-1.7-2.6-2.6c-0.4-0.5-1-0.8-1.4-1.3c-0.4-0.5-1-0.8-1.4-1.2c-3.9-3.1-8.7-5.4-13.6-7.2
			c-5-1.8-10.2-3.1-15.6-4.2c-5.2-1.2-10.6-2.3-15.8-3.6c-5.2-1.4-10.3-3-15.1-5.4c-2.4-1.2-4.6-2.6-6.5-4.2c-1-0.8-2-1.6-2.7-2.5
			c-0.9-0.9-1.7-1.8-2.4-2.8c-2.9-3.9-4.8-8.3-5.8-12.7c-2.1-9-1.4-18.1-1.4-27.1c0-4.5,0-9-0.8-13.5l-0.5-3.3
			c-0.2-1.1-0.5-2.2-0.9-3.3c-0.5-2.3-1.4-4.3-2.2-6.5c-0.3-1.1-1-2.1-1.4-3.2c-0.5-1.1-1-2.1-1.5-3.2l-1.9-3.1l-0.9-1.5
			c-0.3-0.5-0.7-1-1-1.4l-2.1-2.9c-0.3-0.5-0.8-1-1.1-1.4l-1.2-1.4c-0.8-0.9-1.5-1.9-2.4-2.7l-2.6-2.6c-7-6.9-15.7-12.6-25.3-16.8
			c-2.4-1.2-4.9-2-7.4-2.9c-1.2-0.5-2.5-0.8-3.8-1.2c-1.3-0.4-2.6-0.7-3.8-1.1l-3.9-0.8l-2-0.5c-0.7-0.1-1.3-0.2-2-0.4
			c-2.7-0.5-5.3-0.7-8.1-1.1c-5.4-0.6-10.9-1.1-16.2-2c-1.3-0.3-2.7-0.5-4-0.7l-2-0.5l-2-0.5c-1.3-0.3-2.6-0.7-3.9-1.2l-1.9-0.7
			l-1-0.4l-1.2-0.1l-1.9-0.8l-1.7-1l-0.9-0.5l-0.8-0.5l-1.6-1.1c-1-0.8-2-1.6-2.9-2.4c-0.9-0.9-1.7-1.8-2.5-2.7
			c-3.2-3.8-5.1-8.2-6.4-12.5c-2.7-8.8-3.2-17.9-5-26.8c-0.2-1.1-0.4-2.3-0.8-3.3l-0.4-1.6c-0.1-0.5-0.3-1.1-0.5-1.6l-1.1-3.2
			l-1.4-3.2c-2.1-4.1-4.6-8.2-7.7-11.8l-1.2-1.4c-0.4-0.5-0.9-0.9-1.3-1.4L161,337c-1.9-1.6-3.6-3.3-5.7-4.8c-1-0.7-2-1.5-3-2.3
			l-3.2-2.1c-1.1-0.7-2.2-1.3-3.4-1.9c-1.1-0.6-2.2-1.3-3.4-1.8l-3.5-1.7l-3.7-1.4c-0.7-0.3-1.2-0.5-1.9-0.7l-1.9-0.6
			c-1.3-0.4-2.5-0.9-3.8-1.2l-3.9-1c-0.7-0.2-1.3-0.3-2-0.5l-2-0.4c-2.6-0.5-5.3-0.7-8.1-1c-5.4-0.4-10.9-0.4-16.3-1.1
			c-2.7-0.4-5.4-0.9-7.9-1.8s-4.9-2.3-6.8-4.1c-1.9-1.7-3.2-3.8-4.1-5.9c-1-2.2-1.4-4.4-1.9-6.7c-0.7-4.5-1-9-1.2-13.5
			c-0.4-9-0.4-18.1-1.7-27c-0.3-2.3-0.7-4.5-1.2-6.7c-0.5-2.3-1.2-4.4-2-6.6c-0.8-2.2-1.7-4.2-2.9-6.3c-1.1-2.1-2.5-4-4.1-5.8
			c-0.8-0.9-1.6-1.8-2.5-2.6c-1-0.8-1.9-1.6-2.8-2.3c-2-1.5-4.1-2.9-6.4-4.1c-4.7-2.3-9.7-4-14.9-5.5c-5.1-1.5-10.3-2.9-15.5-4.6
			c-5-1.7-10-3.8-14.2-6.9c-2.1-1.5-3.8-3.3-5.1-5.3c-1.4-2-2.4-4.1-3-6.4c-0.7-2.2-1.1-4.4-1.5-6.7c-0.4-2.3-1-4.4-1.4-6.7
			c-0.2-1.1-0.5-2.2-0.9-3.3c-0.3-1.1-0.5-2.2-1-3.2c-0.8-2.2-1.4-4.3-2.3-6.5c-1.6-4.3-3.7-8.5-5.8-12.6
			c-4.5-8.3-9.8-16.2-15.8-23.7c-2.9-3.8-6.2-7.4-9.6-11c-3.4-3.5-6.8-7.1-10.5-10.4c-7.2-6.8-14.8-13.3-22.6-19.6
			c-16-12.7-32.8-24.3-49.7-35.8c16.9,11.3,33.8,23,49.5,35.4c7.8,6.2,15.6,12.7,22.8,19.5c3.6,3.4,7.1,6.9,10.5,10.4
			c3.4,3.6,6.6,7.2,9.6,11c6.1,7.5,11.4,15.4,15.9,23.7c2.2,4.1,4.2,8.4,5.9,12.7c0.9,2.2,1.5,4.3,2.3,6.5c0.3,1.1,0.7,2.2,1,3.3
			c0.3,1.1,0.7,2.2,0.9,3.3c0.5,2.3,1.1,4.4,1.4,6.7c0.4,2.3,0.9,4.4,1.5,6.7c0.7,2.2,1.6,4.3,2.9,6.2s3,3.7,5,5.2
			c4,3.1,8.9,5,13.9,6.8s10.2,3.1,15.5,4.5c5.1,1.5,10.3,3.2,15,5.6c2.4,1.2,4.6,2.5,6.6,4.1c1.1,0.7,2,1.6,2.9,2.4
			c0.9,0.9,1.7,1.7,2.6,2.7c1.6,1.8,3,3.8,4.2,5.9c1.2,2.1,2.2,4.1,2.9,6.4c0.8,2.2,1.5,4.4,2,6.6c0.5,2.3,1,4.5,1.3,6.8
			c1.3,9,1.3,18.1,1.7,27.1c0.2,4.5,0.5,9,1.2,13.5c0.3,2.3,0.9,4.4,1.9,6.5c0.9,2.1,2.2,4.1,3.9,5.8c1.7,1.6,4,3,6.4,3.9
			c2.4,0.9,5.1,1.4,7.7,1.8c5.3,0.7,10.8,0.6,16.3,1c2.7,0.3,5.4,0.5,8.2,1l2.1,0.4c0.7,0.1,1.3,0.3,2,0.5l3.9,1
			c1.3,0.3,2.6,0.8,3.9,1.2l2,0.6c0.7,0.2,1.2,0.5,1.9,0.7l3.7,1.4l3.6,1.7c1.2,0.5,2.4,1.2,3.5,1.8c1.1,0.6,2.3,1.3,3.4,2l3.3,2.2
			c1.1,0.7,2.1,1.5,3,2.3c2.1,1.5,3.9,3.2,5.8,4.9l2.6,2.6c0.4,0.5,0.9,0.9,1.3,1.4l1.2,1.4c3.3,3.7,5.8,7.7,7.8,12l1.4,3.2l1.2,3.2
			c0.2,0.5,0.4,1.1,0.5,1.6l0.4,1.7c0.3,1.1,0.5,2.3,0.8,3.3c1.9,8.9,2.3,18,4.9,26.7c1.3,4.3,3.3,8.6,6.3,12.2
			c0.8,0.9,1.6,1.8,2.5,2.6c1,0.8,1.9,1.6,2.8,2.3l1.5,1.1l0.8,0.5l0.9,0.5l1.6,0.9l1.7,0.8l0.9,0.4l0.9,0.4l1.9,0.7
			c1.3,0.4,2.5,0.8,3.8,1.1l2,0.5l2,0.5c1.3,0.3,2.6,0.5,4,0.7c5.3,0.8,10.8,1.4,16.2,2c2.7,0.4,5.4,0.6,8.2,1.1
			c0.7,0.1,1.3,0.2,2.1,0.4l2,0.5l4,0.8c1.3,0.4,2.6,0.7,3.9,1.1c1.3,0.4,2.6,0.7,3.8,1.2c2.5,0.9,5.1,1.8,7.4,3
			c9.7,4.3,18.4,10.1,25.5,17l2.6,2.6c0.9,0.9,1.6,1.8,2.4,2.8l1.2,1.4c0.4,0.5,0.8,0.9,1.1,1.4l2.1,2.9c0.3,0.5,0.8,1,1,1.4
			l0.9,1.5l1.9,3.1c0.5,1.1,1.1,2.1,1.5,3.2c0.5,1.1,1.1,2.1,1.4,3.2c0.8,2.2,1.7,4.3,2.2,6.6c0.3,1.1,0.7,2.3,0.9,3.3l0.5,3.4
			c0.8,4.5,0.8,9.1,0.8,13.6c0,9-0.7,18.1,1.3,27c1,4.4,2.8,8.7,5.7,12.5c0.7,1,1.5,1.8,2.4,2.7c0.8,0.9,1.7,1.7,2.7,2.5
			c2,1.5,4.1,3,6.4,4.1c4.6,2.3,9.7,4.1,14.9,5.3c5.2,1.4,10.6,2.4,15.8,3.6c5.2,1.2,10.6,2.4,15.6,4.2c5,1.8,9.8,4.2,13.8,7.3
			c0.5,0.4,1,0.8,1.5,1.2c0.4,0.5,1,0.8,1.4,1.3c0.9,0.9,1.9,1.7,2.6,2.6c1.6,1.8,3.2,3.8,4.5,5.8c2.6,4,4.6,8.3,6.2,12.6
			c3.3,8.6,5.3,17.6,8.4,26.2c1.5,4.3,3.2,8.6,5.4,12.8c1.1,2.1,2.4,4.1,3.7,6c1.4,2,2.9,3.8,4.6,5.6c6.8,7.1,16.1,12.4,26.4,15.5
			C464.5,658.1,475.9,658.9,486.5,657z"/>
		<path class="st0" d="M486.5,657c-12.3,2.2-25.1,1-36.8-3.4c-5.8-2.2-11.4-5.1-16.4-8.8c-4.9-3.8-9.3-8.4-12.5-13.8
			c-1.6-2.7-3.1-5.4-4.3-8.3c-1.2-2.9-2.3-5.8-3.3-8.8c-2-5.9-3.7-11.9-5.6-17.8c-0.5-1.5-1-3-1.5-4.4c-0.5-1.5-1.1-2.9-1.7-4.3
			l-1.8-4.3c-0.7-1.4-1.4-2.8-2.2-4.1c-1.6-2.7-3.4-5.2-5.4-7.6c-2.1-2.3-4.4-4.4-6.9-6.2c-2.5-1.8-5.3-3.3-8.1-4.6
			c-2.8-1.3-5.8-2.3-8.8-3.2c-6-1.8-12.1-2.9-18.2-4.4l-9.1-2.1c-3-0.8-6-1.7-9-2.8c-2.9-1.1-5.8-2.4-8.5-4
			c-1.3-0.8-2.6-1.7-3.8-2.7c-0.6-0.5-1.2-1-1.8-1.5c-0.6-0.5-1.1-1.1-1.6-1.7c-4.3-4.6-6.9-10.6-8-16.8c-1.2-6.2-1.2-12.5-1.1-18.7
			c0-3.1,0.1-6.2,0.1-9.3c0-3.1-0.1-6.2-0.5-9.3c-0.7-6.2-2.6-12.2-5.2-17.8l0,0l-1.5-3.2l0,0l-1.6-2.7c-0.6-0.9-1-1.8-1.6-2.6
			c-0.6-0.8-1.2-1.7-1.8-2.5c-0.6-0.8-1.2-1.7-1.8-2.5l0,0c-1.4-1.5-2.5-3.1-4-4.4c-1.4-1.4-2.8-2.8-4.3-4.2c-2.9-2.7-6-5.1-9.3-7.3
			c-3.3-2.2-6.7-4.2-10.3-5.9c-1.8-0.9-3.6-1.7-5.4-2.5c-1.8-0.8-3.7-1.4-5.6-2.1l0,0l0,0c-1.2-0.5-2.5-0.8-3.8-1.2l-3.8-1.1l0,0
			c-2-0.4-3.9-0.8-5.9-1.3l0,0l-2-0.4l0,0c-3.3-0.4-6.5-0.9-9.8-1.3c-3.3-0.4-6.6-0.7-9.9-1.1c-3.3-0.4-6.6-1-9.8-1.7l-2.4-0.6
			c-0.8-0.2-1.6-0.4-2.4-0.6c-1.6-0.5-3.1-1.1-4.7-1.7l0.1,0l-1.2-0.1l-0.1,0l0,0l-1.9-0.8l0,0l0,0c-0.9-0.5-1.7-1-2.6-1.4l0,0l0,0
			c-0.8-0.6-1.6-1.1-2.4-1.6l0,0l0,0l-2.9-2.4l0,0l0,0l-2.4-2.6c-0.8-0.9-1.5-1.8-2.1-2.8c-1.3-1.9-2.3-4-3.2-6.2
			c-1.7-4.3-2.8-8.9-3.6-13.4c-0.8-4.6-1.3-9.1-2.1-13.7c-0.2-1.1-0.4-2.3-0.6-3.4l-0.8-3.4l-0.4-1.7c-0.1-0.6-0.3-1-0.5-1.6
			l-1.1-3.3l0,0l-1.3-2.8c-0.4-0.9-0.9-1.8-1.4-2.7c-1-1.8-2.1-3.6-3.3-5.3c-1.2-1.7-2.5-3.3-3.9-4.8c-1.4-1.5-2.9-3-4.3-4.5l0,0
			c-1.7-1.5-3.3-3-5-4.3c-1.8-1.3-3.5-2.7-5.4-3.8c-0.9-0.6-1.8-1.2-2.8-1.8l-2.9-1.6c-1.9-1.1-3.9-2-5.9-3l0,0
			c-1.4-0.6-2.8-1.1-4.2-1.6c-0.7-0.3-1.3-0.5-2.1-0.8c-0.7-0.3-1.4-0.5-2.1-0.7c-0.7-0.2-1.4-0.5-2.1-0.7l-2.2-0.5
			c-1.5-0.4-2.9-0.7-4.4-1.1l0,0l-3-0.6c-1-0.2-2-0.3-3-0.4c-2-0.2-4.1-0.4-6.1-0.5c-4.1-0.2-8.2-0.3-12.3-0.7
			c-4.1-0.4-8.2-1.1-12-2.9c-1.9-0.9-3.6-2.1-5.1-3.5c-1.5-1.5-2.7-3.2-3.6-5.1c-0.9-1.9-1.5-3.9-1.9-5.9l-0.3-1.5l-0.2-1.5
			c-0.1-1-0.2-2-0.4-3.1c-0.4-4.1-0.6-8.2-0.8-12.3c-0.3-8.2-0.5-16.4-1.7-24.4c-1.1-8-3.6-16.1-8.5-22.5c-1.2-1.6-2.7-3-4.1-4.5
			c-1.6-1.3-3.1-2.6-4.8-3.7c-3.4-2.3-7.1-3.9-10.9-5.3c-7.7-2.8-15.7-4.6-23.5-7.2c-3.9-1.3-7.7-2.8-11.3-4.9
			c-1.8-1.1-3.5-2.2-5-3.6c-1.6-1.4-2.9-3.1-4-4.8c-1.1-1.8-2-3.7-2.5-5.7c-0.6-2-1-4-1.4-6l-1.3-6c-0.2-1-0.4-2-0.7-3
			c-0.2-1-0.5-2-0.8-3c-0.2-1-0.6-1.9-0.9-2.9l-1-2.9c-0.7-1.9-1.4-3.9-2.2-5.7c-0.8-1.9-1.7-3.7-2.6-5.6c-0.9-1.8-1.8-3.7-2.8-5.4
			c-4-7.1-8.5-13.9-13.6-20.4c-4.9-6.5-10.6-12.4-16.3-18.3c-11.6-11.5-24.2-22-37.2-31.8c-13.1-9.9-26.5-19.1-40.1-28.3l0.6-0.8
			c18,12.1,35.9,24.4,52.8,38c4.2,3.4,8.4,6.9,12.4,10.5c2,1.8,4,3.6,6,5.5c2,1.9,3.9,3.8,5.8,5.7l5.8,5.8c1.9,2,3.7,4,5.5,6
			c1.8,2,3.5,4.2,5.2,6.3c1.7,2.1,3.3,4.3,4.9,6.5c6.3,8.8,11.8,18.3,15.8,28.4c0.9,2.6,1.9,5.1,2.7,7.7c0.8,2.6,1.5,5.3,2.1,7.9
			c0.3,1.3,0.6,2.7,0.8,4c0.2,1.3,0.5,2.6,0.8,4c0.3,1.3,0.6,2.6,1,3.9c0.4,1.3,0.9,2.5,1.6,3.7c1.3,2.3,3,4.4,5,6.1
			c2,1.7,4.3,3.1,6.7,4.3c4.8,2.3,10,3.9,15.2,5.4l7.8,2.2c2.6,0.8,5.2,1.6,7.8,2.5c2.6,0.9,5.1,1.9,7.5,3.2c2.4,1.2,4.8,2.6,7,4.3
			l0,0c1.1,0.7,2,1.7,3,2.5l0,0l0,0c1.1,1.1,2.2,2.2,3.2,3.3c1,1.2,1.9,2.4,2.8,3.7c1.7,2.6,3.1,5.4,4,8.3c0.5,1.4,1,2.9,1.4,4.4
			c0.4,1.5,0.7,3,1,4.5c0.3,1.5,0.6,3,0.9,4.5c0.2,1.5,0.4,3,0.5,4.6c1.2,12.2,0.6,24.5,2.5,36.5c0.5,3,1.6,5.9,3.2,8.4
			c0.8,1.2,1.8,2.4,2.9,3.4c1.1,1,2.4,1.8,3.8,2.4c2.7,1.4,5.7,2,8.7,2.5c3,0.5,6,0.6,9.1,0.8c6.1,0.2,12.3,0.5,18.3,1.7
			c1.5,0.3,3,0.7,4.5,1.1l2.2,0.6c0.8,0.2,1.5,0.5,2.2,0.7c0.7,0.2,1.5,0.4,2.2,0.7c0.7,0.2,1.5,0.4,2.2,0.8
			c1.4,0.6,2.8,1.1,4.3,1.7l0,0l0,0l3.7,1.8c1.2,0.6,2.4,1.2,3.6,1.9c1.2,0.7,2.4,1.4,3.5,2.1c1.1,0.8,2.3,1.5,3.4,2.3
			c1.1,0.8,2.2,1.6,3.3,2.4c1.1,0.8,2.1,1.7,3.1,2.6c2.1,1.8,4,3.8,5.9,5.7l0,0l0,0c1.1,1.3,2.2,2.6,3.2,3.9c1,1.4,2,2.8,2.9,4.2
			c0.9,1.4,1.7,2.9,2.5,4.5c0.4,0.8,0.7,1.5,1.1,2.3c0.3,0.8,0.7,1.5,1,2.3l0.9,2.4c0.1,0.4,0.3,0.8,0.5,1.2
			c0.2,0.4,0.2,0.9,0.3,1.3c0.4,1.6,0.8,3.3,1.2,5c0.7,3.3,1.2,6.7,1.6,10c1,6.7,1.9,13.4,4.4,19.7c1.2,3.1,2.9,6.1,5,8.7
			c2.2,2.5,4.8,4.7,7.6,6.6l0,0c0.6,0.3,1.3,0.7,1.9,1c0.6,0.4,1.3,0.6,1.9,0.9c0.6,0.3,1.3,0.6,2,0.8l2,0.8l0,0l2.7,0.8
			c0.9,0.2,1.8,0.4,2.7,0.6c0.9,0.2,1.8,0.4,2.7,0.6l2.8,0.5c3.7,0.5,7.4,0.9,11.1,1.4c3.7,0.4,7.4,0.9,11.1,1.4l2.8,0.4
			c0.9,0.2,1.9,0.3,2.8,0.5c1.8,0.4,3.7,0.8,5.5,1.1l0,0l0,0l3.5,1c1.2,0.3,2.3,0.7,3.5,1.1c2.3,0.8,4.6,1.6,6.8,2.5
			c4.4,2,8.7,4.2,12.8,6.7c4.1,2.6,8,5.4,11.6,8.7c1.8,1.6,3.5,3.3,5.2,5l2.4,2.8l1.2,1.3c0.4,0.4,0.8,1,1.1,1.5l0,0l1.5,2.2
			c0.5,0.7,1.1,1.4,1.5,2.2c0.8,1.5,1.8,3,2.7,4.6l0,0l0,0l1.5,3.2l0,0c0.4,0.8,0.8,1.5,1.1,2.4c0.3,0.8,0.6,1.6,0.9,2.4
			c0.6,1.6,1.2,3.3,1.6,5l0,0c1.6,5.8,2.2,11.7,2.2,17.7c0.1,5.9-0.2,11.9,0,17.8c0.1,3,0.3,5.9,0.8,8.8c0.5,2.9,1.1,5.8,2.3,8.5
			c1.1,2.7,2.6,5.3,4.4,7.6c0.4,0.6,1,1.1,1.5,1.6c0.5,0.5,1,1.1,1.5,1.6c1.1,1,2.2,1.9,3.5,2.7c2.4,1.7,5,3.1,7.7,4.3
			c2.7,1.2,5.5,2.1,8.4,2.9c2.8,0.8,5.8,1.4,8.6,2.1l8.7,2c5.8,1.3,11.6,2.6,17.2,4.6c5.6,2,11,4.8,15.5,8.6l0,0l0,0
			c4.7,3.9,8.4,8.9,11.2,14.4c2.8,5.4,4.8,11.3,6.5,17.1c1.8,5.8,3.4,11.7,5.4,17.5c1,2.9,2.1,5.7,3.3,8.5c1.3,2.8,2.7,5.5,4.4,8
			c3.3,5.2,7.5,9.7,12.4,13.3c4.9,3.6,10.4,6.4,16.1,8.5C462,657.8,474.5,659.1,486.5,657z M486.5,657c-12,2.1-24.6,0.9-36.1-3.1
			c-5.7-2.1-11.2-4.9-16.2-8.5c-4.9-3.6-9.2-8.1-12.5-13.3c-1.7-2.6-3.1-5.2-4.4-8c-1.3-2.8-2.3-5.6-3.4-8.5
			c-2.1-5.8-3.7-11.6-5.5-17.5c-1.8-5.8-3.8-11.6-6.6-17c-2.8-5.4-6.5-10.3-11.2-14.3l0,0c-4.6-3.8-9.9-6.5-15.5-8.5
			c-5.6-2-11.4-3.3-17.2-4.6l-8.7-2c-2.9-0.7-5.8-1.3-8.7-2.1c-2.9-0.8-5.7-1.8-8.4-2.9c-2.7-1.2-5.4-2.6-7.8-4.3
			c-1.2-0.8-2.4-1.8-3.5-2.8c-0.6-0.5-1-1.1-1.6-1.6c-0.5-0.5-1.1-1.1-1.5-1.7c-1.8-2.4-3.3-5-4.5-7.7c-1.1-2.8-1.8-5.7-2.3-8.6
			c-0.5-2.9-0.7-5.9-0.8-8.9c-0.2-5.9,0.1-11.9,0-17.8c0-5.9-0.5-11.9-2.2-17.5l0,0l0,0c-0.3-1.7-0.9-3.3-1.6-4.9
			c-0.3-0.8-0.6-1.7-0.9-2.4c-0.3-0.8-0.7-1.5-1.1-2.3l0,0l-1.5-3.1l0,0c-0.9-1.5-1.9-3-2.7-4.6c-0.4-0.7-1-1.4-1.5-2.2l-1.6-2.2
			l0,0l0,0c-0.3-0.5-0.6-1-1.1-1.4l-1.2-1.4l-2.3-2.7c-1.7-1.7-3.4-3.4-5.2-5c-3.6-3.2-7.5-6.1-11.5-8.6c-4.1-2.6-8.4-4.7-12.8-6.7
			c-2.2-1-4.5-1.8-6.7-2.5c-1.1-0.3-2.3-0.7-3.4-1l-3.5-1l0,0c-1.8-0.4-3.7-0.7-5.5-1.1c-0.9-0.2-1.8-0.3-2.7-0.5l-2.8-0.4
			c-3.7-0.5-7.4-1-11.1-1.4c-3.7-0.5-7.4-0.9-11.1-1.4l-2.8-0.5c-0.9-0.2-1.8-0.4-2.7-0.6c-0.9-0.2-1.8-0.4-2.7-0.6l-2.7-0.8l0,0
			l0,0l-2-0.8c-0.7-0.3-1.3-0.5-2-0.8c-0.7-0.3-1.3-0.6-2-1c-0.6-0.4-1.3-0.7-1.9-1l0,0l0,0c-2.8-1.9-5.4-4.1-7.7-6.7
			c-2.2-2.6-3.9-5.7-5.1-8.8c-2.5-6.4-3.4-13.2-4.4-19.9c-0.5-3.3-1-6.7-1.6-10c-0.4-1.7-0.7-3.3-1.1-4.9c-0.1-0.4-0.2-0.8-0.3-1.2
			c-0.1-0.4-0.3-0.8-0.4-1.2l-0.9-2.4c-0.3-0.8-0.7-1.5-1-2.3c-0.3-0.8-0.7-1.5-1.1-2.3c-0.8-1.5-1.6-3-2.5-4.4
			c-0.9-1.4-1.8-2.8-2.9-4.1c-1-1.3-2.2-2.6-3.2-3.9l0,0c-1.9-2-3.8-3.9-5.8-5.7c-1-0.9-2-1.8-3.1-2.6l-3.3-2.4
			c-1.1-0.8-2.3-1.5-3.4-2.3c-1.1-0.7-2.3-1.4-3.5-2.1c-1.2-0.6-2.4-1.2-3.6-1.9l-3.7-1.8l0,0c-5.7-2.4-11.5-4.1-17.4-5.4
			c-6-1.2-12.1-1.5-18.2-1.7c-3.1-0.1-6.1-0.3-9.2-0.8c-3-0.5-6.1-1.2-8.9-2.6c-1.4-0.7-2.7-1.5-3.9-2.5c-1.2-1-2.2-2.2-3.1-3.5
			c-1.7-2.6-2.8-5.6-3.3-8.7c-1.9-12.2-1.3-24.5-2.5-36.6c-0.2-1.5-0.3-3-0.5-4.5c-0.3-1.5-0.6-3-0.9-4.5c-0.3-1.5-0.5-3-1-4.5
			c-0.4-1.5-0.9-2.9-1.4-4.3c-1-2.9-2.3-5.6-4-8.1c-0.8-1.3-1.7-2.5-2.7-3.6c-1-1.1-2.1-2.2-3.1-3.3l0,0c-1-0.8-1.9-1.7-2.9-2.4l0,0
			l0,0c-2.1-1.7-4.4-3.1-6.8-4.2c-2.4-1.2-4.9-2.2-7.4-3.1c-2.5-0.9-5.1-1.7-7.7-2.4l-7.8-2.2c-5.2-1.5-10.4-3.1-15.4-5.5
			c-2.5-1.2-4.8-2.6-6.9-4.4c-2.1-1.8-3.9-3.9-5.2-6.4c-2.7-4.9-3-10.6-4.3-15.7c-0.6-2.7-1.3-5.2-2.1-7.8c-0.8-2.6-1.8-5.1-2.7-7.6
			c-4-10-9.4-19.5-15.7-28.2c-1.6-2.2-3.2-4.3-4.9-6.5c-1.7-2.1-3.4-4.2-5.2-6.3c-1.8-2-3.6-4-5.5-6l-5.7-5.7
			c-1.9-1.9-3.8-3.9-5.8-5.7c-2-1.9-4-3.7-6-5.5c-4.1-3.6-8.2-7-12.4-10.4c-16.9-13.6-34.8-25.8-52.7-37.9l0.6-0.8
			c13.5,9.2,27,18.5,40.1,28.4c13.1,9.8,25.6,20.4,37.3,32c11.6,11.5,22,24.5,30,38.8c1,1.8,1.9,3.7,2.8,5.5
			c0.9,1.8,1.8,3.7,2.6,5.6c0.8,1.9,1.5,3.8,2.2,5.8l1,2.9c0.3,1,0.7,2,1,3c0.3,1,0.5,2,0.8,3c0.3,1,0.5,2,0.7,3l1.3,6
			c0.8,4,1.6,8,3.8,11.4c1.1,1.7,2.3,3.3,3.8,4.6c1.5,1.3,3.2,2.5,4.9,3.5c3.5,2.1,7.3,3.5,11.2,4.9c7.7,2.6,15.7,4.4,23.5,7.2
			c7.7,2.7,15.1,7.2,20.1,13.8c0.6,0.8,1.2,1.7,1.8,2.5c0.5,0.9,1,1.8,1.5,2.7c1,1.8,1.8,3.7,2.5,5.7c1.3,3.9,2.3,7.9,2.9,12
			c1.2,8.1,1.4,16.4,1.7,24.5c0.2,4.1,0.4,8.2,0.8,12.2c0.1,1,0.2,2,0.3,3l0.2,1.5l0.3,1.5c0.4,2,0.9,3.9,1.8,5.7
			c0.9,1.8,2,3.5,3.5,4.9c1.4,1.4,3.1,2.5,4.9,3.4c3.6,1.7,7.7,2.4,11.7,2.8c4.1,0.4,8.1,0.5,12.2,0.7c2.1,0.1,4.1,0.3,6.1,0.5
			c1,0.1,2,0.2,3.1,0.4l3,0.6l0,0c1.5,0.3,2.9,0.7,4.4,1.1l2.2,0.5c0.7,0.2,1.5,0.5,2.2,0.7c0.7,0.2,1.4,0.4,2.1,0.7
			c0.7,0.2,1.5,0.5,2.1,0.8c1.4,0.6,2.8,1.1,4.2,1.6l0,0l0,0c2,1,4,1.9,5.9,3l2.9,1.6c1,0.5,1.9,1.2,2.8,1.8
			c1.9,1.2,3.6,2.6,5.4,3.9c1.8,1.3,3.4,2.9,5.1,4.3l0,0l0,0c1.4,1.5,2.9,3,4.3,4.5c1.4,1.5,2.7,3.2,3.9,4.9
			c1.2,1.7,2.3,3.5,3.3,5.3c0.5,0.9,1,1.8,1.4,2.8l1.3,2.8l0,0l0,0l1.1,3.3c0.2,0.5,0.4,1.1,0.6,1.7l0.4,1.7l0.8,3.4
			c0.2,1.1,0.4,2.3,0.6,3.4c0.8,4.6,1.3,9.1,2.1,13.7c0.8,4.5,1.8,9,3.5,13.3c0.9,2.1,1.9,4.2,3.1,6.1c0.6,1,1.3,1.9,2.1,2.7
			l2.3,2.5l0,0l2.9,2.4l0,0c0.8,0.5,1.6,1.1,2.4,1.6l0,0c0.9,0.4,1.8,1,2.6,1.4l0,0l1.9,0.8l-0.1,0l1.2,0.1l0,0l0,0
			c1.6,0.6,3.1,1.2,4.7,1.7c1.5,0.5,3.2,0.8,4.8,1.2c3.2,0.7,6.5,1.2,9.8,1.7c3.3,0.4,6.6,0.7,9.9,1.1c3.3,0.4,6.6,0.9,9.9,1.3l0,0
			l1.9,0.4l0,0c1.9,0.5,3.9,0.9,5.9,1.3l0,0l0,0l3.8,1.1c1.3,0.4,2.6,0.6,3.8,1.2l0,0c1.9,0.7,3.7,1.3,5.6,2.1
			c1.8,0.8,3.6,1.6,5.4,2.5c3.6,1.8,7,3.7,10.3,5.9c3.3,2.2,6.5,4.7,9.4,7.4c1.5,1.3,2.9,2.8,4.3,4.2c1.5,1.4,2.6,3,4,4.4l0,0l0,0
			c0.6,0.8,1.3,1.7,1.8,2.5c0.6,0.8,1.2,1.7,1.8,2.5c0.6,0.9,1.1,1.8,1.6,2.7l1.6,2.7l0,0l0,0l1.5,3.2l0,0
			c2.6,5.6,4.6,11.7,5.3,17.9c0.4,3.1,0.5,6.2,0.5,9.4c0,3.1,0,6.2-0.1,9.4c-0.1,6.2-0.1,12.5,1.1,18.6c1.1,6.1,3.7,12,7.9,16.5
			c0.6,0.6,1,1.2,1.6,1.7c0.6,0.5,1.2,1,1.8,1.5c1.2,1,2.5,1.9,3.8,2.7c2.7,1.6,5.5,2.9,8.4,4c2.9,1.1,5.9,2,8.9,2.8l9.1,2.1
			c6.1,1.4,12.2,2.6,18.2,4.4c3,0.9,5.9,1.9,8.8,3.2c2.8,1.3,5.6,2.8,8.2,4.6c2.6,1.8,4.8,4,6.9,6.3c2.1,2.4,3.9,4.9,5.4,7.6
			c0.8,1.4,1.5,2.7,2.2,4.1l1.8,4.3c0.6,1.4,1.2,2.9,1.7,4.4c0.5,1.5,1,2.9,1.5,4.4c1.9,5.9,3.6,11.9,5.6,17.8
			c1,2.9,2.1,5.9,3.3,8.7c1.2,2.9,2.6,5.6,4.3,8.3c3.1,5.4,7.5,10,12.4,13.8c5,3.8,10.5,6.7,16.4,8.9
			C461.4,657.9,474.3,659.2,486.5,657z"/>
	</g>
</g>
<g>
	<g>
		<path class="st0" d="M468.2,672c-10.7,2-22,1.2-32.3-1.9c-10.2-3.1-19.7-8.3-26.6-15.4c-1.7-1.8-3.3-3.6-4.7-5.6
			c-1.3-2-2.6-4-3.7-6c-2.3-4.1-3.9-8.5-5.4-12.8c-3-8.7-5.2-17.6-8.5-26.2c-0.9-2.2-1.7-4.2-2.7-6.4c-1.1-2.1-2.2-4.1-3.5-6.1
			c-1.3-2-2.7-3.9-4.4-5.7c-0.8-0.9-1.7-1.7-2.6-2.6c-0.4-0.5-1-0.8-1.4-1.3c-0.4-0.5-1-0.8-1.4-1.2c-3.9-3.1-8.7-5.4-13.6-7.2
			c-5-1.8-10.2-3.1-15.6-4.2c-5.2-1.2-10.6-2.3-15.8-3.6c-5.2-1.4-10.3-3-15.1-5.4c-2.3-1.2-4.6-2.6-6.5-4.2c-1-0.8-2-1.6-2.7-2.5
			c-0.9-0.9-1.7-1.8-2.4-2.8c-2.9-3.9-4.8-8.3-5.8-12.7c-2.1-9-1.4-18.1-1.4-27.1c0-4.5,0-9-0.8-13.5l-0.5-3.3
			c-0.2-1.1-0.5-2.2-0.9-3.3c-0.5-2.3-1.4-4.3-2.2-6.5c-0.3-1.1-1-2.1-1.4-3.2c-0.5-1.1-1-2.1-1.5-3.2l-1.9-3.1l-0.9-1.5
			c-0.3-0.5-0.7-1-1-1.4l-2.1-2.9c-0.3-0.5-0.8-1-1.1-1.4l-1.2-1.4c-0.8-0.9-1.5-1.9-2.4-2.7l-2.6-2.6c-7-6.9-15.7-12.6-25.3-16.8
			c-2.4-1.2-4.9-2-7.4-2.9c-1.2-0.5-2.5-0.8-3.8-1.2c-1.3-0.4-2.6-0.7-3.8-1.1l-3.9-0.8l-2-0.5c-0.7-0.1-1.3-0.2-2-0.4
			c-2.7-0.5-5.3-0.7-8.1-1.1c-5.4-0.6-10.9-1.1-16.2-2c-1.3-0.3-2.7-0.5-4-0.7l-2-0.5l-2-0.5c-1.3-0.3-2.6-0.7-3.9-1.2l-1.9-0.7
			l-1-0.4l-0.9-0.5l-1.9-0.8l-1.7-1l-0.9-0.5l-0.8-0.5l-1.6-1.1c-1-0.8-2-1.6-2.9-2.4c-0.9-0.9-1.7-1.8-2.5-2.7
			c-3.2-3.8-5.1-8.2-6.4-12.5c-2.7-8.8-3.2-17.9-5-26.8c-0.2-1.1-0.4-2.3-0.8-3.3l-0.4-1.6c-0.1-0.5-0.3-1.1-0.5-1.6l-1.1-3.2
			l-1.4-3.2c-2.1-4.1-4.6-8.2-7.7-11.8l-1.2-1.4c-0.4-0.5-0.9-0.9-1.3-1.4l-2.5-2.6c-1.9-1.6-3.6-3.3-5.7-4.8c-1-0.7-2-1.5-3-2.3
			l-3.2-2.1c-1.1-0.7-2.2-1.3-3.4-1.9c-1.1-0.6-2.2-1.3-3.4-1.8l-3.5-1.7l-3.7-1.4c-0.7-0.3-1.2-0.5-1.9-0.7l-1.9-0.6
			c-1.3-0.4-2.5-0.9-3.8-1.2l-3.9-1c-0.7-0.2-1.3-0.3-2-0.5l-2-0.4c-2.6-0.5-5.3-0.7-8.1-1c-5.4-0.4-10.9-0.4-16.3-1.1
			c-2.7-0.4-5.4-0.9-7.9-1.8c-2.5-0.9-4.9-2.3-6.8-4.1c-1.9-1.7-3.2-3.8-4.1-5.9c-1-2.2-1.4-4.4-1.9-6.7c-0.7-4.5-1-9-1.2-13.5
			c-0.4-9-0.4-18.1-1.7-27c-0.3-2.3-0.7-4.5-1.2-6.7c-0.5-2.3-1.2-4.4-2-6.6c-0.8-2.2-1.7-4.2-2.9-6.3c-1.1-2.1-2.5-4-4.1-5.8
			c-0.8-0.9-1.6-1.8-2.5-2.6c-1-0.8-1.9-1.6-2.8-2.3c-2-1.5-4.1-2.9-6.4-4.1c-4.7-2.3-9.7-4-14.9-5.5c-5.1-1.5-10.3-2.9-15.5-4.6
			c-5-1.7-10-3.8-14.2-6.9c-2.1-1.5-3.8-3.3-5.1-5.3c-1.4-2-2.4-4.1-3-6.4c-0.7-2.2-1.1-4.4-1.5-6.7s-1-4.4-1.4-6.7
			c-0.2-1.1-0.5-2.2-0.9-3.3c-0.3-1.1-0.5-2.2-1-3.2c-0.8-2.2-1.4-4.3-2.3-6.5c-1.6-4.3-3.7-8.5-5.8-12.6
			c-4.5-8.3-9.8-16.2-15.8-23.7c-2.9-3.8-6.2-7.4-9.6-11c-3.4-3.5-6.8-7.1-10.5-10.4c-7.2-6.8-14.8-13.3-22.6-19.6
			c-16.3-12.3-33.1-24-50-35.4c17,11.4,33.8,23,49.7,35.5c7.8,6.2,15.6,12.7,22.8,19.5c3.6,3.4,7.1,6.9,10.5,10.4
			c3.4,3.6,6.6,7.2,9.6,11c6.1,7.5,11.4,15.4,15.9,23.7c2.2,4.1,4.2,8.4,5.9,12.7c0.9,2.2,1.5,4.3,2.3,6.5c0.3,1.1,0.7,2.2,1,3.3
			c0.3,1.1,0.7,2.2,0.9,3.3c0.5,2.3,1.1,4.4,1.4,6.7c0.4,2.3,0.9,4.4,1.5,6.7c0.7,2.2,1.6,4.3,2.9,6.2c1.3,1.9,3,3.7,5,5.2
			c4,3.1,8.9,5,13.9,6.8c5,1.7,10.2,3.1,15.5,4.5c5.1,1.5,10.3,3.2,15,5.6c2.4,1.2,4.6,2.5,6.6,4.1c1.1,0.7,2,1.6,2.9,2.4
			c0.9,0.9,1.7,1.7,2.6,2.7c1.6,1.8,3,3.8,4.2,5.9c1.2,2.1,2.2,4.1,2.9,6.4c0.8,2.2,1.5,4.4,2,6.6c0.5,2.3,1,4.5,1.3,6.8
			c1.3,9,1.3,18.1,1.7,27.1c0.2,4.5,0.5,9,1.2,13.5c0.3,2.3,0.9,4.4,1.9,6.5c0.9,2.1,2.2,4.1,3.9,5.8c1.7,1.6,4,3,6.4,3.9
			c2.4,0.9,5.1,1.4,7.7,1.8c5.3,0.7,10.8,0.6,16.3,1c2.7,0.3,5.4,0.5,8.2,1l2.1,0.4c0.7,0.1,1.3,0.3,2,0.5l3.9,1
			c1.3,0.3,2.6,0.8,3.9,1.2l2,0.6c0.7,0.2,1.2,0.5,1.9,0.7l3.7,1.4l3.6,1.7c1.2,0.5,2.4,1.2,3.5,1.8c1.1,0.6,2.3,1.3,3.4,2l3.3,2.2
			c1.1,0.7,2.1,1.5,3,2.3c2.1,1.5,3.9,3.2,5.8,4.9l2.6,2.6c0.4,0.5,0.9,0.9,1.3,1.4l1.2,1.4c3.3,3.7,5.8,7.7,7.8,12l1.4,3.2l1.2,3.2
			c0.2,0.5,0.4,1.1,0.5,1.6l0.4,1.7c0.3,1.1,0.5,2.3,0.8,3.3c1.9,8.9,2.3,18,4.9,26.7c1.3,4.3,3.3,8.6,6.3,12.2
			c0.8,0.9,1.6,1.8,2.5,2.6c1,0.8,1.9,1.6,2.8,2.3l1.5,1.1l0.8,0.5l0.9,0.5l1.6,0.9l1.7,0.8l0.9,0.4l0.9,0.4l1.9,0.7
			c1.3,0.4,2.5,0.8,3.8,1.1l2,0.5l2,0.5c1.3,0.3,2.6,0.5,4,0.7c5.3,0.8,10.8,1.4,16.2,2c2.7,0.4,5.4,0.6,8.2,1.1
			c0.7,0.1,1.3,0.2,2.1,0.4l2,0.5l4,0.8c1.3,0.4,2.6,0.7,3.9,1.1c1.3,0.4,2.6,0.7,3.8,1.2c2.5,0.9,5.1,1.8,7.4,3
			c9.7,4.3,18.4,10.1,25.5,17l2.6,2.6c0.9,0.9,1.6,1.8,2.4,2.8l1.2,1.4c0.4,0.5,0.8,0.9,1.1,1.4l2.1,2.9c0.3,0.5,0.8,1,1,1.4
			l0.9,1.5l1.9,3.1c0.5,1.1,1.1,2.1,1.5,3.2c0.5,1.1,1.1,2.1,1.4,3.2c0.8,2.2,1.7,4.3,2.2,6.6c0.3,1.1,0.7,2.3,0.9,3.3l0.5,3.4
			c0.8,4.5,0.8,9.1,0.8,13.6c0,9-0.7,18.1,1.3,27c1,4.4,2.8,8.7,5.7,12.5c0.7,1,1.5,1.8,2.4,2.7c0.8,0.9,1.7,1.7,2.7,2.5
			c2,1.5,4.1,3,6.4,4.1c4.6,2.3,9.7,4.1,14.9,5.3c5.2,1.4,10.6,2.4,15.8,3.6c5.2,1.2,10.6,2.4,15.6,4.2c5,1.8,9.8,4.2,13.8,7.3
			c0.5,0.4,1,0.8,1.5,1.2c0.4,0.5,1,0.8,1.4,1.3c0.9,0.9,1.9,1.7,2.6,2.6c1.6,1.8,3.2,3.8,4.5,5.8c2.6,4,4.6,8.3,6.2,12.6
			c3.3,8.6,5.3,17.6,8.4,26.2c1.5,4.3,3.2,8.6,5.4,12.8c1.1,2.1,2.4,4.1,3.7,6c1.4,2,2.9,3.8,4.6,5.6c6.8,7.1,16.1,12.4,26.4,15.5
			C446.2,673.1,457.6,674,468.2,672z"/>
		<path class="st0" d="M468.2,672c-12.3,2.2-25.1,1-36.8-3.4c-5.8-2.2-11.4-5.1-16.4-8.8c-4.9-3.8-9.3-8.4-12.5-13.8
			c-1.6-2.7-3.1-5.4-4.3-8.3c-1.2-2.9-2.3-5.8-3.3-8.8c-2-5.9-3.7-11.9-5.6-17.8c-0.5-1.5-1-3-1.5-4.4c-0.5-1.5-1.1-2.9-1.7-4.3
			l-1.8-4.3c-0.7-1.4-1.4-2.8-2.2-4.1c-1.6-2.7-3.4-5.2-5.4-7.6c-2.1-2.3-4.4-4.4-6.9-6.2c-2.5-1.8-5.3-3.3-8.1-4.6
			c-2.8-1.3-5.8-2.3-8.8-3.2c-6-1.8-12.1-2.9-18.2-4.4l-9.1-2.1c-3-0.8-6-1.7-9-2.8c-2.9-1.1-5.8-2.4-8.5-4
			c-1.3-0.8-2.6-1.7-3.8-2.7c-0.6-0.5-1.2-1-1.8-1.5c-0.6-0.5-1.1-1.1-1.6-1.7c-4.3-4.6-6.9-10.6-8-16.8c-1.2-6.2-1.2-12.5-1.1-18.7
			c0-3.1,0.1-6.2,0.1-9.3c0-3.1-0.1-6.2-0.5-9.3c-0.7-6.2-2.6-12.2-5.2-17.8l0,0l-1.5-3.2l0,0l-1.6-2.7c-0.6-0.9-1-1.8-1.6-2.6
			c-0.6-0.8-1.2-1.7-1.8-2.5c-0.6-0.8-1.2-1.7-1.8-2.5l0,0c-1.4-1.5-2.5-3.1-4-4.4c-1.4-1.4-2.8-2.8-4.3-4.2c-2.9-2.7-6-5.1-9.3-7.3
			c-3.3-2.2-6.7-4.2-10.3-5.9c-1.8-0.9-3.6-1.7-5.4-2.5c-1.8-0.8-3.7-1.4-5.6-2.1l0,0l0,0c-1.2-0.5-2.5-0.8-3.8-1.2l-3.8-1.1l0,0
			c-2-0.4-3.9-0.8-5.9-1.3l0,0l-2-0.4l0,0c-3.3-0.4-6.5-0.9-9.8-1.3c-3.3-0.4-6.6-0.7-9.9-1.1c-3.3-0.4-6.6-1-9.8-1.7l-2.4-0.6
			c-0.8-0.2-1.6-0.4-2.4-0.6c-1.6-0.5-3.1-1.1-4.7-1.7l0,0l0,0c-0.4-0.2-0.9-0.5-1.3-0.7l-1.4-0.6l0,0l0,0c-0.9-0.5-1.7-1-2.6-1.4
			l0,0l0,0c-0.8-0.6-1.6-1.1-2.4-1.6l0,0l0,0l-2.9-2.4l0,0l0,0l-2.4-2.6c-0.8-0.9-1.5-1.8-2.1-2.8c-1.3-1.9-2.3-4-3.2-6.2
			c-1.7-4.3-2.8-8.9-3.6-13.4c-0.8-4.6-1.3-9.1-2.1-13.7c-0.2-1.1-0.4-2.3-0.6-3.4l-0.8-3.4l-0.4-1.7c-0.1-0.6-0.3-1-0.5-1.6
			l-1.1-3.3l0,0l-1.3-2.8c-0.4-0.9-0.9-1.8-1.4-2.7c-1-1.8-2.1-3.6-3.3-5.3c-1.2-1.7-2.5-3.3-3.9-4.8c-1.4-1.5-2.9-3-4.3-4.5l0,0
			c-1.7-1.5-3.3-3-5-4.3c-1.8-1.3-3.5-2.7-5.4-3.8c-0.9-0.6-1.8-1.2-2.8-1.8l-2.9-1.6c-1.9-1.1-3.9-2-5.9-3l0,0
			c-1.4-0.6-2.8-1.1-4.2-1.6c-0.7-0.3-1.3-0.5-2.1-0.8c-0.7-0.3-1.4-0.5-2.1-0.7c-0.7-0.2-1.4-0.5-2.1-0.7l-2.2-0.5
			c-1.5-0.4-2.9-0.7-4.4-1.1l0,0l-3-0.6c-1-0.2-2-0.3-3-0.4c-2-0.2-4.1-0.4-6.1-0.5c-4.1-0.2-8.2-0.3-12.3-0.7
			c-4.1-0.4-8.2-1.1-12-2.9c-1.9-0.9-3.6-2.1-5.1-3.5c-1.5-1.5-2.7-3.2-3.6-5.1c-0.9-1.9-1.5-3.9-1.9-5.9l-0.3-1.5l-0.2-1.5
			c-0.1-1-0.2-2-0.4-3.1c-0.4-4.1-0.6-8.2-0.8-12.3c-0.3-8.2-0.5-16.4-1.7-24.4c-1.1-8-3.6-16.1-8.5-22.5c-1.2-1.6-2.7-3-4.1-4.5
			c-1.6-1.3-3.1-2.6-4.8-3.7c-3.4-2.3-7.1-3.9-10.9-5.3c-7.7-2.8-15.7-4.6-23.5-7.2c-3.9-1.3-7.7-2.8-11.3-4.9
			c-1.8-1.1-3.5-2.2-5-3.6c-1.6-1.4-2.9-3.1-4-4.8c-1.1-1.8-2-3.7-2.5-5.7c-0.6-2-1-4-1.4-6l-1.3-6c-0.2-1-0.5-2-0.7-3
			c-0.2-1-0.5-2-0.8-3c-0.2-1-0.6-1.9-1-2.9l-1-2.9c-0.7-1.9-1.4-3.9-2.2-5.7c-0.8-1.9-1.7-3.7-2.6-5.6c-0.9-1.8-1.8-3.7-2.8-5.4
			c-4-7.1-8.5-13.9-13.6-20.4c-4.9-6.5-10.6-12.4-16.3-18.3c-5.8-5.7-11.9-11.3-18.1-16.5c-3.1-2.6-6.3-5.2-9.5-7.8
			c-3.3-2.5-6.5-4.9-9.8-7.3c-13.2-9.7-26.7-18.9-40.2-28.1l0.6-0.8c18,12.1,35.9,24.4,52.8,38c4.2,3.4,8.4,6.9,12.5,10.5
			c2,1.8,4,3.6,6,5.5c2,1.9,3.9,3.8,5.8,5.7l5.8,5.8c1.9,2,3.7,4,5.5,6c1.8,2,3.5,4.2,5.2,6.3c1.7,2.1,3.3,4.3,4.9,6.5
			c6.3,8.8,11.8,18.3,15.8,28.5c0.9,2.6,1.9,5.1,2.7,7.7c0.8,2.6,1.5,5.3,2.1,7.9c0.3,1.3,0.6,2.7,0.8,4c0.2,1.3,0.5,2.7,0.8,4
			c0.3,1.3,0.6,2.6,1,3.9c0.4,1.3,0.9,2.5,1.6,3.7c1.2,2.3,3,4.4,5,6.1c2,1.7,4.3,3.1,6.7,4.3c4.8,2.3,10,3.9,15.2,5.4l7.8,2.2
			c2.6,0.8,5.2,1.6,7.8,2.5c2.6,0.9,5.1,1.9,7.5,3.2c2.5,1.2,4.8,2.6,7,4.3l0,0c1.1,0.7,2,1.7,3,2.5l0,0l0,0
			c1.1,1.1,2.2,2.2,3.2,3.3c1,1.2,1.9,2.4,2.8,3.7c1.7,2.6,3.1,5.4,4,8.3c0.5,1.4,1,2.9,1.4,4.4c0.4,1.5,0.7,3,1,4.5
			c0.3,1.5,0.6,3,0.9,4.5c0.2,1.5,0.4,3,0.5,4.6c1.2,12.2,0.6,24.5,2.5,36.5c0.5,3,1.6,5.9,3.2,8.4c0.8,1.2,1.8,2.4,2.9,3.4
			c1.1,1,2.4,1.8,3.8,2.4c2.7,1.4,5.7,2,8.7,2.5c3,0.5,6,0.6,9.1,0.8c6.1,0.2,12.3,0.5,18.3,1.7c1.5,0.3,3,0.7,4.5,1.1l2.2,0.6
			c0.8,0.2,1.5,0.5,2.2,0.7c0.7,0.2,1.5,0.4,2.2,0.7c0.7,0.2,1.5,0.4,2.2,0.8c1.4,0.6,2.8,1.1,4.3,1.7l0,0l0,0l3.7,1.8
			c1.2,0.6,2.4,1.2,3.6,1.9c1.2,0.7,2.4,1.4,3.5,2.1c1.1,0.8,2.3,1.5,3.4,2.3c1.1,0.8,2.2,1.6,3.3,2.4c1.1,0.8,2.1,1.7,3.1,2.6
			c2.1,1.8,4,3.8,5.9,5.7l0,0l0,0c1.1,1.3,2.2,2.6,3.2,3.9c1,1.4,2,2.8,2.9,4.2c0.9,1.4,1.7,2.9,2.5,4.5c0.4,0.8,0.7,1.5,1.1,2.3
			c0.3,0.8,0.7,1.5,1,2.3l0.9,2.4c0.1,0.4,0.3,0.8,0.5,1.2c0.2,0.4,0.2,0.9,0.3,1.3c0.4,1.6,0.8,3.3,1.2,5c0.7,3.3,1.2,6.7,1.6,10
			c1,6.7,1.9,13.4,4.4,19.7c1.2,3.1,2.9,6.1,5,8.7c2.2,2.5,4.8,4.7,7.6,6.6l0,0c0.6,0.3,1.3,0.7,1.9,1c0.6,0.4,1.3,0.6,1.9,0.9
			c0.6,0.3,1.3,0.6,2,0.8l2,0.8l0,0l2.7,0.8c0.9,0.2,1.8,0.4,2.7,0.6c0.9,0.2,1.8,0.4,2.7,0.6l2.8,0.5c3.7,0.5,7.4,0.9,11.1,1.4
			c3.7,0.4,7.4,0.9,11.1,1.4l2.8,0.4c0.9,0.2,1.9,0.3,2.8,0.5c1.8,0.4,3.7,0.8,5.5,1.1l0,0l0,0l3.5,1c1.2,0.3,2.3,0.7,3.5,1.1
			c2.3,0.8,4.6,1.6,6.8,2.5c4.4,2,8.7,4.2,12.8,6.7c4.1,2.6,8,5.4,11.6,8.7c1.8,1.6,3.5,3.3,5.2,5l2.4,2.8l1.2,1.3
			c0.4,0.4,0.8,1,1.1,1.5l0,0l1.5,2.2c0.5,0.7,1.1,1.4,1.5,2.2c0.8,1.5,1.8,3,2.7,4.6l0,0l0,0l1.5,3.2l0,0c0.4,0.8,0.8,1.5,1.1,2.4
			c0.3,0.8,0.6,1.6,0.9,2.4c0.6,1.6,1.2,3.3,1.6,5l0,0c1.6,5.8,2.2,11.7,2.2,17.7c0.1,5.9-0.2,11.9,0,17.8c0.1,3,0.3,5.9,0.8,8.8
			c0.5,2.9,1.1,5.8,2.3,8.5c1.1,2.7,2.6,5.3,4.4,7.6c0.4,0.6,1,1.1,1.5,1.6c0.5,0.5,1,1.1,1.5,1.6c1.1,1,2.2,1.9,3.5,2.7
			c2.4,1.7,5,3.1,7.7,4.3c2.7,1.2,5.5,2.1,8.4,2.9c2.8,0.8,5.8,1.4,8.6,2.1l8.7,2c5.8,1.3,11.6,2.6,17.2,4.6c5.6,2,11,4.8,15.5,8.6
			l0,0l0,0c4.7,3.9,8.4,8.9,11.2,14.3c2.8,5.4,4.8,11.3,6.5,17.1c1.8,5.8,3.4,11.7,5.4,17.5c1,2.9,2.1,5.7,3.3,8.5
			c1.3,2.8,2.7,5.5,4.4,8c3.2,5.2,7.5,9.7,12.4,13.3c4.9,3.6,10.4,6.4,16.1,8.5C443.7,672.9,456.2,674.2,468.2,672z M468.2,672
			c-12,2.2-24.6,0.9-36.1-3.1c-5.7-2.1-11.2-4.9-16.1-8.5c-4.9-3.6-9.2-8.1-12.4-13.3c-1.7-2.6-3.1-5.2-4.4-8
			c-1.3-2.8-2.3-5.6-3.4-8.5c-2-5.7-3.7-11.6-5.5-17.5c-1.8-5.8-3.8-11.6-6.6-17c-2.8-5.4-6.5-10.3-11.2-14.3l0,0
			c-4.6-3.8-9.9-6.5-15.5-8.5c-5.6-2-11.4-3.3-17.2-4.6l-8.7-2c-2.9-0.7-5.8-1.3-8.7-2.1c-2.9-0.8-5.7-1.8-8.4-2.9
			c-2.7-1.2-5.4-2.6-7.8-4.3c-1.2-0.8-2.4-1.8-3.5-2.8c-0.6-0.5-1-1.1-1.6-1.6c-0.5-0.5-1.1-1.1-1.5-1.7c-1.8-2.4-3.3-5-4.5-7.7
			c-1.1-2.8-1.8-5.7-2.3-8.6c-0.5-2.9-0.7-5.9-0.8-8.9c-0.2-5.9,0.1-11.9,0-17.8c0-5.9-0.5-11.9-2.2-17.5l0,0l0,0
			c-0.3-1.7-0.9-3.3-1.6-4.9c-0.3-0.8-0.6-1.7-0.9-2.4c-0.3-0.8-0.7-1.5-1.1-2.3l0,0l-1.5-3.1l0,0c-0.9-1.5-1.9-3-2.7-4.6
			c-0.4-0.7-1-1.4-1.5-2.2l-1.6-2.2l0,0l0,0c-0.3-0.5-0.6-1-1.1-1.4l-1.2-1.4l-2.3-2.7c-1.7-1.7-3.4-3.4-5.2-5
			c-3.6-3.2-7.5-6.1-11.5-8.6c-4.1-2.6-8.4-4.7-12.8-6.7c-2.2-1-4.5-1.8-6.7-2.5c-1.1-0.3-2.3-0.7-3.4-1l-3.5-1l0,0
			c-1.8-0.4-3.7-0.7-5.5-1.1c-0.9-0.2-1.8-0.3-2.7-0.5l-2.8-0.4c-3.7-0.5-7.4-1-11.1-1.4c-3.7-0.5-7.4-0.9-11.1-1.4l-2.8-0.5
			c-0.9-0.2-1.8-0.4-2.7-0.6c-0.9-0.2-1.8-0.4-2.7-0.6l-2.7-0.8l0,0l0,0l-2-0.8c-0.7-0.3-1.3-0.5-2-0.8c-0.7-0.3-1.3-0.6-2-1
			c-0.6-0.4-1.3-0.7-1.9-1l0,0l0,0c-2.8-1.9-5.4-4.1-7.7-6.7c-2.2-2.6-3.9-5.7-5.1-8.8c-2.5-6.4-3.4-13.2-4.4-19.9
			c-0.5-3.3-1-6.7-1.6-10c-0.4-1.7-0.7-3.3-1.1-4.9c-0.1-0.4-0.2-0.8-0.3-1.2c-0.1-0.4-0.3-0.8-0.4-1.2l-0.9-2.4
			c-0.3-0.8-0.7-1.5-1-2.3c-0.3-0.8-0.7-1.5-1.1-2.3c-0.8-1.5-1.6-3-2.5-4.4c-0.9-1.4-1.8-2.8-2.9-4.1c-1-1.3-2.2-2.6-3.2-3.9l0,0
			c-1.9-2-3.8-3.9-5.8-5.7c-1-0.9-2-1.8-3.1-2.6l-3.3-2.4c-1.1-0.8-2.3-1.5-3.4-2.3c-1.1-0.7-2.3-1.4-3.5-2.1
			c-1.2-0.6-2.4-1.2-3.6-1.9l-3.7-1.8l0,0c-5.7-2.4-11.5-4.1-17.4-5.4c-6-1.2-12.1-1.5-18.2-1.7c-3.1-0.1-6.1-0.3-9.2-0.8
			c-3-0.5-6.1-1.2-8.9-2.6c-1.4-0.7-2.7-1.5-3.9-2.5c-1.2-1-2.2-2.2-3.1-3.5c-1.7-2.6-2.8-5.6-3.3-8.7c-1.9-12.2-1.3-24.5-2.5-36.6
			c-0.2-1.5-0.3-3-0.5-4.5c-0.3-1.5-0.6-3-0.9-4.5c-0.3-1.5-0.5-3-1-4.5c-0.4-1.5-0.9-2.9-1.4-4.3c-1-2.9-2.3-5.6-4-8.1
			c-0.8-1.3-1.7-2.5-2.7-3.6c-1-1.1-2.1-2.2-3.1-3.3l0,0c-1-0.8-1.9-1.7-2.9-2.4l0,0l0,0c-2.1-1.7-4.4-3.1-6.8-4.2
			c-2.4-1.2-4.9-2.2-7.4-3.1c-2.5-0.9-5.1-1.7-7.7-2.4L8,228.3c-5.2-1.5-10.4-3.1-15.4-5.5c-2.5-1.2-4.8-2.6-6.9-4.4
			c-2.1-1.8-3.9-3.9-5.2-6.4c-2.7-4.9-3-10.6-4.3-15.7c-0.6-2.7-1.3-5.2-2.1-7.8c-0.8-2.6-1.8-5.1-2.7-7.7c-4-10-9.4-19.5-15.7-28.2
			c-1.6-2.2-3.2-4.3-4.9-6.5c-1.7-2.1-3.4-4.2-5.2-6.3c-1.8-2-3.6-4-5.5-6l-5.7-5.7c-1.9-1.9-3.8-3.9-5.8-5.7c-2-1.9-4-3.7-6-5.5
			c-4.1-3.6-8.2-7-12.4-10.4c-16.9-13.6-34.8-25.8-52.8-37.9l0.6-0.8c13.5,9.2,27,18.5,40.2,28.2c3.3,2.4,6.6,4.9,9.9,7.3
			c3.2,2.6,6.4,5.2,9.5,7.8c6.3,5.3,12.3,10.8,18.1,16.6c11.6,11.5,22,24.4,30,38.8c1,1.8,1.9,3.7,2.8,5.5c0.9,1.8,1.8,3.7,2.6,5.6
			c0.8,1.9,1.5,3.8,2.2,5.8l1,2.9c0.3,1,0.7,1.9,1,3c0.3,1,0.5,2,0.8,3c0.3,1,0.5,2,0.7,3l1.3,6c0.8,4,1.6,8,3.8,11.4
			c1.1,1.7,2.3,3.3,3.8,4.6c1.5,1.3,3.2,2.5,4.9,3.5c3.5,2.1,7.3,3.6,11.2,4.9c7.7,2.6,15.7,4.4,23.5,7.2c3.9,1.4,7.7,3.1,11.1,5.4
			c1.7,1.1,3.3,2.5,4.9,3.8c1.4,1.5,2.9,2.9,4.2,4.6c0.6,0.8,1.2,1.7,1.8,2.5c0.5,0.9,1,1.8,1.5,2.7c1,1.8,1.8,3.7,2.5,5.7
			c1.3,3.9,2.3,7.9,2.9,12c1.2,8.1,1.4,16.4,1.7,24.5c0.2,4.1,0.4,8.2,0.8,12.2c0.1,1,0.2,2,0.3,3l0.2,1.5l0.3,1.5
			c0.4,2,0.9,3.9,1.8,5.7c0.9,1.8,2,3.5,3.5,4.9c1.4,1.4,3.1,2.5,4.9,3.4c3.6,1.7,7.7,2.4,11.7,2.8c4.1,0.4,8.1,0.5,12.2,0.7
			c2.1,0.1,4.1,0.3,6.1,0.5c1,0.1,2,0.2,3.1,0.4l3,0.6l0,0c1.5,0.3,2.9,0.7,4.4,1.1l2.2,0.5c0.7,0.2,1.5,0.5,2.2,0.7
			c0.7,0.2,1.4,0.4,2.1,0.7c0.7,0.2,1.5,0.5,2.1,0.8c1.4,0.6,2.8,1.1,4.2,1.6l0,0l0,0c2,1,4,1.9,5.9,3l2.9,1.6
			c1,0.5,1.9,1.2,2.8,1.8c1.9,1.2,3.6,2.6,5.4,3.9c1.8,1.3,3.4,2.9,5.1,4.3l0,0l0,0c1.4,1.5,2.9,3,4.3,4.5c1.4,1.5,2.7,3.2,3.9,4.9
			c1.2,1.7,2.3,3.5,3.3,5.3c0.5,0.9,1,1.8,1.4,2.8l1.3,2.8l0,0l0,0l1.1,3.3c0.2,0.5,0.4,1.1,0.6,1.7l0.4,1.7l0.8,3.4
			c0.2,1.1,0.4,2.3,0.6,3.4c0.8,4.6,1.3,9.1,2.1,13.7c0.8,4.5,1.8,9,3.5,13.3c0.9,2.1,1.9,4.2,3.1,6.1c0.6,1,1.3,1.9,2.1,2.7
			l2.3,2.5l0,0l2.9,2.4l0,0c0.8,0.5,1.6,1.1,2.4,1.6l0,0c0.9,0.4,1.8,1,2.6,1.4l0,0l1.4,0.6c0.5,0.2,0.9,0.4,1.4,0.7l0,0
			c1.6,0.6,3.1,1.2,4.7,1.7c1.5,0.5,3.2,0.8,4.8,1.2c3.2,0.7,6.5,1.2,9.8,1.7c3.3,0.4,6.6,0.7,9.9,1.1c3.3,0.4,6.6,0.9,9.9,1.3l0,0
			l1.9,0.4l0,0c1.9,0.5,3.9,0.9,5.9,1.3l0,0l0,0l3.8,1.1c1.3,0.4,2.6,0.6,3.8,1.2l0,0c1.9,0.7,3.7,1.3,5.6,2.1
			c1.8,0.8,3.6,1.6,5.4,2.5c3.6,1.8,7,3.7,10.3,5.9c3.3,2.2,6.5,4.7,9.4,7.4c1.5,1.3,2.9,2.8,4.3,4.2c1.5,1.4,2.6,3,4,4.4l0,0l0,0
			c0.6,0.8,1.3,1.7,1.8,2.5c0.6,0.8,1.2,1.7,1.8,2.5c0.6,0.9,1.1,1.8,1.6,2.7l1.6,2.7l0,0l0,0l1.5,3.2l0,0
			c2.6,5.6,4.6,11.7,5.3,17.9c0.4,3.1,0.5,6.2,0.5,9.4c0,3.1,0,6.2-0.1,9.4c-0.1,6.2-0.1,12.5,1.1,18.6c1.1,6.1,3.7,12,7.9,16.5
			c0.6,0.6,1,1.2,1.6,1.7c0.6,0.5,1.2,1,1.8,1.5c1.2,1,2.5,1.9,3.8,2.7c2.6,1.6,5.5,2.9,8.4,4c2.9,1.1,5.9,2,8.9,2.8l9.1,2.1
			c6.1,1.4,12.2,2.6,18.2,4.4c3,0.9,5.9,1.9,8.8,3.2c2.8,1.3,5.6,2.8,8.2,4.6c2.6,1.8,4.8,4,6.9,6.3c2.1,2.4,3.9,4.9,5.4,7.6
			c0.8,1.4,1.5,2.7,2.2,4.1l1.8,4.3c0.6,1.4,1.2,2.9,1.7,4.4c0.5,1.5,1,2.9,1.5,4.4c1.9,5.9,3.6,11.9,5.6,17.8
			c1,2.9,2.1,5.9,3.3,8.7c1.2,2.9,2.6,5.6,4.3,8.3c3.1,5.4,7.5,10,12.4,13.8c5,3.8,10.5,6.7,16.4,8.9
			C443.1,672.9,456,674.2,468.2,672z"/>
	</g>
</g>
</svg>
