<?xml version="1.0" encoding="utf-8"?>
<!-- Generator: Adobe Illustrator 23.0.1, SVG Export Plug-In . SVG Version: 6.00 Build 0)  -->
<svg version="1.1" id="Layer_1" xmlns="http://www.w3.org/2000/svg" xmlns:xlink="http://www.w3.org/1999/xlink" x="0px" y="0px"
	 viewBox="0 0 566.9 680.3" style="enable-background:new 0 0 566.9 680.3;" xml:space="preserve">
<style type="text/css">
	.st0{opacity:0.86;fill:#EFF2F7;enable-background:new    ;}
	.st1{opacity:0.86;fill:#FFFFFF;enable-background:new    ;}
	.st2{fill:#DE6D26;}
	.st3{fill:#5A6D52;}
</style>
<rect x="-12" y="-13.7" class="st0" width="595.8" height="721.1"/>
<g>
	<path class="st1" d="M-3.9,32.7C7.9,33,20,37.4,27.9,46.3c3.7,4.1,6.6,9,8.1,14.4c1.4,4.8,1.6,9.9,1.1,15c-1,10.5-5,20.5-7.9,30.6
		c-1.5,5.3-2.8,10.8-3.1,16.2c-0.3,5.8,0.7,11.5,2.5,16.9c3.8,10.8,10.9,19.7,17.3,28.9c6.3,9.2,12.1,19,13.6,30.4
		c1.2,9.2-1.1,18.3-5.6,26.5c-4.7,8.5-11.2,16.1-18.9,22c-7.2,5.6-15.8,9.9-24.8,10.9C6.1,258.6,2,258.3-2,257
		c-4.9-1.6-9-4.5-12.7-8c-4.7-4.4-8.3-9.7-11-15.7c-2.8-6.3-4.6-12.9-6.5-19.5c-4-13.5-8.5-27.1-17-38.4
		c-4.2-5.6-9.4-10.4-14.9-14.6c-5-2.3-9.4-5.5-12.9-9.8c-1.5-1.8-2.6-3.7-3.7-5.8c-2.4-3.4-4.3-7.1-5.1-11.2
		c-1.1-5.9,0.1-11.9,2.5-17.4c4.8-11,13.4-21,23.1-28c2.9-2.7,5.7-5.5,8-8.7c7.6-10.3,6.2-24.7,14.9-34.4
		C-28.8,36.3-15.6,32.4-3.9,32.7z"/>
	<path class="st2" d="M-5.9,29.2c-1.7-0.9-3.4-1.6-5.2-2.2c-0.7-0.3-1.3,0.9-0.5,1.2C3.1,33.1,13.5,47.7,14,63.5
		c0.3,9.3-3.1,18.4-6.8,26.9c-3.6,8.4-7.7,16.7-9.4,25.7c-0.8,4.2-1.1,8.5-0.6,12.7c0.5,4.4,2,8.5,4.2,12.3
		c4.6,8.2,11.8,14.5,18.6,20.8c3.8,3.5,7.5,7,10.7,11c2.6,3.2,4.8,6.8,6.5,10.6c3.4,7.5,5.1,15.8,4.9,24.2
		c-0.5,18.3-10.6,35.8-25.9,46.1c-1.9,1.3-4,2.4-6,3.4c-0.8,0.4-0.3,1.6,0.4,1.2c8.4-4.2,15.8-10.6,21.4-18.3
		c5.4-7.5,9.2-16.2,10.6-25.2c1.3-8.3,0.7-16.9-1.6-24.8c-2.5-8.6-7.1-16.1-13.2-22.5c-6.8-7.2-14.9-13.1-21.1-20.9
		c-2.9-3.6-5.3-7.5-6.8-11.9c-1.5-4.2-2-8.7-1.6-13.2c0.7-9.1,4.4-17.8,8.1-26.2c3.9-8.9,8.1-18.1,8.8-27.8c0.7-7.9-1.2-15.8-5-22.6
		C6.5,38.4,0.9,32.8-5.9,29.2z"/>
	<path class="st2" d="M-20.1,29.6c-1.7-0.9-3.4-1.6-5.2-2.2c-0.7-0.3-1.3,0.9-0.5,1.2C-11.1,33.5-0.7,48-0.2,63.9
		C0.1,73.2-3.3,82.2-7,90.8c-3.6,8.4-7.7,16.7-9.4,25.7c-0.8,4.2-1.1,8.5-0.6,12.7c0.5,4.4,2,8.5,4.2,12.3
		c4.6,8.2,11.8,14.4,18.6,20.7c3.8,3.5,7.5,7,10.7,11c2.6,3.2,4.8,6.8,6.5,10.6c3.4,7.5,5.1,15.8,4.9,24.2
		c-0.5,18.3-10.5,35.9-25.9,46.1c-1.9,1.3-4,2.4-6,3.4c-0.8,0.4-0.3,1.6,0.4,1.2c8.4-4.2,15.8-10.6,21.4-18.3
		c5.4-7.5,9.2-16.2,10.6-25.2c1.3-8.3,0.7-16.9-1.6-24.8c-2.5-8.6-7.1-16.1-13.2-22.5c-6.8-7.2-14.9-13.1-21.1-20.9
		c-2.9-3.6-5.3-7.5-6.8-11.9c-1.5-4.2-2-8.7-1.6-13.2c0.7-9.1,4.4-17.8,8.1-26.2C-4,87,0.2,77.8,1,68.1C1.6,60.2-0.2,52.3-4,45.5
		C-7.7,38.8-13.3,33.2-20.1,29.6z"/>
	<path class="st2" d="M-31,32.8c-1.7-0.9-3.4-1.6-5.2-2.2c-0.7-0.3-1.3,0.9-0.5,1.2C-22,36.7-11.6,51.2-11.1,67
		c0.3,9.3-3.1,18.4-6.8,26.9c-3.6,8.4-7.7,16.7-9.4,25.7c-0.8,4.2-1.1,8.5-0.6,12.7c0.5,4.4,2,8.5,4.2,12.3
		c4.6,8.2,11.7,14.5,18.5,20.7c3.8,3.5,7.5,7,10.7,11c2.6,3.2,4.8,6.8,6.5,10.6c3.4,7.5,5.1,15.8,4.9,24.2
		c-0.5,18.3-10.5,35.9-25.9,46.1c-1.9,1.3-4,2.4-6,3.4c-0.8,0.4-0.3,1.6,0.4,1.2c8.4-4.2,15.8-10.6,21.4-18.3
		c5.4-7.5,9.2-16.2,10.6-25.2c1.3-8.3,0.7-16.9-1.6-24.8c-2.5-8.6-7.1-16.1-13.2-22.5c-6.8-7.2-14.9-13.1-21.1-20.9
		c-2.9-3.6-5.3-7.5-6.8-11.9c-1.5-4.2-2-8.7-1.6-13.2c0.7-9.1,4.4-17.8,8.1-26.2c3.9-8.9,8.1-18.1,8.8-27.8c0.7-7.9-1.2-15.8-5-22.6
		C-18.6,42-24.1,36.3-31,32.8z"/>
	<path class="st2" d="M-45.1,33.1c-1.7-0.9-3.4-1.6-5.2-2.2c-0.7-0.3-1.3,0.9-0.5,1.2c14.7,4.9,25.1,19.4,25.6,35.2
		c0.3,9.3-3.1,18.4-6.8,26.9c-3.6,8.4-7.7,16.7-9.4,25.7c-0.8,4.2-1.1,8.5-0.6,12.7c0.5,4.4,2,8.5,4.2,12.3
		c4.6,8.2,11.8,14.4,18.6,20.7c3.8,3.5,7.5,7,10.7,11c2.6,3.2,4.8,6.8,6.5,10.6c3.4,7.5,5.1,15.8,4.9,24.2
		C2.4,229.8-7.7,247.4-23,257.7c-1.9,1.3-4,2.4-6,3.4c-0.8,0.4-0.3,1.6,0.4,1.2c8.4-4.2,15.8-10.6,21.4-18.3
		c5.4-7.5,9.2-16.2,10.6-25.2c1.3-8.3,0.7-16.9-1.6-24.8c-2.5-8.6-7.1-16.1-13.2-22.5c-6.8-7.2-14.9-13.1-21.1-20.9
		c-2.9-3.6-5.3-7.5-6.8-11.9c-1.5-4.2-2-8.7-1.6-13.2c0.7-9.1,4.4-17.7,8.1-26.1c3.9-8.9,8.1-18.1,8.8-27.8c0.7-7.9-1.2-15.8-5-22.6
		C-32.7,42.3-38.3,36.7-45.1,33.1z"/>
</g>
<g>
	<path class="st1" d="M544.8,210.2c14.7-1.9,30.6,1.2,42.1,10.7c5.4,4.4,9.9,9.9,12.9,16.3c2.6,5.7,3.9,12,4.2,18.3
		c0.8,13.2-2.2,26.4-3.8,39.5c-0.8,6.9-1.4,13.9-0.7,20.7c0.8,7.3,3,14.2,6.4,20.5c6.8,12.6,17.4,22.3,27,32.5
		c9.6,10.1,18.7,21.2,22.8,35c3.3,11.1,2.2,22.8-1.8,33.9c-4.1,11.5-10.8,22.1-19.2,30.9c-7.9,8.3-17.7,15.4-28.7,18.3
		c-5,1.3-10.3,1.8-15.4,1c-6.4-1-12-3.9-17.3-7.5c-6.7-4.6-12.1-10.5-16.6-17.3c-4.7-7.2-8.1-15.1-11.8-22.9
		c-7.5-16-15.8-32-28.4-44.3c-6.3-6.1-13.6-11-21.3-15.2c-6.6-1.9-12.7-5-17.9-9.6c-2.2-2-4-4.1-5.7-6.4c-3.7-3.7-6.7-7.9-8.5-12.9
		c-2.6-7.1-2.2-14.7-0.3-22.1c3.8-14.5,12.6-28.7,23.3-39.2c3.1-3.9,5.9-8,8.3-12.3c7.5-14.2,2.9-31.8,11.8-45.5
		C514.7,219.5,530.3,212.1,544.8,210.2z"/>
	<g>
		<path class="st3" d="M532.5,231.4c-3.5,9.1-4.5,19.3-2.3,29c2.7,11.9,9.4,22.6,15.8,33c6,9.8,12.1,19.9,14.5,31.1
			c1.3,5.5,1.4,11.2,0.3,16.7c-1.2,5.7-3.5,11-6.4,15.9c-6.3,10.7-15.4,19.5-22.6,29.6c-6.5,9-10.9,19.1-12.5,30.2
			c-1.5,10.3-0.8,21,2.2,31.1c3.4,11,9.5,21.2,17.5,29.5c8.3,8.6,18.6,15.2,29.8,19c1,0.4,1.4-1.2,0.3-1.6c-2.7-0.9-5.4-1.9-8-3.2
			c-20.8-10.1-36.3-30.2-40.2-52.8c-1.7-10.4-1-21.1,1.9-30.9c1.5-5,3.6-9.9,6.3-14.4c3.3-5.5,7.3-10.5,11.4-15.5
			c7.4-9,15.2-18,19.5-29c2-5.1,3.2-10.5,3-16c-0.1-5.3-1.2-10.6-3-15.7c-3.7-10.9-10.2-20.5-16.1-30.3c-6-10-11.9-20.7-13.1-32.3
			c-2.1-19.7,8.3-39.6,25.7-48.2c0.9-0.5,0-1.9-0.8-1.4c-2.1,1.1-4.1,2.3-6.1,3.7C541.8,214.4,535.9,222.4,532.5,231.4z"/>
		<path class="st3" d="M550.1,229.4c-3.5,9.1-4.4,19.2-2.2,28.9c2.7,11.9,9.4,22.6,15.8,33c6,9.8,12.1,19.9,14.5,31.1
			c1.3,5.5,1.4,11.2,0.3,16.7c-1.2,5.7-3.5,11-6.4,15.9c-6.3,10.7-15.4,19.5-22.6,29.6c-6.5,9-10.9,19.1-12.5,30.2
			c-1.5,10.3-0.8,21,2.2,31.1c3.4,11,9.5,21.2,17.5,29.5c8.3,8.6,18.6,15.2,29.8,19c1,0.4,1.4-1.2,0.3-1.6c-2.7-0.9-5.4-1.9-8-3.2
			c-20.8-10.1-36.3-30.2-40.1-52.8c-1.7-10.4-1-21.1,1.9-30.9c1.5-5,3.6-9.9,6.3-14.4c3.3-5.5,7.3-10.5,11.4-15.5
			c7.4-9,15.2-18,19.5-29c2-5.1,3.2-10.5,3-16c-0.1-5.3-1.2-10.6-3-15.7c-3.7-10.9-10.2-20.5-16.1-30.3c-6-10-11.9-20.7-13.1-32.3
			c-2.1-19.7,8.3-39.6,25.7-48.2c0.9-0.5,0-1.9-0.8-1.4c-2.1,1.1-4.1,2.3-6.1,3.7C559.5,212.5,553.6,220.5,550.1,229.4z"/>
		<path class="st3" d="M564.3,231.4c-3.5,9.1-4.5,19.3-2.3,29c2.7,11.9,9.4,22.6,15.8,33c6,9.8,12.1,19.9,14.5,31.1
			c1.3,5.5,1.4,11.2,0.3,16.7c-1.2,5.7-3.5,11-6.4,15.9c-6.3,10.7-15.4,19.5-22.6,29.6c-6.5,9-10.9,19.1-12.5,30.2
			c-1.5,10.3-0.8,21,2.2,31.1c3.4,11,9.5,21.2,17.5,29.5c8.3,8.6,18.6,15.2,29.8,19c1,0.4,1.4-1.2,0.3-1.6c-2.7-0.9-5.4-1.9-8-3.2
			c-20.8-10.1-36.3-30.2-40.1-52.8c-1.7-10.4-1-21.1,1.9-30.9c1.5-5,3.6-9.9,6.3-14.4c3.3-5.5,7.3-10.5,11.4-15.5
			c7.4-8.9,15.2-17.9,19.4-28.9c2-5.1,3.2-10.5,3-16c-0.1-5.3-1.2-10.6-3-15.7c-3.7-10.9-10.2-20.5-16.1-30.3
			c-6-10-11.9-20.7-13.1-32.3c-2.1-19.7,8.3-39.6,25.7-48.2c0.9-0.5,0-1.9-0.8-1.4c-2.1,1.1-4.1,2.3-6.1,3.7
			C573.6,214.5,567.6,222.5,564.3,231.4z"/>
		<path class="st3" d="M581.8,229.5c-3.5,9.1-4.5,19.3-2.3,29c2.7,11.9,9.4,22.6,15.8,33c6.1,9.8,12.1,19.9,14.6,31
			c1.3,5.5,1.4,11.2,0.3,16.7c-1.2,5.7-3.5,11-6.4,15.9c-6.3,10.7-15.4,19.5-22.6,29.6c-6.5,9-10.9,19.1-12.5,30.2
			c-1.5,10.3-0.8,21,2.2,31.1c3.4,11,9.5,21.2,17.5,29.5c8.3,8.6,18.6,15.2,29.8,19c1,0.4,1.4-1.2,0.3-1.6c-2.7-0.9-5.4-1.9-8-3.2
			c-20.8-10.1-36.3-30.2-40.1-52.8c-1.7-10.4-1-21.1,1.9-30.9c1.5-5,3.6-9.9,6.3-14.4c3.3-5.5,7.3-10.5,11.4-15.5
			c7.4-9,15.2-18,19.5-29c2-5.1,3.2-10.5,3-16c-0.1-5.3-1.2-10.6-2.9-15.6c-3.7-10.9-10.2-20.5-16.1-30.3c-6-10-11.9-20.7-13.1-32.3
			c-2.1-19.7,8.3-39.6,25.7-48.2c0.9-0.5,0-1.9-0.8-1.4c-2.1,1.1-4.1,2.3-6.1,3.7C591.2,212.5,585.3,220.5,581.8,229.5z"/>
	</g>
</g>
<g>
	<path class="st1" d="M6,397c14.3,4,27.7,13.1,34.6,26.3c3.2,6.2,5.2,13,5.5,20c0.2,6.3-1.1,12.5-3.2,18.6
		c-4.5,12.4-12.4,23.4-18.9,34.9c-3.4,6-6.7,12.3-8.7,18.8c-2.1,7-2.7,14.2-2.1,21.4c1.3,14.3,7.3,27.3,12.2,40.5
		c4.9,13.1,8.9,26.8,7.3,41.1c-1.3,11.5-6.9,21.9-14.9,30.5C9.5,658-0.9,665.1-12,670c-10.5,4.6-22.3,7.3-33.5,5.7
		c-5.2-0.7-10.2-2.4-14.6-5.1c-5.5-3.4-9.6-8.2-13-13.7c-4.3-6.8-7.1-14.4-8.5-22.4c-1.5-8.5-1.6-17.1-1.9-25.7
		c-0.7-17.7-2-35.6-8.9-51.9c-3.4-8.1-8.2-15.5-13.7-22.3c-5.3-4.3-9.8-9.5-12.7-15.8c-1.2-2.6-2.1-5.4-2.8-8.2
		c-1.9-4.8-3.1-9.9-2.8-15.3c0.4-7.5,3.7-14.4,8.3-20.4c9.2-11.9,22.8-21.5,36.7-27c4.4-2.4,8.6-5,12.4-8.1
		c12.4-10.2,15-28.1,28.6-37.3C-25.3,393.8-8.1,393.1,6,397z"/>
	<path class="st2" d="M4.7,392.2c-1.8-1.6-3.7-3-5.6-4.3c-0.8-0.6-1.8,0.7-1,1.3c16.3,10.4,24.6,31.3,20.4,50.7
		C16,451.4,9,461.4,2,470.7c-7,9.2-14.4,18-19.3,28.4c-2.3,4.9-4,10-4.6,15.2c-0.7,5.5-0.1,11,1.3,16.2c3.1,11.4,9.9,21.2,16.3,30.9
		c3.6,5.4,7,10.8,9.7,16.6c2.2,4.7,3.8,9.8,4.7,15c1.8,10.1,1.4,20.8-1.4,31c-6.3,22.1-23.8,40.4-45.6,48.2c-2.8,1-5.6,1.8-8.3,2.4
		c-1.1,0.2-0.8,1.9,0.2,1.6c11.5-2.5,22.4-8,31.6-15.7C-4.7,653,2.5,643.6,7,633c4.1-9.7,6-20.4,5.6-30.7
		c-0.4-11.2-3.8-21.7-9.2-31.4c-6.1-10.8-14.1-20.5-19.3-31.9c-2.4-5.2-4.1-10.7-4.7-16.5c-0.5-5.6,0.2-11.2,2.1-16.6
		c3.6-10.9,10.7-20.3,17.8-29.4c7.5-9.7,15.3-19.5,19.2-31.1c3.2-9.4,3.4-19.6,0.9-29C16.9,407.2,11.9,398.6,4.7,392.2z"/>
	<path class="st2" d="M-12.7,388.4c-1.8-1.6-3.7-3-5.6-4.3c-0.8-0.6-1.8,0.7-1,1.3C-3,395.8,5.2,416.7,1,436.1
		c-2.4,11.4-9.4,21.4-16.5,30.7c-7,9.2-14.4,18-19.3,28.4c-2.3,4.9-4,10-4.6,15.3c-0.7,5.5-0.1,11,1.3,16.2
		c3.1,11.4,9.9,21.2,16.3,30.9c3.6,5.4,7,10.8,9.7,16.6c2.2,4.7,3.8,9.8,4.7,15c1.8,10.1,1.4,20.8-1.4,31
		c-6.2,22.1-23.7,40.4-45.5,48.2c-2.8,1-5.6,1.8-8.3,2.4c-1.1,0.2-0.8,1.9,0.2,1.6c11.5-2.5,22.4-8,31.6-15.7
		c8.9-7.4,16.1-16.9,20.6-27.4c4.1-9.7,6-20.4,5.6-30.7c-0.4-11.2-3.8-21.7-9.2-31.4c-6.1-10.8-14.1-20.5-19.3-31.9
		c-2.4-5.2-4.1-10.7-4.7-16.5c-0.5-5.6,0.2-11.2,2.1-16.6c3.6-10.9,10.7-20.3,17.8-29.4c7.5-9.7,15.3-19.5,19.2-31.1
		c3.2-9.4,3.4-19.6,0.9-29C-0.5,403.4-5.5,394.8-12.7,388.4z"/>
	<path class="st2" d="M-26.9,388.9c-1.8-1.6-3.7-3-5.6-4.3c-0.8-0.6-1.8,0.7-1,1.3c16.3,10.4,24.6,31.3,20.4,50.7
		c-2.4,11.4-9.4,21.4-16.5,30.7c-7,9.2-14.4,18-19.3,28.4c-2.3,4.9-4,10-4.6,15.3c-0.7,5.5-0.1,11,1.3,16.2
		c3,11.4,9.8,21.2,16.2,30.9c3.6,5.4,7,10.8,9.7,16.6c2.2,4.7,3.8,9.8,4.7,15c1.8,10.1,1.4,20.8-1.4,31
		c-6.2,22.1-23.7,40.4-45.5,48.2c-2.8,1-5.6,1.8-8.3,2.4c-1.1,0.2-0.8,1.9,0.2,1.6c11.5-2.5,22.4-8,31.6-15.7
		c8.9-7.4,16.1-16.9,20.6-27.4c4.1-9.7,6-20.4,5.6-30.7c-0.4-11.2-3.8-21.7-9.2-31.4c-6.1-10.8-14.1-20.5-19.3-31.9
		c-2.4-5.2-4.1-10.7-4.7-16.5c-0.5-5.6,0.2-11.2,2.1-16.6c3.6-10.9,10.7-20.3,17.8-29.4c7.5-9.7,15.3-19.5,19.2-31.1
		c3.2-9.4,3.4-19.6,0.9-29C-14.6,403.9-19.7,395.3-26.9,388.9z"/>
	<path class="st2" d="M-44.3,385c-1.8-1.6-3.7-3-5.6-4.3c-0.8-0.6-1.8,0.7-1,1.3c16.3,10.4,24.6,31.3,20.4,50.7
		c-2.4,11.4-9.4,21.4-16.5,30.7c-7,9.2-14.4,18-19.3,28.4c-2.2,4.8-3.9,10-4.6,15.2c-0.7,5.5-0.1,11,1.3,16.2
		c3.1,11.4,9.9,21.2,16.3,30.9c3.6,5.4,7,10.8,9.7,16.6c2.2,4.7,3.8,9.8,4.7,15c1.8,10.1,1.4,20.8-1.4,31
		c-6.2,22.1-23.7,40.4-45.5,48.2c-2.8,1-5.6,1.8-8.3,2.4c-1.1,0.2-0.8,1.9,0.2,1.6c11.5-2.5,22.4-8,31.6-15.7
		c8.9-7.4,16.1-16.9,20.6-27.4c4.1-9.7,6-20.4,5.6-30.7c-0.4-11.2-3.8-21.7-9.2-31.4c-6.1-10.8-14.1-20.5-19.3-31.9
		c-2.4-5.2-4.1-10.7-4.7-16.5c-0.5-5.6,0.2-11.2,2.1-16.6c3.6-10.8,10.7-20.2,17.8-29.3c7.5-9.7,15.3-19.5,19.2-31.1
		c3.2-9.4,3.4-19.6,0.9-29C-32,400-37,391.4-44.3,385z"/>
</g>
</svg>
