<?xml version="1.0" encoding="utf-8"?>
<!-- Generator: Adobe Illustrator 23.0.1, SVG Export Plug-In . SVG Version: 6.00 Build 0)  -->
<svg version="1.1" id="Layer_1" xmlns="http://www.w3.org/2000/svg" xmlns:xlink="http://www.w3.org/1999/xlink" x="0px" y="0px"
	 viewBox="0 0 352 77" style="enable-background:new 0 0 352 77;" xml:space="preserve">
<style type="text/css">
	.st0{fill:#1C274D;}
	.st1{fill:#FD6D0D;}
	.st2{fill:#FFFFFF;}
	.st3{fill:#B8D8B6;}
	.st4{fill:none;stroke:#1C274D;stroke-width:2.6739;stroke-miterlimit:10;}
	.st5{fill:none;stroke:#1C274D;stroke-width:2.6739;stroke-linecap:round;stroke-linejoin:round;stroke-miterlimit:10;}
</style>
<path class="st0" d="M113.4,47.6c0.9,0.1,1.8,0.2,2.9,0.4c1.1,0.1,2.2,0.2,3.4,0.2c1.1,0,1.9-0.1,2.6-0.3c0.7-0.2,1.2-0.5,1.6-0.8
	c0.4-0.3,0.7-0.8,0.8-1.3c0.2-0.5,0.2-1.1,0.2-1.7c0-0.7-0.1-1.3-0.2-1.7c-0.2-0.5-0.4-0.8-0.8-1.1s-0.9-0.6-1.6-0.9
	c-0.7-0.3-1.5-0.6-2.5-0.9c-1.1-0.4-2-0.8-2.8-1.2c-0.8-0.4-1.5-0.9-2.1-1.4c-0.6-0.6-1-1.2-1.3-2c-0.3-0.8-0.4-1.8-0.4-2.9
	c0-2.4,0.7-4.2,2-5.4c1.4-1.2,3.4-1.8,6.3-1.8c1.1,0,2.1,0.1,3.2,0.2c1.1,0.1,1.9,0.3,2.4,0.5c0.4,0.2,0.6,0.4,0.7,0.6
	c0.1,0.2,0.1,0.5,0.1,0.7v1.7c-0.9-0.1-1.9-0.2-2.9-0.3c-1-0.1-2-0.1-3-0.1c-1,0-1.8,0.1-2.4,0.2c-0.7,0.2-1.2,0.4-1.6,0.7
	c-0.4,0.3-0.7,0.7-0.8,1.1c-0.2,0.5-0.2,1-0.2,1.6c0,0.7,0.1,1.2,0.3,1.7c0.2,0.4,0.5,0.8,0.9,1.1c0.4,0.3,0.9,0.6,1.6,0.9
	c0.7,0.3,1.5,0.6,2.5,0.9c1,0.4,1.9,0.8,2.7,1.1c0.8,0.4,1.5,0.8,2.1,1.4c0.6,0.6,1,1.2,1.4,2.1c0.3,0.8,0.5,1.8,0.5,3.1
	c0,2.7-0.7,4.6-2.2,5.8c-1.5,1.2-3.6,1.7-6.3,1.7c-1.2,0-2.4-0.1-3.5-0.2c-1.1-0.2-2-0.4-2.6-0.6c-0.3-0.1-0.5-0.3-0.7-0.5
	c-0.1-0.2-0.2-0.5-0.2-0.8L113.4,47.6L113.4,47.6z"/>
<path class="st0" d="M150,51.1h-2.3c-0.4,0-0.7-0.1-0.8-0.3c-0.1-0.2-0.2-0.4-0.2-0.7l-0.2-1.1c-0.7,0.6-1.4,1.2-2.3,1.7
	c-0.9,0.5-2,0.7-3.4,0.7c-2,0-3.4-0.5-4.4-1.6c-1-1.1-1.4-2.6-1.4-4.5c0-1.2,0.2-2.2,0.5-2.9c0.4-0.8,0.9-1.4,1.5-1.9
	c0.7-0.5,1.4-0.8,2.3-1c0.9-0.2,1.9-0.3,2.9-0.3h3.9V38c0-1.3-0.3-2.2-1-2.7c-0.7-0.5-1.8-0.7-3.5-0.7c-1.1,0-2.1,0.1-3,0.2
	c-0.9,0.1-1.5,0.2-1.7,0.2c-0.3,0-0.6-0.1-0.7-0.2c-0.1-0.2-0.2-0.4-0.2-0.6v-1.6c0.9-0.3,1.9-0.5,3-0.7c1.1-0.2,2.2-0.3,3.4-0.3
	c1.4,0,2.6,0.2,3.6,0.5c0.9,0.3,1.7,0.8,2.3,1.3s1,1.3,1.2,2.1c0.2,0.8,0.4,1.7,0.4,2.7L150,51.1L150,51.1z M146.3,42h-4
	c-0.8,0-1.4,0.1-1.9,0.2c-0.5,0.2-0.9,0.4-1.2,0.7c-0.3,0.3-0.5,0.6-0.6,1c-0.1,0.4-0.2,0.8-0.2,1.3c0,1.2,0.3,2,0.8,2.5
	c0.5,0.5,1.4,0.8,2.5,0.8c1,0,1.9-0.2,2.6-0.6c0.7-0.4,1.4-0.8,1.9-1.3L146.3,42L146.3,42z"/>
<path class="st0" d="M162.7,51.1c-0.4,0-0.6-0.1-0.7-0.2c-0.1-0.1-0.3-0.3-0.4-0.6c-1.4-3-2.5-6-3.5-9.1c-1-3.1-1.7-6.2-2.1-9.2h3.1
	c0.5,0,0.8,0.3,0.9,0.9c0.2,1.2,0.4,2.5,0.6,3.8c0.3,1.3,0.6,2.6,0.9,3.9c0.3,1.3,0.7,2.6,1.1,3.9c0.4,1.2,0.9,2.4,1.3,3.5
	c0.5-1.1,0.9-2.3,1.4-3.6c0.4-1.3,0.8-2.7,1.2-4.1c0.4-1.4,0.7-2.8,1-4.2c0.3-1.4,0.5-2.7,0.6-3.9h2.9c0.5,0,0.8,0.3,0.8,0.8
	c0,0.3-0.1,0.6-0.1,0.9c-0.1,0.3-0.1,0.7-0.2,1.1c-0.5,2.7-1.2,5.4-2.2,8.1c-0.9,2.7-2.1,5.4-3.4,8.1L162.7,51.1L162.7,51.1z"/>
<path class="st0" d="M191.7,49.1c-1.2,1.6-3.3,2.4-6.1,2.4s-4.9-0.8-6.1-2.4c-1.3-1.6-1.9-4.1-1.9-7.6c0-3.5,0.6-6,1.9-7.6
	c1.3-1.6,3.3-2.4,6.1-2.4s4.9,0.8,6.1,2.4c1.3,1.6,1.9,4.1,1.9,7.6C193.6,45,192.9,47.5,191.7,49.1z M187.4,48.3
	c0.5-0.2,1-0.6,1.3-1.1c0.3-0.5,0.6-1.3,0.8-2.2s0.2-2.1,0.2-3.4c0-1.4-0.1-2.5-0.2-3.4c-0.2-0.9-0.4-1.6-0.8-2.2s-0.8-0.9-1.3-1.1
	c-0.5-0.2-1.2-0.3-1.9-0.3s-1.4,0.1-1.9,0.3c-0.5,0.2-1,0.6-1.3,1.1c-0.3,0.5-0.6,1.3-0.8,2.2c-0.2,0.9-0.2,2-0.2,3.4
	c0,1.4,0.1,2.5,0.2,3.4c0.2,0.9,0.4,1.6,0.8,2.2c0.3,0.5,0.8,0.9,1.3,1.1c0.5,0.2,1.2,0.3,1.9,0.3S186.9,48.5,187.4,48.3z"/>
<path class="st0" d="M215.3,51.1c-0.4,0-0.6-0.1-0.8-0.2c-0.2-0.1-0.3-0.3-0.4-0.6c-0.2-0.6-0.5-1.3-0.9-2.2
	c-0.4-0.8-0.8-1.7-1.3-2.5c-0.5-0.9-1-1.7-1.5-2.6c-0.5-0.9-1.1-1.6-1.7-2.3h-4v10.4h-3c-0.6,0-0.9-0.3-0.9-0.9V25.5
	c1.1-0.2,2.3-0.4,3.7-0.5c1.4-0.1,2.8-0.2,4.2-0.2c3,0,5.2,0.7,6.5,2c1.4,1.3,2,3.3,2,6c0,1.9-0.4,3.4-1.3,4.6c-0.9,1.2-2,2-3.4,2.5
	c0.6,0.7,1.2,1.6,1.8,2.6c0.6,1,1.2,2,1.7,3c0.5,1,1,2,1.5,3c0.4,1,0.8,1.9,1,2.7L215.3,51.1L215.3,51.1z M208.9,37.6
	c0.7,0,1.3-0.1,1.8-0.2c0.6-0.1,1.1-0.4,1.5-0.7s0.7-0.8,1-1.5c0.2-0.6,0.3-1.4,0.3-2.4s-0.1-1.8-0.3-2.4c-0.2-0.6-0.5-1.1-0.9-1.5
	c-0.4-0.4-0.9-0.6-1.5-0.8c-0.6-0.1-1.3-0.2-2.1-0.2c-0.9,0-1.6,0-2.3,0.1c-0.7,0.1-1.2,0.1-1.7,0.2v9.5L208.9,37.6L208.9,37.6z"/>
<path class="st0" d="M238.8,51.1c-0.5,0-0.8-0.3-0.9-0.9c-0.2-1.1-0.4-2.2-0.5-3.2c-0.2-1-0.4-2.1-0.6-3.1h-8.4
	c-0.2,1.2-0.5,2.4-0.7,3.6c-0.2,1.2-0.4,2.4-0.6,3.6h-2.9c-0.5,0-0.8-0.3-0.8-0.9c0.1-0.8,0.2-1.5,0.3-2.2c0.5-2.4,0.9-4.7,1.5-7
	c0.5-2.2,1.1-4.3,1.7-6.2c0.6-1.9,1.2-3.7,1.7-5.3c0.6-1.6,1.1-3.1,1.7-4.3h3.8c0.3,0,0.5,0.1,0.7,0.2c0.2,0.1,0.3,0.3,0.4,0.6
	c0.5,1.3,1.1,2.8,1.7,4.6c0.6,1.8,1.2,3.8,1.9,5.9c0.6,2.2,1.2,4.5,1.7,7c0.5,2.5,1,5.1,1.4,7.7L238.8,51.1L238.8,51.1z M236.3,40.8
	c-0.6-2.4-1.2-4.6-1.8-6.7c-0.6-2.1-1.3-4-1.9-5.8c-0.6,1.8-1.2,3.7-1.9,5.8c-0.6,2.1-1.2,4.3-1.8,6.7H236.3z"/>
<path class="st0" d="M254.7,51.1h-2.2c-0.4,0-0.7-0.2-0.7-0.6v-6.6c-0.6-1-1.2-2-1.7-3c-0.5-1-1-1.9-1.4-2.9c-0.4-1-0.8-1.9-1.2-2.9
	c-0.4-1-0.7-2-1-3h2.5c0.3,0,0.5,0.1,0.5,0.2c0.1,0.1,0.2,0.3,0.2,0.6c0.2,0.6,0.4,1.2,0.6,1.9c0.2,0.7,0.5,1.4,0.8,2.1
	c0.3,0.7,0.6,1.5,0.9,2.3c0.3,0.8,0.7,1.5,1.1,2.3c0.4-0.8,0.8-1.6,1.2-2.5c0.4-0.9,0.7-1.7,1.1-2.6c0.3-0.9,0.6-1.6,0.8-2.4
	c0.2-0.7,0.4-1.4,0.5-1.8h2.1c0.3,0,0.4,0.1,0.5,0.3c0.1,0.2,0.1,0.4,0,0.6c-0.3,1-0.7,2-1,2.9c-0.3,0.9-0.7,1.8-1.1,2.7
	c-0.4,0.9-0.8,1.7-1.3,2.6c-0.5,0.9-1,1.8-1.5,2.7V51.1z"/>
<path class="st0" d="M159,53.4c0.5-0.1,1.3-0.2,2-0.2c1.1,0,1.8,0.2,2.3,0.6c0.4,0.4,0.6,0.9,0.6,1.5c0,1-0.7,1.7-1.5,2v0
	c0.6,0.2,1,0.8,1.2,1.6c0.3,1.1,0.4,1.9,0.6,2.2h-1.1c-0.1-0.2-0.3-0.9-0.5-1.9c-0.2-1.1-0.7-1.5-1.6-1.5h-1v3.4h-1L159,53.4
	L159,53.4z M160.1,57h1c1.1,0,1.8-0.6,1.8-1.5c0-1-0.7-1.5-1.8-1.5c-0.5,0-0.9,0-1,0.1V57z"/>
<path class="st0" d="M169.8,58.6c0,1.4,0.9,2,2,2c0.7,0,1.2-0.1,1.6-0.3l0.2,0.7c-0.4,0.2-1,0.4-1.9,0.4c-1.8,0-2.8-1.2-2.8-2.9
	c0-1.7,1-3.1,2.7-3.1c1.9,0,2.4,1.6,2.4,2.7c0,0.2,0,0.4,0,0.5L169.8,58.6L169.8,58.6z M172.8,57.9c0-0.7-0.3-1.7-1.4-1.7
	c-1,0-1.5,1-1.6,1.7H172.8z"/>
<path class="st0" d="M183,61.1c-0.3,0.1-0.9,0.3-1.6,0.3c-1.7,0-2.8-1.2-2.8-2.9c0-1.8,1.2-3,3.1-3c0.6,0,1.2,0.2,1.4,0.3l-0.2,0.8
	c-0.2-0.1-0.6-0.3-1.2-0.3c-1.3,0-2,1-2,2.2c0,1.3,0.9,2.1,2,2.1c0.6,0,1-0.2,1.3-0.3L183,61.1z"/>
<path class="st0" d="M189.1,54c0,0.4-0.2,0.6-0.7,0.6c-0.4,0-0.6-0.3-0.6-0.6c0-0.4,0.3-0.6,0.6-0.6C188.9,53.3,189.1,53.6,189.1,54
	z M188,61.3v-5.7h1v5.7H188z"/>
<path class="st0" d="M194.6,57.4c0-0.7,0-1.3,0-1.9h0.9l0,1h0c0.4-0.7,1.1-1.1,2-1.1c1.4,0,2.4,1.2,2.4,2.9c0,2-1.2,3.1-2.6,3.1
	c-0.8,0-1.4-0.3-1.8-0.9h0v3.1h-1V57.4z M195.6,58.9c0,0.2,0,0.3,0,0.4c0.2,0.7,0.8,1.2,1.6,1.2c1.1,0,1.7-0.9,1.7-2.2
	c0-1.1-0.6-2.1-1.7-2.1c-0.7,0-1.4,0.5-1.6,1.3c0,0.1-0.1,0.3-0.1,0.4V58.9z"/>
<path class="st0" d="M205.6,58.6c0,1.4,0.9,2,2,2c0.7,0,1.2-0.1,1.6-0.3l0.2,0.7c-0.4,0.2-1,0.4-1.9,0.4c-1.8,0-2.8-1.2-2.8-2.9
	c0-1.7,1-3.1,2.7-3.1c1.9,0,2.4,1.6,2.4,2.7c0,0.2,0,0.4,0,0.5L205.6,58.6L205.6,58.6z M208.7,57.9c0-0.7-0.3-1.7-1.4-1.7
	c-1,0-1.5,1-1.6,1.7H208.7z"/>
<path class="st0" d="M214.6,60.2c0.3,0.2,0.9,0.4,1.4,0.4c0.8,0,1.1-0.4,1.1-0.9c0-0.5-0.3-0.8-1.1-1c-1-0.4-1.5-0.9-1.5-1.6
	c0-0.9,0.7-1.7,2-1.7c0.6,0,1.1,0.2,1.4,0.4l-0.3,0.8c-0.2-0.1-0.6-0.3-1.2-0.3c-0.6,0-1,0.4-1,0.8c0,0.5,0.3,0.7,1.1,1
	c1,0.4,1.5,0.9,1.5,1.7c0,1-0.8,1.7-2.1,1.7c-0.6,0-1.2-0.2-1.6-0.4L214.6,60.2z"/>
<path class="st1" d="M55.7,58.5c-1.2,0.1-2.4,0.3-3.6,0.6c-2,0.6-4.1,1.2-6.2,1.4c-3.2,0.3-7.6-0.1-9.9-2.8
	c-2.2-2.6-1.8-7.9,2.1-8.6c-2-1-4.8,0.6-5.8,2.4c-1.5,2.5-0.7,5.8,1.1,7.9c2.2,2.5,5.8,3.8,9.1,3.8c4,0,7.7-1.8,11.6-3
	c3.5-1.1,7-1.1,10.5-0.7c-2.1-0.3-4.2-0.9-6.3-1.1C57.5,58.4,56.6,58.4,55.7,58.5z"/>
<path class="st1" d="M33.6,44.4c-0.6-0.4-1.5-0.5-2.1-0.2c0.3-0.2,1.1,0.4,1.3,0.7c0.9,1.2-0.3,2.3-1.1,3.1c-0.4,0.4-0.7,0.8-1,1.3
	c-0.1,0.1-0.1,0.2-0.2,0.3c0,0,0,0,0,0c-1.2,2.2-1.1,4.3-0.8,5.7c0.1,0.1,0.2,0.3,0.3,0.3c-0.5-3.4,1.3-5.1,1.3-5.1
	c0.4-0.5,0.9-0.9,1.4-1.3c0.9-0.7,1.8-1.6,1.8-2.9C34.5,45.6,34.2,44.8,33.6,44.4z"/>
<path class="st1" d="M37.5,51.5c0,0-2.4,5.5,3.8,6.6C41.3,58.1,36.8,56.6,37.5,51.5z"/>
<path class="st2" d="M65.1,45.1l-2.5,11.4c0,0,10.7-0.7,20.6,4.5l2.5-11.4c0.3,0.1,0.6,0.2,0.9,0.2c6.5,1.4,12.8-2.7,14.2-9.1
	c1.4-6.4-2.6-12.7-9-14.2c-0.2-5.3-3.9-10.1-9.4-11.3c-5.5-1.2-10.8,1.6-13.2,6.4c-6.4-1.3-12.7,2.8-14.1,9.2
	c-1.4,6.5,2.7,12.8,9.1,14.2C64.5,45,64.8,45,65.1,45.1z"/>
<path class="st3" d="M85.4,49.1l0.9-4.3c0,0,9.8,2.9,15-5.5C101.4,39.3,99.4,52.5,85.4,49.1z"/>
<path class="st3" d="M57.5,32.8c1.4-6.4,7.7-10.5,14.1-9.2c2.4-4.8,7.8-7.5,13.2-6.4c1.5,0.3,2.9,0.9,4.1,1.7
	c-1.6-1.9-3.8-3.3-6.5-3.8c-5.5-1.2-10.8,1.6-13.2,6.4c-6.4-1.3-12.7,2.8-14.1,9.2c-1.1,5,1.1,9.8,5.1,12.5
	C57.8,40.4,56.6,36.6,57.5,32.8z"/>
<path class="st4" d="M65.1,45.1l-2.5,11.4c0,0,10.7-0.7,20.6,4.5l2.5-11.4c0.3,0.1,0.6,0.2,0.9,0.2c6.5,1.4,12.8-2.7,14.2-9.1
	c1.4-6.4-2.6-12.7-9-14.2c-0.2-5.3-3.9-10.1-9.4-11.3c-5.5-1.2-10.8,1.6-13.2,6.4c-6.4-1.3-12.7,2.8-14.1,9.2
	c-1.4,6.5,2.7,12.8,9.1,14.2C64.5,45,64.8,45,65.1,45.1z"/>
<path class="st3" d="M67.6,45.6l-1.7,8.1c0,0,9-0.1,15.9,3.5c0,0-3.1-3.9-13.6-5.2L67.6,45.6z"/>
<path class="st5" d="M79.7,47.9l-1.5,6.8"/>
<path class="st5" d="M75.7,46.7l-1.5,6.8"/>
<path class="st5" d="M70.9,46.1l-1.5,6.8"/>
</svg>
