<?xml version="1.0" encoding="utf-8"?>
<!-- Generator: Adobe Illustrator 23.0.1, SVG Export Plug-In . SVG Version: 6.00 Build 0)  -->
<svg version="1.1" id="Layer_1" xmlns="http://www.w3.org/2000/svg" xmlns:xlink="http://www.w3.org/1999/xlink" x="0px" y="0px"
	 viewBox="0 0 800 287.3" style="enable-background:new 0 0 800 287.3;" xml:space="preserve">
<style type="text/css">
	.st0{fill:#D0D7DF;}
	.st1{fill:#A4B0C0;}
	.st2{fill:#4C5665;}
	.st3{opacity:7.000000e-02;fill:#539165;}
	.st4{opacity:0.18;fill:#539165;}
</style>
<title></title>
<g id="Search">
	
		<rect x="344.5" y="160" transform="matrix(0.6938 -0.7201 0.7201 0.6938 -8.4647 305.1745)" class="st0" width="20.3" height="5.1"/>
	
		<rect x="350" y="162.7" transform="matrix(0.6938 -0.7201 0.7201 0.6938 -10.588 310.7342)" class="st1" width="20.3" height="10.1"/>
	<path class="st2" d="M295,231.8L295,231.8c-5-4.9-5.2-12.9-0.3-17.9l44-45.6c1.9-2,5.2-2.1,7.2-0.1l11,10.6c2,1.9,2.1,5.2,0.1,7.2
		l-44,45.6C308.1,236.5,300,236.6,295,231.8z"/>
	<path class="st0" d="M465.7,58.3c-30.2-29.1-78.4-28.2-107.5,2c-29.1,30.2-28.2,78.4,2,107.5c30.2,29.1,78.4,28.2,107.5-2
		S495.9,87.4,465.7,58.3z M367.2,160.5c-26.2-25.3-27-67-1.7-93.2c25.3-26.2,67-27,93.2-1.7s27,67,1.7,93.2
		C435.1,185,393.4,185.8,367.2,160.5z"/>
	<circle class="st3" cx="412.9" cy="113.1" r="65.9"/>
	<path class="st4" d="M373,85.1c-2-1.9-2.1-5.2-0.1-7.2c20.4-21.1,54.1-21.8,75.3-1.4c2,1.9,2.1,5.2,0.1,7.2c-1.9,2-5.2,2.1-7.2,0.1
		c-17.2-16.5-44.4-16-60.9,1.1C378.2,87,375,87,373,85.1z"/>
</g>
</svg>
